if (_typeface_js && _typeface_js.loadFace) _typeface_js.loadFace({"glyphs":{"ợ":{"x_min":62.390625,"x_max":1007.171875,"ha":943,"o":"m 797 380 q 699 90 797 195 q 427 -14 602 -14 q 235 33 318 -14 q 107 171 151 81 q 62 380 62 261 q 159 669 62 566 q 432 773 256 773 q 575 749 508 773 q 691 679 643 726 q 792 873 792 709 l 997 873 l 1007 858 q 959 713 988 767 q 881 624 929 660 q 762 570 833 587 q 797 380 797 485 m 273 380 q 310 209 273 267 q 430 152 347 152 q 549 209 513 152 q 586 380 586 267 q 549 549 586 493 q 429 606 512 606 q 309 550 346 606 q 273 380 273 494 m 860 0 l 860 0 m 319 -190 q 432 -89 319 -89 q 544 -190 544 -89 q 516 -265 544 -238 q 432 -291 487 -291 q 319 -190 319 -291 "},"ҷ":{"x_min":83.421875,"x_max":988.984375,"ha":1009,"o":"m 290 758 l 290 480 q 381 381 290 381 q 492 395 441 381 q 596 430 544 409 l 596 758 l 803 758 l 803 151 l 988 151 l 988 -272 l 803 -272 l 803 0 l 596 0 l 596 301 q 462 247 524 263 q 343 232 400 232 q 151 295 219 232 q 83 476 83 358 l 83 758 l 290 758 m 911 0 l 911 0 "},"Ẩ":{"x_min":0,"x_max":958,"ha":958,"o":"m 731 0 l 659 236 l 298 236 l 226 0 l 0 0 l 349 996 l 606 996 l 958 0 l 731 0 m 609 413 q 497 775 509 733 q 479 842 484 817 q 351 413 456 755 l 609 413 m 868 1335 q 783 1241 868 1258 l 779 1200 l 693 1200 l 686 1278 q 746 1290 724 1280 q 768 1320 768 1301 q 756 1345 768 1335 q 714 1355 743 1355 q 665 1348 690 1355 l 665 1434 q 728 1439 680 1439 q 830 1414 791 1439 q 868 1335 868 1390 m 732 1071 l 623 1071 q 480 1183 547 1121 q 336 1071 402 1115 l 227 1071 l 227 1089 q 372 1279 302 1177 l 586 1279 q 668 1168 622 1226 q 732 1089 713 1110 l 732 1071 "},"Ҿ":{"x_min":0,"x_max":1205.765625,"ha":1317,"o":"m 648 -5 q 382 132 481 21 q 265 428 282 244 l 222 428 q 55 474 111 428 q 0 604 0 521 q 35 743 0 683 l 194 743 q 182 707 189 731 q 176 662 176 683 q 241 602 176 602 l 269 602 q 415 901 294 795 q 734 1007 535 1007 q 1088 873 970 1007 q 1205 476 1205 739 l 1205 428 l 482 428 q 562 228 491 296 q 760 160 633 160 q 967 192 854 160 q 1154 270 1079 223 l 1154 81 q 1007 17 1080 38 q 849 -10 935 -3 l 849 -289 l 648 -289 l 648 -5 m 734 832 q 559 771 626 832 q 484 602 493 710 l 987 602 q 925 777 987 722 q 734 832 863 832 "},"ӱ":{"x_min":0,"x_max":790,"ha":790,"o":"m 0 758 l 226 758 l 369 331 q 394 199 387 275 l 398 199 q 427 331 406 269 l 568 758 l 790 758 l 469 -97 q 343 -275 425 -216 q 152 -334 261 -334 q 47 -322 99 -334 l 47 -158 q 128 -167 84 -167 q 224 -133 183 -167 q 288 -32 265 -100 l 301 5 l 0 758 m 165 953 q 190 1021 165 997 q 259 1044 216 1044 q 329 1019 304 1044 q 355 953 355 994 q 329 887 355 912 q 259 863 303 863 q 190 886 216 863 q 165 953 165 910 m 438 953 q 465 1022 438 1000 q 533 1044 493 1044 q 604 1020 577 1044 q 630 953 630 995 q 603 887 630 911 q 533 863 577 863 q 465 885 493 863 q 438 953 438 907 "},"ǻ":{"x_min":58.328125,"x_max":734.546875,"ha":839,"o":"m 590 0 l 550 102 l 544 102 q 437 11 492 36 q 293 -14 381 -14 q 121 48 183 -14 q 58 226 58 110 q 142 404 58 347 q 397 467 227 461 l 529 472 l 529 505 q 411 620 529 620 q 197 565 320 620 l 128 705 q 419 774 259 774 q 653 707 571 774 q 734 505 734 641 l 734 0 l 590 0 m 529 351 l 449 348 q 314 315 358 345 q 270 224 270 286 q 371 137 270 137 q 485 178 442 137 q 529 288 529 220 l 529 351 m 319 1189 l 319 1199 q 386 1269 350 1228 q 437 1331 422 1309 l 669 1331 l 669 1322 q 599 1270 655 1306 q 457 1189 543 1235 l 319 1189 m 597 975 q 549 857 597 901 q 425 812 501 812 q 303 855 349 812 q 257 973 257 899 q 302 1090 257 1047 q 425 1134 348 1134 q 548 1089 499 1134 q 597 975 597 1045 m 490 973 q 472 1021 490 1004 q 425 1039 453 1039 q 378 1021 396 1039 q 359 973 359 1004 q 376 925 359 943 q 425 908 392 908 q 472 925 453 908 q 490 973 490 943 "},"Ổ":{"x_min":80.703125,"x_max":1025.296875,"ha":1106,"o":"m 1025 496 q 903 118 1025 250 q 553 -14 781 -14 q 202 118 325 -14 q 80 498 80 250 q 203 876 80 745 q 554 1007 325 1007 q 904 875 783 1007 q 1025 496 1025 743 m 301 496 q 364 246 301 330 q 553 162 427 162 q 804 496 804 162 q 554 832 804 832 q 364 747 428 832 q 301 496 301 663 m 935 1335 q 850 1241 935 1258 l 846 1200 l 760 1200 l 753 1278 q 813 1290 791 1280 q 835 1320 835 1301 q 823 1345 835 1335 q 781 1355 810 1355 q 732 1348 757 1355 l 732 1434 q 795 1439 747 1439 q 897 1414 858 1439 q 935 1335 935 1390 m 799 1071 l 690 1071 q 547 1183 614 1121 q 403 1071 469 1115 l 294 1071 l 294 1089 q 439 1279 369 1177 l 653 1279 q 735 1168 689 1226 q 799 1089 780 1110 l 799 1071 "},"Ừ":{"x_min":118.015625,"x_max":1243.296875,"ha":1229,"o":"m 931 992 l 931 864 q 1005 932 982 881 q 1029 1056 1029 983 l 1233 1056 l 1243 1041 q 1185 879 1221 936 q 1087 787 1149 822 q 931 739 1025 752 l 931 349 q 882 157 931 239 q 740 30 833 74 q 520 -14 647 -14 q 223 84 329 -14 q 118 352 118 182 l 118 992 l 327 992 l 327 368 q 375 212 327 262 q 526 162 423 162 q 675 214 629 162 q 722 369 722 266 l 722 992 l 931 992 m 1050 0 l 1050 0 m 493 1071 q 368 1167 450 1100 q 239 1278 285 1234 l 239 1293 l 471 1293 q 630 1089 513 1224 l 630 1071 l 493 1071 "},"Á":{"x_min":0,"x_max":958,"ha":958,"o":"m 731 0 l 659 236 l 298 236 l 226 0 l 0 0 l 349 996 l 606 996 l 958 0 l 731 0 m 609 413 q 497 775 509 733 q 479 842 484 817 q 351 413 456 755 l 609 413 m 367 1071 l 367 1089 q 526 1293 483 1224 l 758 1293 l 758 1278 q 638 1174 723 1243 q 504 1071 552 1104 l 367 1071 "},"ѩ":{"x_min":108.515625,"x_max":1253,"ha":1253,"o":"m 943 310 l 898 310 l 898 0 l 719 0 l 719 310 l 674 310 l 562 0 l 364 0 l 495 312 l 287 312 l 287 0 l 108 0 l 108 758 l 287 758 l 287 466 l 559 466 l 683 758 l 931 758 l 1253 0 l 1054 0 l 943 310 m 730 451 l 889 451 q 808 645 824 599 q 730 451 794 595 "},"ĥ":{"x_min":108.515625,"x_max":808.546875,"ha":913,"o":"m 808 0 l 601 0 l 601 443 q 479 607 601 607 q 354 548 392 607 q 315 357 315 489 l 315 0 l 108 0 l 108 1055 l 315 1055 l 315 840 q 310 722 315 815 l 305 661 l 316 661 q 536 773 385 773 q 739 701 670 773 q 808 494 808 629 l 808 0 m 613 1109 q 455 1227 507 1171 q 299 1109 402 1173 l 162 1109 l 162 1127 q 335 1331 290 1255 l 577 1331 q 650 1235 598 1295 q 751 1127 702 1174 l 751 1109 l 613 1109 "},"ѷ":{"x_min":0,"x_max":835.9375,"ha":840,"o":"m 0 758 l 216 758 l 355 333 q 394 169 389 223 l 397 169 q 435 329 406 244 l 519 562 q 579 694 553 658 q 641 747 605 730 q 735 764 677 764 q 835 745 787 764 l 835 584 q 780 597 806 597 q 741 582 758 597 q 709 530 724 567 l 501 0 l 290 0 l 0 758 m 532 842 q 416 943 490 875 q 319 1049 342 1012 l 319 1064 l 523 1064 q 579 956 545 1015 q 641 860 613 898 l 641 842 l 532 842 m 262 842 q 141 948 212 880 q 50 1049 71 1015 l 50 1064 l 254 1064 q 310 956 276 1015 q 372 860 344 898 l 372 842 l 262 842 "},"Κ":{"x_min":124.796875,"x_max":922,"ha":922,"o":"m 922 0 l 683 0 l 423 418 l 335 354 l 335 0 l 124 0 l 124 992 l 335 992 l 335 538 l 417 654 l 685 992 l 919 992 l 573 553 l 922 0 "},"҅":{"x_min":312.84375,"x_max":523.765625,"ha":802,"o":"m 422 1102 q 497 1082 470 1102 q 523 1026 523 1062 q 511 999 523 1008 q 483 984 498 990 q 455 973 468 979 q 443 954 443 967 q 466 913 443 932 q 522 885 489 893 l 522 827 q 374 877 436 831 q 312 989 312 924 q 341 1071 312 1041 q 422 1102 370 1102 "},"»":{"x_min":55.609375,"x_max":798.765625,"ha":855,"o":"m 798 371 l 547 64 l 398 144 l 587 380 l 398 616 l 547 697 l 798 388 l 798 371 m 455 371 l 204 64 l 55 144 l 244 380 l 55 616 l 204 697 l 455 388 l 455 371 "},"∆":{"x_min":38.640625,"x_max":874.671875,"ha":914,"o":"m 38 120 l 338 996 l 576 996 l 874 119 l 874 0 l 38 0 l 38 120 m 457 823 q 448 784 455 813 q 427 707 441 754 q 252 174 414 660 l 661 174 l 490 696 l 482 722 q 457 823 458 810 "},"ỹ":{"x_min":0,"x_max":790,"ha":790,"o":"m 0 758 l 226 758 l 369 331 q 394 199 387 275 l 398 199 q 427 331 406 269 l 568 758 l 790 758 l 469 -97 q 343 -275 425 -216 q 152 -334 261 -334 q 47 -322 99 -334 l 47 -158 q 128 -167 84 -167 q 224 -133 183 -167 q 288 -32 265 -100 l 301 5 l 0 758 m 287 913 q 247 894 266 913 q 219 840 228 876 l 118 840 q 174 994 125 938 q 302 1050 222 1050 q 357 1038 330 1050 q 410 1014 384 1027 q 461 989 436 1000 q 511 978 486 978 q 551 996 532 978 q 579 1051 570 1014 l 680 1051 q 624 896 673 952 q 496 841 574 841 q 441 852 468 841 q 388 877 414 863 q 337 901 362 890 q 287 913 312 913 "},"Ԓ":{"x_min":10.859375,"x_max":1109.234375,"ha":1136,"o":"m 909 0 l 699 0 l 699 817 l 457 817 l 446 726 q 372 238 404 379 q 278 41 339 98 q 111 -14 216 -15 q 10 0 54 -14 l 10 173 q 84 159 50 159 q 141 192 120 159 q 181 314 162 225 q 230 607 200 404 q 283 992 261 810 l 909 992 l 909 0 m 870 -336 q 745 -319 802 -336 l 745 -156 q 825 -169 785 -169 q 909 -53 909 -169 l 909 206 l 1109 206 l 1109 -84 q 1047 -270 1109 -204 q 870 -336 985 -336 "},"ў":{"x_min":0,"x_max":790,"ha":790,"o":"m 0 758 l 226 758 l 369 331 q 394 199 387 275 l 398 199 q 427 331 406 269 l 568 758 l 790 758 l 469 -97 q 343 -275 425 -216 q 152 -334 261 -334 q 47 -322 99 -334 l 47 -158 q 128 -167 84 -167 q 224 -133 183 -167 q 288 -32 265 -100 l 301 5 l 0 758 m 726 1085 q 630 900 713 958 q 391 842 547 842 q 154 897 231 842 q 67 1085 77 953 l 252 1085 q 287 986 257 1015 q 395 958 317 958 q 497 989 464 958 q 539 1085 531 1020 l 726 1085 "},"ţ":{"x_min":31.890625,"x_max":558.234375,"ha":603,"o":"m 427 150 q 558 174 482 150 l 558 20 q 368 -14 480 -14 q 187 48 244 -14 q 130 237 130 111 l 130 602 l 31 602 l 31 690 l 145 759 l 205 919 l 337 919 l 337 758 l 550 758 l 550 602 l 337 602 l 337 236 q 362 171 337 192 q 427 150 387 150 m 501 -170 q 450 -295 501 -256 q 291 -334 399 -334 q 192 -319 239 -334 l 192 -205 q 242 -215 211 -210 q 289 -220 273 -220 q 338 -177 338 -220 q 226 -104 338 -121 l 279 0 l 410 0 l 391 -42 q 471 -92 441 -58 q 501 -170 501 -126 "},"«":{"x_min":55.546875,"x_max":799.390625,"ha":855,"o":"m 55 388 l 307 697 l 455 616 l 266 380 l 455 144 l 307 64 l 55 371 l 55 388 m 399 388 l 650 697 l 799 616 l 610 380 l 799 144 l 650 64 l 399 371 l 399 388 "},"ử":{"x_min":104.453125,"x_max":1119.875,"ha":1055,"o":"m 645 0 l 617 96 l 605 96 q 512 15 573 44 q 373 -14 451 -14 q 172 57 240 -14 q 104 263 104 129 l 104 758 l 311 758 l 311 314 q 340 191 311 232 q 433 150 369 150 q 558 208 520 150 q 597 401 597 266 l 597 758 l 804 758 l 804 679 q 879 743 852 693 q 905 872 905 793 l 1109 872 l 1119 857 q 1061 694 1098 751 q 962 602 1024 637 q 804 554 900 568 l 804 0 l 645 0 m 913 0 l 913 0 m 628 1008 q 518 875 628 902 l 511 827 l 393 827 l 378 926 q 447 951 428 934 q 465 994 465 969 q 451 1027 465 1016 q 413 1039 437 1039 q 319 1023 369 1039 l 319 1137 q 375 1148 340 1144 q 439 1153 411 1153 q 581 1115 534 1153 q 628 1008 628 1077 "},"í":{"x_min":98.15625,"x_max":489.484375,"ha":424,"o":"m 315 0 l 108 0 l 108 758 l 315 758 l 315 0 m 98 842 l 98 860 q 257 1064 214 995 l 489 1064 l 489 1049 q 369 945 454 1014 q 235 842 283 875 l 98 842 "},"ң":{"x_min":108.515625,"x_max":999.34375,"ha":1032,"o":"m 315 758 l 315 466 l 604 466 l 604 758 l 811 758 l 811 151 l 999 151 l 999 -272 l 812 -272 l 812 0 l 604 0 l 604 312 l 315 312 l 315 0 l 108 0 l 108 758 l 315 758 m 920 0 l 920 0 "},"ņ":{"x_min":108.515625,"x_max":808.546875,"ha":913,"o":"m 808 0 l 601 0 l 601 443 q 572 566 601 525 q 479 607 543 607 q 354 549 392 607 q 315 357 315 491 l 315 0 l 108 0 l 108 758 l 266 758 l 294 661 l 305 661 q 401 744 340 716 q 539 773 461 773 q 740 701 671 773 q 808 494 808 629 l 808 0 m 316 -288 q 339 -191 326 -255 q 358 -85 353 -128 l 549 -85 l 549 -98 q 437 -307 499 -212 l 316 -307 l 316 -288 "},"µ":{"x_min":108.515625,"x_max":808.484375,"ha":917,"o":"m 315 314 q 345 191 315 232 q 438 150 375 150 q 562 209 524 150 q 601 401 601 268 l 601 758 l 808 758 l 808 0 l 651 0 l 622 101 l 612 101 q 543 14 583 43 q 442 -14 502 -14 q 365 1 400 -14 q 308 47 330 17 l 311 -10 l 315 -117 l 315 -334 l 108 -334 l 108 758 l 315 758 l 315 314 "},"ỳ":{"x_min":0,"x_max":790,"ha":790,"o":"m 0 758 l 226 758 l 369 331 q 394 199 387 275 l 398 199 q 427 331 406 269 l 568 758 l 790 758 l 469 -97 q 343 -275 425 -216 q 152 -334 261 -334 q 47 -322 99 -334 l 47 -158 q 128 -167 84 -167 q 224 -133 183 -167 q 288 -32 265 -100 l 301 5 l 0 758 m 366 842 q 241 938 323 871 q 112 1049 158 1005 l 112 1064 l 344 1064 q 503 860 386 995 l 503 842 l 366 842 "},"Ҫ":{"x_min":80.703125,"x_max":836.171875,"ha":885,"o":"m 545 831 q 362 741 427 831 q 297 492 297 652 q 545 160 297 160 q 798 213 650 160 l 798 36 q 526 -14 676 -14 q 195 117 309 -14 q 80 494 80 248 q 136 765 80 649 q 298 943 193 881 q 545 1006 404 1006 q 836 936 690 1006 l 768 765 q 656 811 712 791 q 545 831 600 831 m 524 -154 q 498 -81 524 -118 q 424 0 472 -44 l 545 0 q 621 -66 599 -40 q 656 -118 644 -91 q 668 -177 668 -146 q 621 -290 668 -247 q 498 -334 574 -334 q 392 -318 448 -334 l 392 -197 q 470 -209 433 -209 q 509 -196 494 -209 q 524 -154 524 -182 "},"қ":{"x_min":108.515625,"x_max":904.09375,"ha":924,"o":"m 605 758 l 833 758 l 533 394 l 734 151 l 904 151 l 904 -272 l 718 -272 l 718 0 l 625 0 l 315 384 l 315 0 l 108 0 l 108 758 l 315 758 l 315 389 l 605 758 m 860 0 l 860 0 "},"Ι":{"x_min":124.84375,"x_max":335.09375,"ha":460,"o":"m 124 0 l 124 992 l 335 992 l 335 0 l 124 0 "},"Ύ":{"x_min":-81.421875,"x_max":1061.859375,"ha":1061,"o":"m 628 583 l 835 992 l 1061 992 l 732 386 l 732 0 l 524 0 l 524 379 l 195 992 l 422 992 l 628 583 m -81 790 q -51 901 -69 826 q -25 1033 -33 976 l 166 1033 l 166 1016 q 39 769 113 890 l -81 769 l -81 790 "},"ѕ":{"x_min":62.390625,"x_max":637.09375,"ha":690,"o":"m 637 224 q 556 47 637 108 q 313 -14 475 -14 q 172 -2 231 -14 q 63 30 114 8 l 63 201 q 193 155 121 173 q 320 137 265 137 q 432 202 432 137 q 418 242 432 226 q 366 276 403 257 q 269 322 329 296 q 140 390 181 358 q 81 461 99 421 q 62 561 62 502 q 140 717 62 662 q 362 773 218 773 q 628 713 499 773 l 566 564 q 460 604 509 588 q 359 619 410 619 q 267 570 267 619 q 297 521 267 542 q 426 461 326 501 q 556 394 515 425 q 617 322 597 362 q 637 224 637 281 "},"Ш":{"x_min":124.796875,"x_max":1372.53125,"ha":1498,"o":"m 854 174 l 1162 174 l 1162 992 l 1372 992 l 1372 0 l 124 0 l 124 992 l 335 992 l 335 174 l 643 174 l 643 992 l 854 992 l 854 174 "},"M":{"x_min":124.796875,"x_max":1185.21875,"ha":1310,"o":"m 544 0 l 305 778 l 299 778 q 312 461 312 540 l 312 0 l 124 0 l 124 992 l 411 992 l 645 233 l 649 233 l 898 992 l 1185 992 l 1185 0 l 989 0 l 989 469 q 990 546 989 502 q 999 776 991 589 l 993 776 l 737 0 l 544 0 "},"Ψ":{"x_min":73.921875,"x_max":1143.75,"ha":1217,"o":"m 1143 666 q 1042 385 1143 476 q 737 295 941 295 l 702 295 l 702 0 l 514 0 l 514 295 l 479 295 q 173 385 272 295 q 73 664 73 475 l 73 992 l 270 992 l 270 666 q 321 512 270 560 q 493 465 372 465 l 514 465 l 514 992 l 702 992 l 702 465 l 723 465 q 894 514 841 465 q 946 663 946 563 l 946 992 l 1143 992 l 1143 666 "},"ӊ":{"x_min":108.515625,"x_max":1014.265625,"ha":1034,"o":"m 315 758 l 315 466 l 604 466 l 604 758 l 811 758 l 811 151 l 1014 151 l 915 -272 l 718 -272 l 811 0 l 604 0 l 604 312 l 315 312 l 315 0 l 108 0 l 108 758 l 315 758 m 920 0 l 920 0 "},"ũ":{"x_min":104.453125,"x_max":804.484375,"ha":913,"o":"m 645 0 l 617 96 l 607 96 q 512 14 573 43 q 373 -14 451 -14 q 172 57 240 -14 q 104 263 104 129 l 104 758 l 311 758 l 311 314 q 340 191 311 232 q 433 150 369 150 q 558 208 520 150 q 597 401 597 266 l 597 758 l 804 758 l 804 0 l 645 0 m 342 913 q 302 894 321 913 q 274 840 283 876 l 173 840 q 229 994 180 938 q 357 1050 277 1050 q 412 1038 385 1050 q 465 1014 439 1027 q 516 989 491 1000 q 566 978 541 978 q 606 996 587 978 q 634 1051 625 1014 l 735 1051 q 679 896 728 952 q 551 841 629 841 q 496 852 523 841 q 443 877 469 863 q 392 901 417 890 q 342 913 367 913 "},"ŭ":{"x_min":104.453125,"x_max":804.484375,"ha":913,"o":"m 645 0 l 617 96 l 607 96 q 512 14 573 43 q 373 -14 451 -14 q 172 57 240 -14 q 104 263 104 129 l 104 758 l 311 758 l 311 314 q 340 191 311 232 q 433 150 369 150 q 558 208 520 150 q 597 401 597 266 l 597 758 l 804 758 l 804 0 l 645 0 m 720 1071 q 637 904 712 966 q 450 842 563 842 q 262 903 332 842 q 186 1071 192 965 l 302 1071 q 320 1020 304 1039 q 365 994 336 1002 q 452 986 394 986 q 602 1071 591 986 l 720 1071 "},"―":{"x_min":55.609375,"x_max":1333.390625,"ha":1389,"o":"m 55 296 l 55 452 l 1333 452 l 1333 296 l 55 296 "},"{":{"x_min":21,"x_max":491.390625,"ha":547,"o":"m 194 183 q 150 273 194 242 q 21 304 105 304 l 21 466 q 150 496 106 466 q 194 582 194 526 l 194 587 l 194 803 q 260 949 194 907 q 491 992 325 992 l 491 839 q 398 813 424 837 q 373 743 373 789 l 373 540 q 214 390 369 413 l 214 381 q 373 238 373 358 l 373 231 l 373 28 q 398 -40 373 -17 q 491 -66 423 -64 l 491 -220 q 260 -177 325 -220 q 194 -30 194 -135 l 194 183 "},"ҿ":{"x_min":0,"x_max":933.3125,"ha":993,"o":"m 497 -1 q 303 109 374 25 q 222 328 232 194 q 0 480 0 328 q 27 592 0 545 l 166 592 q 149 518 149 554 q 215 466 149 466 l 226 466 q 343 693 248 614 q 586 773 437 773 q 841 681 750 773 q 933 428 933 590 l 933 328 l 429 328 q 483 189 432 239 q 625 140 533 140 q 760 154 697 140 q 890 200 824 169 l 890 39 q 683 -11 804 -2 l 683 -272 l 497 -272 l 497 -1 m 587 625 q 481 586 523 625 q 433 466 439 547 l 739 466 q 697 583 737 541 q 587 625 657 625 "},"¼":{"x_min":31.25,"x_max":1140.84375,"ha":1224,"o":"m 364 397 l 203 397 l 203 700 l 205 776 l 208 840 q 158 787 190 816 l 105 746 l 31 832 l 235 992 l 364 992 l 364 397 m 929 992 l 379 0 l 217 0 l 767 992 l 929 992 m 1140 103 l 1056 103 l 1056 0 l 894 0 l 894 103 l 635 103 l 635 207 l 896 599 l 1056 599 l 1056 217 l 1140 217 l 1140 103 m 894 217 l 894 328 q 898 453 894 386 q 874 398 892 435 q 846 346 856 362 l 760 217 l 894 217 "},"Ḿ":{"x_min":124.796875,"x_max":1185.21875,"ha":1310,"o":"m 544 0 l 305 778 l 299 778 q 312 461 312 540 l 312 0 l 124 0 l 124 992 l 411 992 l 645 233 l 649 233 l 898 992 l 1185 992 l 1185 0 l 989 0 l 989 469 q 990 546 989 502 q 999 776 991 589 l 993 776 l 737 0 l 544 0 m 531 1073 l 531 1091 q 690 1295 647 1226 l 922 1295 l 922 1280 q 802 1176 887 1245 q 668 1073 716 1106 l 531 1073 "},"Ӄ":{"x_min":124.796875,"x_max":985.828125,"ha":1055,"o":"m 461 364 q 335 347 410 364 l 335 0 l 124 0 l 124 992 l 335 992 l 335 514 l 433 654 l 699 992 l 932 992 l 541 525 l 544 525 q 782 472 680 525 q 935 322 885 419 q 985 95 985 226 q 938 -137 985 -36 q 806 -292 891 -237 q 617 -347 721 -347 q 496 -339 543 -347 q 398 -315 448 -332 l 398 -130 q 576 -162 486 -162 q 726 -93 672 -162 q 780 95 780 -23 q 703 296 780 228 q 461 364 627 364 "},"ι":{"x_min":108.515625,"x_max":536.796875,"ha":566,"o":"m 315 758 l 315 236 q 340 171 315 192 q 405 150 364 150 q 536 174 460 150 l 536 20 q 358 -14 462 -14 q 168 48 229 -14 q 108 237 108 111 l 108 758 l 315 758 "},"Ĳ":{"x_min":124.84375,"x_max":876.046875,"ha":1000,"o":"m 124 0 l 124 992 l 335 992 l 335 0 l 124 0 m 562 -291 q 437 -276 490 -291 l 437 -101 q 536 -114 492 -114 q 635 -71 606 -114 q 665 63 665 -28 l 665 992 l 876 992 l 876 64 q 796 -200 876 -109 q 562 -291 717 -291 "},"Ê":{"x_min":119.140625,"x_max":708.515625,"ha":778,"o":"m 695 0 l 124 0 l 124 992 l 695 992 l 695 819 l 335 819 l 335 602 l 670 602 l 670 429 l 335 429 l 335 173 l 695 173 l 695 0 m 570 1071 q 412 1189 464 1133 q 256 1071 359 1135 l 119 1071 l 119 1089 q 292 1293 247 1217 l 534 1293 q 607 1197 555 1257 q 708 1089 659 1136 l 708 1071 l 570 1071 "},"Ά":{"x_min":-37.421875,"x_max":958,"ha":958,"o":"m 731 0 l 659 236 l 298 236 l 226 0 l 0 0 l 349 996 l 606 996 l 958 0 l 731 0 m 609 413 q 497 775 509 733 q 479 842 484 817 q 351 413 456 755 l 609 413 m -37 790 q -7 901 -25 826 q 18 1033 10 976 l 210 1033 l 210 1016 q 83 769 157 890 l -37 769 l -37 790 "},")":{"x_min":41.375,"x_max":415.078125,"ha":471,"o":"m 415 380 q 362 48 415 202 q 210 -220 309 -106 l 42 -220 q 184 59 134 -95 q 234 381 234 214 q 185 704 234 547 q 41 992 137 861 l 210 992 q 362 716 310 873 q 415 380 415 559 "},"ε":{"x_min":52.90625,"x_max":719.453125,"ha":771,"o":"m 569 467 l 569 323 l 455 323 q 306 301 356 323 q 257 230 257 279 q 438 145 257 145 q 583 160 508 145 q 718 203 657 175 l 718 38 q 423 -14 601 -14 q 148 42 243 -14 q 52 209 52 98 q 96 327 52 282 q 237 392 139 373 l 237 399 q 92 574 92 432 q 179 721 92 669 q 423 773 265 773 q 580 757 501 773 q 719 716 659 741 l 655 566 q 528 609 575 598 q 429 619 481 619 q 315 602 352 619 q 278 549 278 585 q 323 485 278 504 q 465 467 368 467 l 569 467 "},"э":{"x_min":50.1875,"x_max":647.921875,"ha":711,"o":"m 283 -14 q 50 32 141 -14 l 50 194 q 271 139 168 139 q 386 183 346 139 q 434 314 427 227 l 148 314 l 148 452 l 434 452 q 392 577 428 535 q 288 619 356 619 q 112 576 208 619 l 54 718 q 169 757 105 742 q 296 773 233 773 q 561 676 474 773 q 647 387 647 580 q 556 87 647 189 q 283 -14 464 -14 "},"Ӷ":{"x_min":124.796875,"x_max":751.1875,"ha":779,"o":"m 751 992 l 751 818 l 335 818 l 335 180 l 537 180 l 537 -289 l 335 -289 l 335 0 l 124 0 l 124 992 l 751 992 "},"ӫ":{"x_min":62.390625,"x_max":797.609375,"ha":860,"o":"m 797 380 q 699 90 797 195 q 427 -14 602 -14 q 235 33 318 -14 q 107 171 151 81 q 62 380 62 261 q 159 669 62 566 q 432 773 256 773 q 624 725 541 773 q 752 588 708 677 q 797 380 797 500 m 430 152 q 534 191 496 152 q 581 309 572 231 l 276 309 q 324 191 286 231 q 430 152 361 152 m 429 606 q 324 567 362 606 q 276 453 286 529 l 581 453 q 535 567 572 529 q 429 606 498 606 m 197 953 q 222 1021 197 997 q 291 1044 248 1044 q 361 1019 336 1044 q 387 953 387 994 q 361 887 387 912 q 291 863 335 863 q 222 886 248 863 q 197 953 197 910 m 470 953 q 497 1022 470 1000 q 565 1044 525 1044 q 636 1020 609 1044 q 662 953 662 995 q 635 887 662 911 q 565 863 609 863 q 497 885 525 863 q 470 953 470 907 "},"ԋ":{"x_min":108.515625,"x_max":1218.5625,"ha":1323,"o":"m 315 758 l 315 466 l 590 466 l 590 758 l 797 758 l 797 253 q 825 182 799 205 q 907 159 852 159 q 989 194 964 159 q 1014 305 1014 228 l 1014 475 l 1218 475 l 1218 258 q 1139 54 1218 123 q 907 -14 1060 -14 q 671 54 750 -14 q 590 253 591 122 l 590 312 l 315 312 l 315 0 l 108 0 l 108 758 l 315 758 "},"ш":{"x_min":108.515625,"x_max":1237.484375,"ha":1346,"o":"m 1237 0 l 108 0 l 108 758 l 315 758 l 315 155 l 569 155 l 569 758 l 776 758 l 776 155 l 1030 155 l 1030 758 l 1237 758 l 1237 0 "},"Я":{"x_min":-6.78125,"x_max":799.21875,"ha":924,"o":"m 458 381 l 226 0 l -6 0 l 275 436 q 146 541 191 470 q 101 708 101 612 q 198 918 101 844 q 476 992 295 992 l 799 992 l 799 0 l 588 0 l 588 381 l 458 381 m 588 819 l 485 819 q 358 790 403 819 q 314 693 314 761 q 357 589 314 627 q 490 552 400 552 l 588 552 l 588 819 "},"a":{"x_min":58.328125,"x_max":734.546875,"ha":839,"o":"m 590 0 l 550 102 l 544 102 q 437 11 492 36 q 293 -14 381 -14 q 121 48 183 -14 q 58 226 58 110 q 142 404 58 347 q 397 467 227 461 l 529 472 l 529 505 q 411 620 529 620 q 197 565 320 620 l 128 705 q 419 774 259 774 q 653 707 571 774 q 734 505 734 641 l 734 0 l 590 0 m 529 351 l 449 348 q 314 315 358 345 q 270 224 270 286 q 371 137 270 137 q 485 178 442 137 q 529 288 529 220 l 529 351 "},"Ę":{"x_min":124.796875,"x_max":695.9375,"ha":778,"o":"m 695 0 l 124 0 l 124 992 l 695 992 l 695 819 l 335 819 l 335 602 l 670 602 l 670 429 l 335 429 l 335 173 l 695 173 l 695 0 m 532 -154 q 548 -196 532 -182 q 587 -209 563 -209 q 664 -197 624 -209 l 664 -318 q 559 -334 609 -334 q 436 -290 482 -334 q 389 -177 389 -247 q 415 -92 389 -132 q 511 0 441 -52 l 633 0 q 559 -81 585 -44 q 532 -154 532 -118 "},"Ӣ":{"x_min":124.796875,"x_max":1017.53125,"ha":1143,"o":"m 124 992 l 314 992 l 314 512 l 311 384 l 304 238 l 308 238 l 765 992 l 1017 992 l 1017 0 l 830 0 l 830 476 q 842 759 830 571 l 837 759 l 377 0 l 124 0 l 124 992 m 340 1214 l 800 1214 l 800 1071 l 340 1071 l 340 1214 "},"Z":{"x_min":33.21875,"x_max":770.78125,"ha":804,"o":"m 770 0 l 33 0 l 33 136 l 508 818 l 46 818 l 46 992 l 757 992 l 757 856 l 283 173 l 770 173 l 770 0 "},"⁸":{"x_min":30.5,"x_max":495.5,"ha":526,"o":"m 263 1006 q 416 964 359 1006 q 473 852 473 923 q 450 775 473 809 q 376 712 427 742 q 449 663 427 684 q 483 618 471 642 q 495 563 495 593 q 430 433 495 484 q 263 383 366 383 q 92 430 154 383 q 30 559 30 478 q 54 639 30 603 q 137 706 78 675 q 51 852 51 767 q 110 964 51 923 q 263 1006 169 1006 m 183 559 q 202 509 183 528 q 260 490 222 490 q 321 509 300 490 q 341 559 341 528 q 251 644 341 614 q 183 559 183 614 m 262 898 q 217 882 233 898 q 202 847 202 866 q 220 802 202 819 q 263 771 237 785 q 306 801 289 784 q 323 847 323 818 q 309 882 323 866 q 262 898 294 898 "}," ":{"x_min":0,"x_max":0,"ha":232},"k":{"x_min":108.515625,"x_max":861,"ha":861,"o":"m 307 412 l 397 527 l 609 758 l 842 758 l 541 429 l 861 0 l 622 0 l 404 307 l 315 235 l 315 0 l 108 0 l 108 1055 l 315 1055 l 315 584 l 304 412 l 307 412 "},"Ù":{"x_min":118.015625,"x_max":931.984375,"ha":1050,"o":"m 931 992 l 931 349 q 882 157 931 239 q 740 30 833 74 q 520 -14 647 -14 q 223 84 329 -14 q 118 352 118 182 l 118 992 l 327 992 l 327 384 q 373 215 327 269 q 526 162 419 162 q 675 216 629 162 q 722 385 722 270 l 722 992 l 931 992 m 508 1071 q 383 1167 465 1100 q 254 1278 300 1234 l 254 1293 l 486 1293 q 645 1089 528 1224 l 645 1071 l 508 1071 "},"Ҷ":{"x_min":73.921875,"x_max":1088.984375,"ha":1117,"o":"m 886 180 l 1088 180 l 1088 -289 l 886 -289 l 886 0 l 675 0 l 675 383 q 502 334 571 347 q 369 322 432 322 q 150 390 227 322 q 73 581 73 458 l 73 992 l 283 992 l 283 641 q 316 533 283 569 q 429 496 349 496 q 540 508 484 496 q 675 547 595 519 l 675 992 l 886 992 l 886 180 m 1011 0 l 1011 0 "},"Ů":{"x_min":118.015625,"x_max":931.984375,"ha":1050,"o":"m 931 992 l 931 349 q 882 157 931 239 q 740 30 833 74 q 520 -14 647 -14 q 223 84 329 -14 q 118 352 118 182 l 118 992 l 327 992 l 327 384 q 373 215 327 269 q 526 162 419 162 q 675 216 629 162 q 722 385 722 270 l 722 992 l 931 992 m 696 1231 q 648 1113 696 1158 q 523 1069 599 1069 q 401 1112 447 1069 q 355 1230 355 1155 q 401 1347 355 1303 q 523 1391 447 1391 q 647 1346 598 1391 q 696 1231 696 1301 m 589 1230 q 570 1278 589 1260 q 523 1295 552 1295 q 477 1278 495 1295 q 458 1230 458 1260 q 475 1182 458 1199 q 523 1164 491 1164 q 570 1182 552 1164 q 589 1230 589 1199 "},"¢":{"x_min":97,"x_max":705.484375,"ha":793,"o":"m 381 119 q 97 502 97 159 q 167 776 97 679 q 381 893 238 872 l 381 1006 l 502 1006 l 502 899 q 705 848 615 892 l 644 689 q 553 721 595 709 q 469 733 511 733 q 347 676 387 733 q 308 504 308 620 q 469 282 308 282 q 569 292 525 282 q 682 333 614 303 l 682 161 q 502 114 596 120 l 502 -14 l 381 -14 l 381 119 "},"В":{"x_min":124.796875,"x_max":859.75,"ha":933,"o":"m 124 992 l 433 992 q 739 931 644 992 q 834 740 834 871 q 792 594 834 651 q 682 526 751 537 l 682 519 q 818 440 776 498 q 859 287 859 383 q 761 75 859 151 q 495 0 663 0 l 124 0 l 124 992 m 335 599 l 457 599 q 580 625 542 599 q 619 713 619 651 q 577 794 619 770 q 445 819 535 819 l 335 819 l 335 599 m 335 432 l 335 173 l 471 173 q 600 206 558 173 q 641 308 641 240 q 465 432 641 432 l 335 432 "},"І":{"x_min":124.84375,"x_max":335.09375,"ha":460,"o":"m 124 0 l 124 992 l 335 992 l 335 0 l 124 0 "},"ē":{"x_min":62.390625,"x_max":761.3125,"ha":821,"o":"m 422 625 q 319 583 356 625 q 276 465 282 542 l 567 465 q 527 583 565 542 q 422 625 488 625 m 451 -14 q 165 87 268 -14 q 62 373 62 188 q 157 668 62 564 q 421 773 253 773 q 671 681 582 773 q 761 427 761 589 l 761 327 l 271 327 q 324 189 275 239 q 461 139 373 139 q 590 154 529 139 q 718 199 652 168 l 718 39 q 602 0 664 12 q 451 -14 540 -14 m 188 985 l 648 985 l 648 842 l 188 842 l 188 985 "},"Ẹ":{"x_min":124.796875,"x_max":695.9375,"ha":778,"o":"m 695 0 l 124 0 l 124 992 l 695 992 l 695 819 l 335 819 l 335 602 l 670 602 l 670 429 l 335 429 l 335 173 l 695 173 l 695 0 m 295 -190 q 408 -89 295 -89 q 520 -190 520 -89 q 492 -265 520 -238 q 408 -291 463 -291 q 295 -190 295 -291 "},"β":{"x_min":108.515625,"x_max":868.171875,"ha":917,"o":"m 470 1063 q 722 992 630 1063 q 813 796 813 921 q 762 636 813 695 q 615 562 710 577 l 615 558 q 805 476 742 541 q 868 292 868 410 q 779 68 868 150 q 536 -14 691 -14 q 315 28 400 -14 l 315 -334 l 108 -334 l 108 743 q 203 979 108 895 q 470 1063 298 1063 m 465 901 q 315 723 315 901 l 315 198 q 395 164 347 177 q 483 150 442 150 q 612 192 570 150 q 654 311 654 235 q 609 424 654 385 q 478 463 564 463 l 429 463 l 429 628 l 465 628 q 569 665 532 628 q 607 771 607 702 q 569 867 607 833 q 465 901 532 901 "},"≠":{"x_min":59.6875,"x_max":733.3125,"ha":793,"o":"m 380 283 l 294 96 l 158 153 l 218 283 l 59 283 l 59 432 l 287 432 l 341 546 l 59 546 l 59 694 l 409 694 l 498 884 l 634 826 l 572 694 l 733 694 l 733 546 l 504 546 l 450 432 l 733 432 l 733 283 l 380 283 "},"‼":{"x_min":79.265625,"x_max":712.640625,"ha":791,"o":"m 678 329 l 512 329 l 477 992 l 712 992 l 678 329 m 475 97 q 505 183 475 154 q 594 212 536 212 q 681 182 650 212 q 712 97 712 152 q 681 12 712 43 q 594 -18 650 -18 q 506 12 537 -18 q 475 97 475 42 m 282 329 l 116 329 l 81 992 l 316 992 l 282 329 m 79 97 q 109 183 79 154 q 198 212 140 212 q 285 182 254 212 q 316 97 316 152 q 285 12 316 43 q 198 -18 254 -18 q 110 12 141 -18 q 79 97 79 42 "},"Ғ":{"x_min":31.875,"x_max":749.203125,"ha":777,"o":"m 749 992 l 749 819 l 335 819 l 335 577 l 607 577 l 607 404 l 335 404 l 335 0 l 124 0 l 124 404 l 31 404 l 31 577 l 124 577 l 124 992 l 749 992 "},"¥":{"x_min":4.0625,"x_max":787.578125,"ha":793,"o":"m 396 583 l 575 992 l 787 992 l 527 485 l 660 485 l 660 364 l 493 364 l 493 271 l 660 271 l 660 150 l 493 150 l 493 0 l 298 0 l 298 150 l 130 150 l 130 271 l 298 271 l 298 364 l 130 364 l 130 485 l 259 485 l 4 992 l 218 992 l 396 583 "},"Ĥ":{"x_min":124.796875,"x_max":937.515625,"ha":1063,"o":"m 937 0 l 727 0 l 727 428 l 335 428 l 335 0 l 124 0 l 124 992 l 335 992 l 335 603 l 727 603 l 727 992 l 937 992 l 937 0 m 686 1071 q 528 1189 580 1133 q 372 1071 475 1135 l 235 1071 l 235 1089 q 408 1293 363 1217 l 650 1293 q 723 1197 671 1257 q 824 1089 775 1136 l 824 1071 l 686 1071 "},"U":{"x_min":118.015625,"x_max":931.984375,"ha":1050,"o":"m 931 992 l 931 349 q 882 157 931 239 q 740 30 833 74 q 520 -14 647 -14 q 223 84 329 -14 q 118 352 118 182 l 118 992 l 327 992 l 327 384 q 373 215 327 269 q 526 162 419 162 q 675 216 629 162 q 722 385 722 270 l 722 992 l 931 992 "},"Ñ":{"x_min":124.796875,"x_max":1004.21875,"ha":1129,"o":"m 1004 0 l 737 0 l 305 750 l 299 750 q 312 466 312 551 l 312 0 l 124 0 l 124 992 l 389 992 l 820 249 l 825 249 q 814 522 814 442 l 814 992 l 1004 992 l 1004 0 m 452 1142 q 412 1123 431 1142 q 384 1069 393 1105 l 283 1069 q 339 1223 290 1167 q 467 1279 387 1279 q 522 1267 495 1279 q 575 1243 549 1256 q 626 1218 601 1229 q 676 1207 651 1207 q 716 1225 697 1207 q 744 1280 735 1243 l 845 1280 q 789 1125 838 1181 q 661 1070 739 1070 q 606 1081 633 1070 q 553 1106 579 1092 q 502 1130 527 1119 q 452 1142 477 1142 "},"F":{"x_min":124.796875,"x_max":692.8125,"ha":762,"o":"m 331 0 l 124 0 l 124 992 l 692 992 l 692 819 l 331 819 l 331 564 l 667 564 l 667 392 l 331 392 l 331 0 "},"ả":{"x_min":58.328125,"x_max":734.546875,"ha":839,"o":"m 590 0 l 550 102 l 544 102 q 437 11 492 36 q 293 -14 381 -14 q 121 48 183 -14 q 58 226 58 110 q 142 404 58 347 q 397 467 227 461 l 529 472 l 529 505 q 411 620 529 620 q 197 565 320 620 l 128 705 q 419 774 259 774 q 653 707 571 774 q 734 505 734 641 l 734 0 l 590 0 m 529 351 l 449 348 q 314 315 358 345 q 270 224 270 286 q 371 137 270 137 q 485 178 442 137 q 529 288 529 220 l 529 351 m 593 1008 q 483 875 593 902 l 476 827 l 358 827 l 343 926 q 412 951 393 934 q 430 994 430 969 q 416 1027 430 1016 q 378 1039 402 1039 q 284 1023 334 1039 l 284 1137 q 340 1148 305 1144 q 404 1153 376 1153 q 546 1115 499 1153 q 593 1008 593 1077 "},"ϑ":{"x_min":27.859375,"x_max":975.578125,"ha":1017,"o":"m 672 672 q 610 850 657 786 q 494 914 563 914 q 430 895 454 914 q 407 837 407 876 q 477 716 407 760 q 672 672 547 673 m 888 516 l 889 487 l 889 456 q 781 106 889 227 q 466 -14 674 -14 q 243 42 318 -14 q 169 210 169 98 q 173 282 169 246 q 177 347 177 318 q 168 385 177 375 q 140 394 159 394 q 79 375 111 394 l 27 498 q 232 557 128 557 q 327 525 293 557 q 362 433 362 493 q 357 345 362 390 q 352 251 352 299 q 385 173 352 200 q 481 146 418 146 q 629 224 579 146 q 679 470 679 302 l 679 491 l 677 513 q 419 554 525 515 q 259 665 314 594 q 204 831 204 735 q 280 1005 204 940 q 490 1070 356 1070 q 750 970 654 1070 q 876 672 846 871 l 975 672 l 975 516 l 888 516 "},"Ӹ":{"x_min":124.796875,"x_max":1133.203125,"ha":1258,"o":"m 802 309 q 700 77 802 155 q 396 0 597 0 l 124 0 l 124 992 l 335 992 l 335 611 l 402 611 q 698 532 593 611 q 802 309 802 453 m 335 172 l 389 172 q 541 206 493 172 q 589 309 589 240 q 543 408 589 379 q 380 438 497 438 l 335 438 l 335 172 m 1133 0 l 923 0 l 923 992 l 1133 992 l 1133 0 m 399 1182 q 424 1250 399 1226 q 493 1273 450 1273 q 563 1248 538 1273 q 589 1182 589 1223 q 563 1116 589 1141 q 493 1092 537 1092 q 424 1115 450 1092 q 399 1182 399 1139 m 672 1182 q 699 1251 672 1229 q 767 1273 727 1273 q 838 1249 811 1273 q 864 1182 864 1224 q 837 1116 864 1140 q 767 1092 811 1092 q 699 1114 727 1092 q 672 1182 672 1136 "},"Ќ":{"x_min":124.796875,"x_max":933,"ha":933,"o":"m 933 0 l 694 0 l 335 502 l 335 0 l 124 0 l 124 992 l 335 992 l 335 511 l 690 992 l 914 992 l 552 515 l 933 0 m 393 1071 l 393 1089 q 552 1293 509 1224 l 784 1293 l 784 1278 q 664 1174 749 1243 q 530 1071 578 1104 l 393 1071 "},"ờ":{"x_min":62.390625,"x_max":1007.171875,"ha":943,"o":"m 797 380 q 699 90 797 195 q 427 -14 602 -14 q 235 33 318 -14 q 107 171 151 81 q 62 380 62 261 q 159 669 62 566 q 432 773 256 773 q 575 749 508 773 q 691 679 643 726 q 792 873 792 709 l 997 873 l 1007 858 q 959 713 988 767 q 881 624 929 660 q 762 570 833 587 q 797 380 797 485 m 273 380 q 310 209 273 267 q 430 152 347 152 q 549 209 513 152 q 586 380 586 267 q 549 549 586 493 q 429 606 512 606 q 309 550 346 606 q 273 380 273 494 m 860 0 l 860 0 m 417 842 q 292 938 374 871 q 163 1049 209 1005 l 163 1064 l 395 1064 q 554 860 437 995 l 554 842 l 417 842 "},"҄":{"x_min":165.5625,"x_max":702.71875,"ha":802,"o":"m 175 973 q 273 985 227 973 q 358 1013 318 998 q 436 1042 398 1029 q 514 1055 474 1055 q 622 1036 585 1055 q 681 978 659 1018 q 702 873 702 939 l 702 840 l 579 840 q 557 897 571 880 q 511 915 542 915 q 466 907 491 915 q 391 878 441 898 q 176 841 300 841 l 165 841 l 165 973 l 175 973 "},"å":{"x_min":58.328125,"x_max":734.546875,"ha":839,"o":"m 590 0 l 550 102 l 544 102 q 437 11 492 36 q 293 -14 381 -14 q 121 48 183 -14 q 58 226 58 110 q 142 404 58 347 q 397 467 227 461 l 529 472 l 529 505 q 411 620 529 620 q 197 565 320 620 l 128 705 q 419 774 259 774 q 653 707 571 774 q 734 505 734 641 l 734 0 l 590 0 m 529 351 l 449 348 q 314 315 358 345 q 270 224 270 286 q 371 137 270 137 q 485 178 442 137 q 529 288 529 220 l 529 351 m 599 1002 q 551 884 599 929 q 426 840 502 840 q 304 883 350 840 q 258 1001 258 926 q 304 1118 258 1074 q 426 1162 350 1162 q 550 1117 501 1162 q 599 1002 599 1072 m 492 1001 q 473 1049 492 1031 q 426 1066 455 1066 q 380 1049 398 1066 q 361 1001 361 1031 q 378 953 361 970 q 426 935 394 935 q 473 953 455 935 q 492 1001 492 970 "},"Ϋ":{"x_min":0.09375,"x_max":866.859375,"ha":867,"o":"m 433 583 l 640 992 l 866 992 l 537 386 l 537 0 l 329 0 l 329 379 l 0 992 l 227 992 l 433 583 m 203 1182 q 228 1250 203 1226 q 297 1273 254 1273 q 367 1248 342 1273 q 393 1182 393 1223 q 367 1116 393 1141 q 297 1092 341 1092 q 228 1115 254 1092 q 203 1182 203 1139 m 476 1182 q 503 1251 476 1229 q 571 1273 531 1273 q 642 1249 615 1273 q 668 1182 668 1224 q 641 1116 668 1140 q 571 1092 615 1092 q 503 1114 531 1092 q 476 1182 476 1136 "},"0":{"x_min":50.203125,"x_max":743.484375,"ha":793,"o":"m 743 495 q 658 110 743 235 q 396 -14 573 -14 q 137 114 224 -14 q 50 495 50 243 q 135 882 50 758 q 396 1007 219 1007 q 655 876 567 1007 q 743 495 743 746 m 258 495 q 289 233 258 312 q 396 154 321 154 q 502 234 469 154 q 534 495 534 315 q 501 757 534 677 q 396 837 468 837 q 290 757 322 837 q 258 495 258 677 "},"ō":{"x_min":62.390625,"x_max":797.609375,"ha":860,"o":"m 273 380 q 310 209 273 267 q 430 152 347 152 q 549 209 513 152 q 586 380 586 267 q 549 549 586 493 q 429 606 512 606 q 309 550 346 606 q 273 380 273 494 m 797 380 q 699 90 797 195 q 427 -14 602 -14 q 235 33 318 -14 q 107 171 151 81 q 62 380 62 261 q 159 669 62 566 q 432 773 256 773 q 624 725 541 773 q 752 588 708 677 q 797 380 797 500 m 199 985 l 659 985 l 659 842 l 199 842 l 199 985 "},"”":{"x_min":16.953125,"x_max":601.84375,"ha":618,"o":"m 284 977 q 165 652 250 843 l 16 652 q 84 992 63 852 l 275 992 l 284 977 m 601 977 q 482 652 567 843 l 333 652 q 401 992 380 852 l 591 992 l 601 977 "},"Ӕ":{"x_min":0,"x_max":1240.9375,"ha":1323,"o":"m 1240 0 l 648 0 l 648 236 l 315 236 l 213 0 l 0 0 l 444 992 l 1240 992 l 1240 819 l 858 819 l 858 602 l 1215 602 l 1215 429 l 858 429 l 858 173 l 1240 173 l 1240 0 m 392 413 l 648 413 l 648 812 l 562 812 l 392 413 "},"҆":{"x_min":311.46875,"x_max":522.390625,"ha":802,"o":"m 522 989 q 460 878 522 925 q 312 827 398 831 l 312 885 q 368 912 345 892 q 392 954 392 932 q 379 973 392 967 q 351 984 367 979 q 324 999 336 990 q 311 1026 311 1008 q 337 1082 311 1062 q 412 1102 364 1102 q 493 1071 465 1102 q 522 989 522 1041 "},"ö":{"x_min":62.390625,"x_max":797.609375,"ha":860,"o":"m 273 380 q 310 209 273 267 q 430 152 347 152 q 549 209 513 152 q 586 380 586 267 q 549 549 586 493 q 429 606 512 606 q 309 550 346 606 q 273 380 273 494 m 797 380 q 699 90 797 195 q 427 -14 602 -14 q 235 33 318 -14 q 107 171 151 81 q 62 380 62 261 q 159 669 62 566 q 432 773 256 773 q 624 725 541 773 q 752 588 708 677 q 797 380 797 500 m 197 953 q 222 1021 197 997 q 291 1044 248 1044 q 361 1019 336 1044 q 387 953 387 994 q 361 887 387 912 q 291 863 335 863 q 222 886 248 863 q 197 953 197 910 m 470 953 q 497 1022 470 1000 q 565 1044 525 1044 q 636 1020 609 1044 q 662 953 662 995 q 635 887 662 911 q 565 863 609 863 q 497 885 525 863 q 470 953 470 907 "},"ć":{"x_min":62.390625,"x_max":691.484375,"ha":714,"o":"m 416 -14 q 62 375 62 -14 q 158 670 62 568 q 434 773 254 773 q 670 721 566 773 l 609 561 q 518 593 560 581 q 434 606 476 606 q 273 376 273 606 q 434 153 273 153 q 545 169 494 153 q 646 219 596 185 l 646 42 q 545 -1 596 10 q 416 -14 494 -14 m 300 842 l 300 860 q 459 1064 416 995 l 691 1064 l 691 1049 q 571 945 656 1014 q 437 842 485 875 l 300 842 "},"þ":{"x_min":108.515625,"x_max":816.59375,"ha":879,"o":"m 315 660 q 404 744 349 715 q 530 773 459 773 q 740 668 664 773 q 816 380 816 563 q 740 90 816 195 q 530 -14 665 -14 q 315 79 385 -14 l 305 79 l 310 36 l 315 -26 l 315 -334 l 108 -334 l 108 1055 l 315 1055 l 315 790 l 310 709 l 305 660 l 315 660 m 463 607 q 352 560 387 607 q 315 404 316 513 l 315 381 q 351 206 315 259 q 466 153 387 153 q 605 383 605 153 q 571 551 605 495 q 463 607 537 607 "},"]":{"x_min":34.59375,"x_max":362.984375,"ha":460,"o":"m 34 -76 l 185 -76 l 185 848 l 34 848 l 34 992 l 362 992 l 362 -220 l 34 -220 l 34 -76 "},"А":{"x_min":0,"x_max":958,"ha":958,"o":"m 731 0 l 659 236 l 298 236 l 226 0 l 0 0 l 349 996 l 606 996 l 958 0 l 731 0 m 609 413 q 497 775 509 733 q 479 842 484 817 q 351 413 456 755 l 609 413 "},"′":{"x_min":90.203125,"x_max":279.421875,"ha":370,"o":"m 279 992 l 251 634 l 118 634 l 90 992 l 279 992 "},"Ы":{"x_min":124.796875,"x_max":1133.203125,"ha":1258,"o":"m 802 309 q 700 77 802 155 q 396 0 597 0 l 124 0 l 124 992 l 335 992 l 335 611 l 402 611 q 698 532 593 611 q 802 309 802 453 m 335 172 l 389 172 q 541 206 493 172 q 589 309 589 240 q 543 408 589 379 q 380 438 497 438 l 335 438 l 335 172 m 1133 0 l 923 0 l 923 992 l 1133 992 l 1133 0 "},"ẁ":{"x_min":13.5625,"x_max":1175.4375,"ha":1189,"o":"m 731 0 l 673 265 l 594 600 l 590 600 l 451 0 l 229 0 l 13 758 l 219 758 l 307 422 q 349 173 328 332 l 354 173 q 377 336 356 225 l 388 394 l 482 758 l 710 758 l 799 394 q 807 350 801 379 q 818 288 813 321 q 828 224 824 255 q 833 173 832 192 l 837 173 q 859 307 843 222 q 881 422 874 392 l 972 758 l 1175 758 l 957 0 l 731 0 m 571 842 q 446 938 528 871 q 317 1049 363 1005 l 317 1064 l 549 1064 q 708 860 591 995 l 708 842 l 571 842 "},"ệ":{"x_min":62.390625,"x_max":761.3125,"ha":821,"o":"m 422 625 q 319 583 356 625 q 276 465 282 542 l 567 465 q 527 583 565 542 q 422 625 488 625 m 451 -14 q 165 87 268 -14 q 62 373 62 188 q 157 668 62 564 q 421 773 253 773 q 671 681 582 773 q 761 427 761 589 l 761 327 l 271 327 q 324 189 275 239 q 461 139 373 139 q 590 154 529 139 q 718 199 652 168 l 718 39 q 602 0 664 12 q 451 -14 540 -14 m 568 842 q 410 960 462 904 q 254 842 357 906 l 117 842 l 117 860 q 290 1064 245 988 l 532 1064 q 605 968 553 1028 q 706 860 657 907 l 706 842 l 568 842 m 296 -189 q 409 -88 296 -88 q 521 -189 521 -88 q 493 -264 521 -237 q 409 -290 464 -290 q 296 -189 296 -290 "},"ĭ":{"x_min":-55.046875,"x_max":478.71875,"ha":424,"o":"m 315 0 l 108 0 l 108 758 l 315 758 l 315 0 m 478 1071 q 395 904 470 966 q 208 842 321 842 q 20 903 90 842 q -55 1071 -49 965 l 60 1071 q 78 1020 62 1039 q 123 994 94 1002 q 210 986 152 986 q 360 1071 349 986 l 478 1071 "},"8":{"x_min":48.84375,"x_max":744.84375,"ha":793,"o":"m 397 1004 q 627 939 539 1004 q 714 764 714 874 q 672 629 714 688 q 536 523 630 569 q 696 398 647 463 q 744 256 744 333 q 649 60 744 134 q 397 -14 553 -14 q 141 55 234 -14 q 48 251 48 124 q 93 401 48 335 q 238 517 139 467 q 116 632 153 571 q 79 765 79 693 q 167 938 79 872 q 397 1004 255 1004 m 242 263 q 283 172 242 205 q 394 139 324 139 q 511 173 472 139 q 550 262 550 207 q 511 347 550 307 q 387 431 473 386 q 242 263 242 365 m 396 850 q 309 823 342 850 q 276 749 276 795 q 302 676 276 708 q 397 610 328 644 q 490 674 464 641 q 516 749 516 706 q 483 823 516 796 q 396 850 449 850 "},"ѯ":{"x_min":21.03125,"x_max":718.09375,"ha":771,"o":"m 604 936 q 687 925 653 936 l 687 822 q 627 830 664 830 q 520 755 570 830 q 651 684 606 732 q 697 570 697 636 q 661 464 697 506 q 555 403 625 422 l 555 396 q 680 331 642 373 q 718 220 718 289 q 619 46 718 106 q 336 -14 520 -14 q 230 -27 263 -14 q 197 -75 197 -40 q 222 -124 197 -110 q 308 -139 248 -139 q 419 -135 366 -139 q 505 -132 472 -132 q 617 -160 597 -132 l 617 -315 q 577 -295 606 -303 q 512 -287 547 -287 q 405 -290 466 -287 q 261 -293 345 -293 q 81 -241 141 -293 q 21 -84 21 -189 q 99 89 21 33 q 337 145 176 145 q 471 167 427 145 q 516 232 516 188 q 463 300 516 278 q 301 322 410 322 l 221 322 l 221 466 l 296 466 q 463 485 414 466 q 512 545 512 504 q 476 600 512 582 q 358 619 440 619 q 239 606 305 619 q 119 571 173 593 l 58 715 q 145 743 102 731 q 230 761 188 754 l 167 834 l 108 898 l 108 917 l 241 917 q 383 784 280 889 q 467 879 438 853 q 530 920 497 905 q 604 936 564 936 "},"Ӝ":{"x_min":0,"x_max":1310,"ha":1310,"o":"m 352 515 l 19 992 l 236 992 l 556 511 l 556 992 l 752 992 l 752 511 l 1073 992 l 1291 992 l 957 515 l 1310 0 l 1084 0 l 752 502 l 752 0 l 556 0 l 556 502 l 225 0 l 0 0 l 352 515 m 422 1182 q 447 1250 422 1226 q 516 1273 473 1273 q 586 1248 561 1273 q 612 1182 612 1223 q 586 1116 612 1141 q 516 1092 560 1092 q 447 1115 473 1092 q 422 1182 422 1139 m 695 1182 q 722 1251 695 1229 q 790 1273 750 1273 q 861 1249 834 1273 q 887 1182 887 1224 q 860 1116 887 1140 q 790 1092 834 1092 q 722 1114 750 1092 q 695 1182 695 1136 "},"Ữ":{"x_min":118.015625,"x_max":1243.296875,"ha":1229,"o":"m 931 992 l 931 864 q 1005 932 982 881 q 1029 1056 1029 983 l 1233 1056 l 1243 1041 q 1185 879 1221 936 q 1087 787 1149 822 q 931 739 1025 752 l 931 349 q 882 157 931 239 q 740 30 833 74 q 520 -14 647 -14 q 223 84 329 -14 q 118 352 118 182 l 118 992 l 327 992 l 327 368 q 375 212 327 262 q 526 162 423 162 q 675 214 629 162 q 722 369 722 266 l 722 992 l 931 992 m 1050 0 l 1050 0 m 413 1142 q 373 1123 392 1142 q 345 1069 354 1105 l 244 1069 q 300 1223 251 1167 q 428 1279 348 1279 q 483 1267 456 1279 q 536 1243 510 1256 q 587 1218 562 1229 q 637 1207 612 1207 q 677 1225 658 1207 q 705 1280 696 1243 l 806 1280 q 750 1125 799 1181 q 622 1070 700 1070 q 567 1081 594 1070 q 514 1106 540 1092 q 463 1130 488 1119 q 413 1142 438 1142 "},"ѡ":{"x_min":4.0625,"x_max":1175.421875,"ha":1229,"o":"m 271 0 l 4 758 l 221 758 l 352 323 q 383 168 375 255 l 388 168 q 440 323 399 224 l 514 511 l 427 758 l 661 758 l 786 337 l 828 183 l 833 183 q 934 424 903 288 q 966 758 966 561 l 1175 758 q 1107 323 1175 508 q 898 0 1039 138 l 712 0 l 601 258 l 484 0 l 271 0 "},"R":{"x_min":124.796875,"x_max":917,"ha":917,"o":"m 335 552 l 402 552 q 550 585 502 552 q 597 689 597 618 q 549 789 597 760 q 398 819 500 819 l 335 819 l 335 552 m 335 381 l 335 0 l 124 0 l 124 992 l 413 992 q 712 918 615 992 q 809 695 809 844 q 761 539 809 607 q 625 432 713 471 q 917 0 849 97 l 683 0 l 446 381 l 335 381 "},"Ż":{"x_min":33.21875,"x_max":770.78125,"ha":804,"o":"m 770 0 l 33 0 l 33 136 l 508 818 l 46 818 l 46 992 l 757 992 l 757 856 l 283 173 l 770 173 l 770 0 m 288 1183 q 401 1284 288 1284 q 513 1183 513 1284 q 485 1108 513 1135 q 401 1082 457 1082 q 288 1183 288 1082 "},"Ң":{"x_min":124.796875,"x_max":1140.3125,"ha":1168,"o":"m 937 180 l 1140 180 l 1140 -289 l 937 -289 l 937 0 l 727 0 l 727 428 l 335 428 l 335 0 l 124 0 l 124 992 l 335 992 l 335 603 l 727 603 l 727 992 l 937 992 l 937 180 m 1063 0 l 1063 0 "},"ħ":{"x_min":2.71875,"x_max":808.546875,"ha":913,"o":"m 808 0 l 601 0 l 601 401 q 479 565 601 565 q 354 505 393 565 q 315 315 315 446 l 315 0 l 108 0 l 108 811 l 2 811 l 2 946 l 108 946 l 108 1055 l 315 1055 l 315 946 l 529 946 l 529 811 l 315 811 l 315 798 q 305 618 315 742 l 318 618 q 537 730 387 730 q 740 658 671 730 q 808 452 808 587 l 808 0 "},"õ":{"x_min":62.390625,"x_max":797.609375,"ha":860,"o":"m 273 380 q 310 209 273 267 q 430 152 347 152 q 549 209 513 152 q 586 380 586 267 q 549 549 586 493 q 429 606 512 606 q 309 550 346 606 q 273 380 273 494 m 797 380 q 699 90 797 195 q 427 -14 602 -14 q 235 33 318 -14 q 107 171 151 81 q 62 380 62 261 q 159 669 62 566 q 432 773 256 773 q 624 725 541 773 q 752 588 708 677 q 797 380 797 500 m 317 913 q 277 894 296 913 q 249 840 258 876 l 148 840 q 204 994 155 938 q 332 1050 252 1050 q 387 1038 360 1050 q 440 1014 414 1027 q 491 989 466 1000 q 541 978 516 978 q 581 996 562 978 q 609 1051 600 1014 l 710 1051 q 654 896 703 952 q 526 841 604 841 q 471 852 498 841 q 418 877 444 863 q 367 901 392 890 q 317 913 342 913 "},"ẫ":{"x_min":58.328125,"x_max":734.546875,"ha":839,"o":"m 590 0 l 550 102 l 544 102 q 437 11 492 36 q 293 -14 381 -14 q 121 48 183 -14 q 58 226 58 110 q 142 404 58 347 q 397 467 227 461 l 529 472 l 529 505 q 411 620 529 620 q 197 565 320 620 l 128 705 q 419 774 259 774 q 653 707 571 774 q 734 505 734 641 l 734 0 l 590 0 m 529 351 l 449 348 q 314 315 358 345 q 270 224 270 286 q 371 137 270 137 q 485 178 442 137 q 529 288 529 220 l 529 351 m 518 1063 q 468 1071 493 1063 q 418 1090 442 1080 q 371 1109 393 1100 q 329 1118 348 1118 q 287 1106 302 1118 q 264 1062 273 1095 l 187 1062 q 230 1181 193 1137 q 322 1226 266 1226 q 373 1217 347 1226 q 424 1197 400 1208 q 471 1178 448 1187 q 511 1169 493 1169 q 552 1181 539 1169 q 576 1227 566 1194 l 653 1227 q 608 1105 644 1148 q 518 1063 572 1063 m 672 842 l 576 842 q 419 945 480 890 q 262 842 363 895 l 166 842 l 166 860 q 326 1037 282 971 l 512 1037 q 588 945 545 990 q 672 860 632 900 l 672 842 "},"ҭ":{"x_min":31.875,"x_max":736.203125,"ha":764,"o":"m 736 758 l 736 602 l 487 602 l 487 151 l 673 151 l 673 -272 l 487 -272 l 487 0 l 280 0 l 280 602 l 31 602 l 31 758 l 736 758 "},"ғ":{"x_min":2.71875,"x_max":649.4375,"ha":682,"o":"m 649 758 l 649 589 l 302 589 l 302 443 l 527 443 l 527 283 l 302 283 l 302 0 l 95 0 l 95 283 l 2 283 l 2 443 l 95 443 l 95 758 l 649 758 "},"Ӎ":{"x_min":124.796875,"x_max":1411.734375,"ha":1439,"o":"m 544 0 l 305 778 l 299 778 q 312 461 312 540 l 312 0 l 124 0 l 124 992 l 411 992 l 645 233 l 649 233 l 898 992 l 1185 992 l 1185 180 l 1411 180 l 1291 -289 l 1057 -289 l 1185 0 l 989 0 l 989 469 q 990 546 989 502 q 999 776 991 589 l 993 776 l 737 0 l 544 0 m 1310 0 l 1310 0 "},"˙":{"x_min":99.71875,"x_max":324.890625,"ha":424,"o":"m 99 954 q 212 1055 99 1055 q 324 954 324 1055 q 296 879 324 906 q 212 853 268 853 q 99 954 99 853 "},"ê":{"x_min":62.390625,"x_max":761.3125,"ha":821,"o":"m 422 625 q 319 583 356 625 q 276 465 282 542 l 567 465 q 527 583 565 542 q 422 625 488 625 m 451 -14 q 165 87 268 -14 q 62 373 62 188 q 157 668 62 564 q 421 773 253 773 q 671 681 582 773 q 761 427 761 589 l 761 327 l 271 327 q 324 189 275 239 q 461 139 373 139 q 590 154 529 139 q 718 199 652 168 l 718 39 q 602 0 664 12 q 451 -14 540 -14 m 582 842 q 424 960 476 904 q 268 842 371 906 l 131 842 l 131 860 q 304 1064 259 988 l 546 1064 q 619 968 567 1028 q 720 860 671 907 l 720 842 l 582 842 "},"″":{"x_min":90.203125,"x_max":565.4375,"ha":656,"o":"m 279 992 l 251 634 l 118 634 l 90 992 l 279 992 m 565 992 l 537 634 l 404 634 l 376 992 l 565 992 "},"„":{"x_min":42.734375,"x_max":628.3125,"ha":720,"o":"m 311 145 q 191 -179 276 8 l 42 -179 q 111 161 86 1 l 301 161 l 311 145 m 628 145 q 508 -179 593 8 l 359 -179 q 428 161 403 1 l 618 161 l 628 145 "},"ӷ":{"x_min":108.515625,"x_max":632.125,"ha":664,"o":"m 632 758 l 632 602 l 315 602 l 315 151 l 501 151 l 501 -272 l 315 -272 l 315 0 l 108 0 l 108 758 l 632 758 "},"ч":{"x_min":83.421875,"x_max":803.15625,"ha":911,"o":"m 290 758 l 290 480 q 381 381 290 381 q 492 395 441 381 q 596 430 544 409 l 596 758 l 803 758 l 803 0 l 596 0 l 596 301 q 462 247 524 263 q 343 232 400 232 q 151 295 219 232 q 83 476 83 358 l 83 758 l 290 758 "},"δ":{"x_min":62.390625,"x_max":797.609375,"ha":860,"o":"m 328 622 q 168 854 168 725 q 249 1007 168 952 q 476 1063 331 1063 q 622 1047 551 1063 q 788 987 693 1032 l 706 841 q 586 891 644 872 q 467 909 527 909 q 393 891 418 909 q 368 841 368 873 q 415 769 368 805 q 555 686 461 733 q 738 539 680 622 q 797 347 797 455 q 701 78 797 171 q 426 -14 606 -14 q 161 70 261 -14 q 62 296 62 154 q 127 501 62 420 q 328 622 193 583 m 586 333 q 553 447 586 396 q 450 537 521 498 q 321 452 366 514 q 275 305 275 391 q 316 194 275 237 q 427 152 356 152 q 544 198 503 152 q 586 333 586 244 "},"Â":{"x_min":0,"x_max":958,"ha":958,"o":"m 731 0 l 659 236 l 298 236 l 226 0 l 0 0 l 349 996 l 606 996 l 958 0 l 731 0 m 609 413 q 497 775 509 733 q 479 842 484 817 q 351 413 456 755 l 609 413 m 635 1071 q 477 1189 529 1133 q 321 1071 424 1135 l 184 1071 l 184 1089 q 357 1293 312 1217 l 599 1293 q 672 1197 620 1257 q 773 1089 724 1136 l 773 1071 l 635 1071 "},"Į":{"x_min":74.78125,"x_max":349.9375,"ha":460,"o":"m 124 0 l 124 992 l 335 992 l 335 0 l 124 0 m 217 -154 q 233 -196 217 -182 q 272 -209 248 -209 q 349 -197 309 -209 l 349 -318 q 244 -334 294 -334 q 121 -290 167 -334 q 74 -177 74 -247 q 100 -92 74 -132 q 196 0 126 -52 l 318 0 q 244 -81 270 -44 q 217 -154 217 -118 "},"ҫ":{"x_min":62.390625,"x_max":670.59375,"ha":714,"o":"m 416 -14 q 62 375 62 -14 q 158 670 62 568 q 434 773 254 773 q 670 721 566 773 l 609 561 q 518 593 560 581 q 434 606 476 606 q 273 376 273 606 q 434 153 273 153 q 545 169 494 153 q 646 219 596 185 l 646 42 q 545 -1 596 10 q 416 -14 494 -14 m 420 -154 q 394 -81 420 -118 q 320 0 368 -44 l 441 0 q 517 -66 495 -40 q 552 -118 540 -91 q 564 -177 564 -146 q 517 -290 564 -247 q 394 -334 470 -334 q 288 -318 344 -334 l 288 -197 q 366 -209 329 -209 q 405 -196 390 -209 q 420 -154 420 -182 "},"ω":{"x_min":73.921875,"x_max":1124.75,"ha":1198,"o":"m 819 -14 q 683 21 736 -14 q 602 128 630 57 l 595 128 q 512 19 564 53 q 379 -14 459 -14 q 153 88 233 -14 q 73 367 73 190 q 90 560 73 472 q 149 758 106 648 l 348 758 q 263 374 263 580 q 297 205 263 263 q 395 146 330 146 q 477 186 452 146 q 503 316 503 225 l 503 517 l 694 517 l 694 316 q 720 185 694 224 q 802 146 745 146 q 900 204 866 146 q 934 371 934 261 q 849 758 934 580 l 1048 758 q 1108 560 1091 648 q 1124 367 1124 473 q 1044 87 1124 189 q 819 -14 963 -14 "},"Ţ":{"x_min":27.671875,"x_max":776.421875,"ha":804,"o":"m 507 0 l 296 0 l 296 817 l 27 817 l 27 992 l 776 992 l 776 817 l 507 817 l 507 0 m 562 -170 q 511 -295 562 -256 q 352 -334 460 -334 q 253 -319 300 -334 l 253 -205 q 303 -215 272 -210 q 350 -220 334 -220 q 399 -177 399 -220 q 287 -104 399 -121 l 340 0 l 471 0 l 452 -42 q 532 -92 502 -58 q 562 -170 562 -126 "},"´":{"x_min":225.15625,"x_max":616.484375,"ha":843,"o":"m 225 842 l 225 860 q 384 1064 341 995 l 616 1064 l 616 1049 q 496 945 581 1014 q 362 842 410 875 l 225 842 "},"ỏ":{"x_min":62.390625,"x_max":797.609375,"ha":860,"o":"m 273 380 q 310 209 273 267 q 430 152 347 152 q 549 209 513 152 q 586 380 586 267 q 549 549 586 493 q 429 606 512 606 q 309 550 346 606 q 273 380 273 494 m 797 380 q 699 90 797 195 q 427 -14 602 -14 q 235 33 318 -14 q 107 171 151 81 q 62 380 62 261 q 159 669 62 566 q 432 773 256 773 q 624 725 541 773 q 752 588 708 677 q 797 380 797 500 m 604 1008 q 494 875 604 902 l 487 827 l 369 827 l 354 926 q 423 951 404 934 q 441 994 441 969 q 427 1027 441 1016 q 389 1039 413 1039 q 295 1023 345 1039 l 295 1137 q 351 1148 316 1144 q 415 1153 387 1153 q 557 1115 510 1153 q 604 1008 604 1077 "},"Ĉ":{"x_min":80.703125,"x_max":836.171875,"ha":885,"o":"m 545 831 q 362 741 427 831 q 297 492 297 652 q 545 160 297 160 q 798 213 650 160 l 798 36 q 526 -14 676 -14 q 195 117 309 -14 q 80 494 80 248 q 136 765 80 649 q 298 943 193 881 q 545 1006 404 1006 q 836 936 690 1006 l 768 765 q 656 811 712 791 q 545 831 600 831 m 692 1071 q 534 1189 586 1133 q 378 1071 481 1135 l 241 1071 l 241 1089 q 414 1293 369 1217 l 656 1293 q 729 1197 677 1257 q 830 1089 781 1136 l 830 1071 l 692 1071 "},"И":{"x_min":124.796875,"x_max":1017.53125,"ha":1143,"o":"m 124 992 l 314 992 l 314 512 l 311 384 l 304 238 l 308 238 l 765 992 l 1017 992 l 1017 0 l 830 0 l 830 476 q 842 759 830 571 l 837 759 l 377 0 l 124 0 l 124 992 "},"Љ":{"x_min":10.859375,"x_max":1325.609375,"ha":1388,"o":"m 864 611 l 942 611 q 1225 532 1125 611 q 1325 309 1325 453 q 1225 77 1325 155 q 930 0 1126 0 l 654 0 l 654 817 l 457 817 l 446 726 q 372 238 404 379 q 278 41 339 98 q 111 -14 216 -15 q 10 0 54 -14 l 10 173 q 84 159 50 159 q 141 192 120 159 q 181 314 162 225 q 231 607 200 404 q 283 992 261 810 l 864 992 l 864 611 m 864 172 l 928 172 q 1068 206 1023 172 q 1112 309 1112 240 q 1068 407 1112 377 q 913 438 1023 438 l 864 438 l 864 172 "},"Ờ":{"x_min":80.703125,"x_max":1188.078125,"ha":1146,"o":"m 1025 496 q 903 118 1025 250 q 553 -14 781 -14 q 202 118 325 -14 q 80 498 80 250 q 203 875 80 744 q 555 1007 326 1007 q 911 869 790 1007 q 974 1055 974 910 l 1178 1055 l 1188 1040 q 1115 851 1163 920 q 983 749 1067 783 q 1025 496 1025 642 m 301 496 q 364 246 301 330 q 553 162 427 162 q 804 496 804 162 q 554 832 804 832 q 364 747 428 832 q 301 496 301 663 m 1106 0 l 1106 0 m 547 1071 q 422 1167 504 1100 q 293 1278 339 1234 l 293 1293 l 525 1293 q 684 1089 567 1224 l 684 1071 l 547 1071 "},"р":{"x_min":108.515625,"x_max":816.609375,"ha":879,"o":"m 524 -14 q 315 83 391 -14 l 304 83 q 315 -26 315 -11 l 315 -334 l 108 -334 l 108 758 l 276 758 l 305 660 l 315 660 q 530 773 387 773 q 740 669 664 773 q 816 380 816 565 q 781 169 816 258 q 679 32 745 79 q 524 -14 613 -14 m 463 607 q 352 560 387 607 q 315 404 316 513 l 315 381 q 351 206 315 259 q 466 153 387 153 q 605 383 605 153 q 571 551 605 495 q 463 607 537 607 "},"Ω":{"x_min":37.296875,"x_max":1054.015625,"ha":1092,"o":"m 546 832 q 356 757 423 832 q 290 547 290 682 q 335 323 290 409 q 470 189 379 238 l 470 0 l 37 0 l 37 176 l 288 176 q 129 348 185 239 q 73 591 73 457 q 131 810 73 716 q 297 956 189 905 q 546 1007 404 1007 q 890 893 762 1007 q 1018 589 1018 780 q 961 348 1018 455 q 800 176 905 241 l 1054 176 l 1054 0 l 617 0 l 617 189 q 756 325 712 238 q 801 548 801 412 q 734 757 801 683 q 546 832 668 832 "},"т":{"x_min":31.875,"x_max":735.453125,"ha":768,"o":"m 735 758 l 735 602 l 487 602 l 487 0 l 280 0 l 280 602 l 31 602 l 31 758 l 735 758 "},"П":{"x_min":124.796875,"x_max":909.53125,"ha":1035,"o":"m 909 0 l 699 0 l 699 817 l 335 817 l 335 0 l 124 0 l 124 992 l 909 992 l 909 0 "},"Ö":{"x_min":80.703125,"x_max":1025.296875,"ha":1106,"o":"m 1025 496 q 903 118 1025 250 q 553 -14 781 -14 q 202 118 325 -14 q 80 498 80 250 q 203 876 80 745 q 554 1007 325 1007 q 904 875 783 1007 q 1025 496 1025 743 m 301 496 q 364 246 301 330 q 553 162 427 162 q 804 496 804 162 q 554 832 804 832 q 364 747 428 832 q 301 496 301 663 m 321 1182 q 346 1250 321 1226 q 415 1273 372 1273 q 485 1248 460 1273 q 511 1182 511 1223 q 485 1116 511 1141 q 415 1092 459 1092 q 346 1115 372 1092 q 321 1182 321 1139 m 594 1182 q 621 1251 594 1229 q 689 1273 649 1273 q 760 1249 733 1273 q 786 1182 786 1224 q 759 1116 786 1140 q 689 1092 733 1092 q 621 1114 649 1092 q 594 1182 594 1136 "},"z":{"x_min":37.296875,"x_max":636.625,"ha":678,"o":"m 636 0 l 37 0 l 37 122 l 389 599 l 58 599 l 58 758 l 624 758 l 624 623 l 282 158 l 636 158 l 636 0 "},"™":{"x_min":10.84375,"x_max":977.625,"ha":1040,"o":"m 258 503 l 144 503 l 144 890 l 10 890 l 10 992 l 393 992 l 393 890 l 258 890 l 258 503 m 648 503 l 536 861 l 531 861 l 534 786 l 534 503 l 423 503 l 423 992 l 591 992 l 699 646 l 814 992 l 977 992 l 977 503 l 863 503 l 863 779 l 866 861 l 862 861 l 744 503 l 648 503 "},"ặ":{"x_min":58.328125,"x_max":734.546875,"ha":839,"o":"m 590 0 l 550 102 l 544 102 q 437 11 492 36 q 293 -14 381 -14 q 121 48 183 -14 q 58 226 58 110 q 142 404 58 347 q 397 467 227 461 l 529 472 l 529 505 q 411 620 529 620 q 197 565 320 620 l 128 705 q 419 774 259 774 q 653 707 571 774 q 734 505 734 641 l 734 0 l 590 0 m 529 351 l 449 348 q 314 315 358 345 q 270 224 270 286 q 371 137 270 137 q 485 178 442 137 q 529 288 529 220 l 529 351 m 283 -190 q 396 -89 283 -89 q 508 -190 508 -89 q 480 -265 508 -238 q 396 -291 451 -291 q 283 -190 283 -291 m 684 1071 q 601 904 676 966 q 414 842 527 842 q 226 903 296 842 q 150 1071 156 965 l 266 1071 q 284 1020 268 1039 q 329 994 300 1002 q 416 986 358 986 q 566 1071 555 986 l 684 1071 "},"Θ":{"x_min":80.703125,"x_max":1025.296875,"ha":1106,"o":"m 729 590 l 729 417 l 376 417 l 376 590 l 729 590 m 1025 496 q 903 118 1025 250 q 553 -14 781 -14 q 202 118 325 -14 q 80 498 80 250 q 203 876 80 745 q 554 1007 325 1007 q 904 875 783 1007 q 1025 496 1025 743 m 297 496 q 361 247 297 332 q 553 162 426 162 q 745 247 681 162 q 808 496 808 332 q 745 746 808 661 q 554 832 681 832 q 362 746 427 832 q 297 496 297 661 "},"Ř":{"x_min":124.796875,"x_max":917,"ha":917,"o":"m 335 552 l 402 552 q 550 585 502 552 q 597 689 597 618 q 549 789 597 760 q 398 819 500 819 l 335 819 l 335 552 m 335 381 l 335 0 l 124 0 l 124 992 l 413 992 q 712 918 615 992 q 809 695 809 844 q 761 539 809 607 q 625 432 713 471 q 917 0 849 97 l 683 0 l 446 381 l 335 381 m 750 1293 l 750 1274 q 645 1161 693 1217 q 576 1071 597 1104 l 334 1071 q 278 1147 315 1102 q 161 1274 241 1191 l 161 1293 l 298 1293 q 454 1174 398 1230 q 612 1293 511 1232 l 750 1293 "},"Ň":{"x_min":124.796875,"x_max":1004.21875,"ha":1129,"o":"m 1004 0 l 737 0 l 305 750 l 299 750 q 312 466 312 551 l 312 0 l 124 0 l 124 992 l 389 992 l 820 249 l 825 249 q 814 522 814 442 l 814 992 l 1004 992 l 1004 0 m 876 1293 l 876 1274 q 771 1161 819 1217 q 702 1071 723 1104 l 460 1071 q 404 1147 441 1102 q 287 1274 367 1191 l 287 1293 l 424 1293 q 580 1174 524 1230 q 738 1293 637 1232 l 876 1293 "},"ừ":{"x_min":104.453125,"x_max":1119.875,"ha":1055,"o":"m 645 0 l 617 96 l 605 96 q 512 15 573 44 q 373 -14 451 -14 q 172 57 240 -14 q 104 263 104 129 l 104 758 l 311 758 l 311 314 q 340 191 311 232 q 433 150 369 150 q 558 208 520 150 q 597 401 597 266 l 597 758 l 804 758 l 804 679 q 879 743 852 693 q 905 872 905 793 l 1109 872 l 1119 857 q 1061 694 1098 751 q 962 602 1024 637 q 804 554 900 568 l 804 0 l 645 0 m 913 0 l 913 0 m 416 842 q 291 938 373 871 q 162 1049 208 1005 l 162 1064 l 394 1064 q 553 860 436 995 l 553 842 l 416 842 "},"Ợ":{"x_min":80.703125,"x_max":1188.078125,"ha":1146,"o":"m 1025 496 q 903 118 1025 250 q 553 -14 781 -14 q 202 118 325 -14 q 80 498 80 250 q 203 875 80 744 q 555 1007 326 1007 q 911 869 790 1007 q 974 1055 974 910 l 1178 1055 l 1188 1040 q 1115 851 1163 920 q 983 749 1067 783 q 1025 496 1025 642 m 301 496 q 364 246 301 330 q 553 162 427 162 q 804 496 804 162 q 554 832 804 832 q 364 747 428 832 q 301 496 301 663 m 1106 0 l 1106 0 m 441 -190 q 554 -89 441 -89 q 666 -190 666 -89 q 638 -265 666 -238 q 554 -291 609 -291 q 441 -190 441 -291 "},"É":{"x_min":124.796875,"x_max":695.9375,"ha":778,"o":"m 695 0 l 124 0 l 124 992 l 695 992 l 695 819 l 335 819 l 335 602 l 670 602 l 670 429 l 335 429 l 335 173 l 695 173 l 695 0 m 287 1071 l 287 1089 q 446 1293 403 1224 l 678 1293 l 678 1278 q 558 1174 643 1243 q 424 1071 472 1104 l 287 1071 "},"ұ":{"x_min":0,"x_max":798,"ha":798,"o":"m 700 0 l 700 -155 l 502 -155 l 502 -334 l 294 -334 l 294 -155 l 97 -155 l 97 0 l 294 0 l 0 758 l 227 758 l 347 416 q 386 269 365 366 l 394 229 l 403 229 q 450 416 427 351 l 571 758 l 798 758 l 502 0 l 700 0 "},"ѿ":{"x_min":4.0625,"x_max":1175.421875,"ha":1229,"o":"m 282 0 l 4 758 l 221 758 l 352 326 q 385 170 377 250 l 389 170 q 400 207 394 189 q 518 505 406 225 l 423 758 l 640 758 l 776 337 q 788 301 781 322 q 801 258 794 280 q 813 217 807 237 q 823 183 820 197 l 829 183 q 933 419 901 285 q 966 758 966 552 l 1175 758 q 1107 331 1175 505 q 889 0 1040 157 l 695 0 l 605 261 l 502 0 l 282 0 m 876 979 l 876 919 l 820 802 l 783 802 l 750 871 l 645 871 l 612 802 l 575 802 l 541 871 l 437 871 l 404 802 l 366 802 l 312 919 l 312 979 l 876 979 "},"и":{"x_min":108.515625,"x_max":891.484375,"ha":1000,"o":"m 308 758 l 308 458 q 293 226 308 410 l 642 758 l 891 758 l 891 0 l 691 0 l 691 302 q 704 530 691 383 l 356 0 l 108 0 l 108 758 l 308 758 "},"³":{"x_min":40,"x_max":470.421875,"ha":526,"o":"m 451 846 q 336 712 451 749 l 336 703 q 435 652 399 690 q 470 562 470 615 q 410 433 470 480 q 225 386 351 386 q 40 433 128 386 l 40 562 q 223 501 140 501 q 320 573 320 501 q 290 627 320 609 q 208 645 260 645 l 132 645 l 132 754 l 194 754 q 278 771 250 754 q 305 827 305 789 q 288 870 305 853 q 237 887 271 887 q 176 874 205 887 q 109 834 148 861 l 41 930 q 134 982 83 961 q 255 1004 185 1004 q 396 960 341 1004 q 451 846 451 917 "},"Ӿ":{"x_min":0,"x_max":926,"ha":926,"o":"m 76 592 l 277 592 l 21 992 l 252 992 l 466 635 l 675 992 l 902 992 l 649 592 l 849 592 l 849 419 l 645 419 l 926 0 l 685 0 l 455 375 l 225 0 l 0 0 l 269 419 l 76 419 l 76 592 "},"Ӫ":{"x_min":80.703125,"x_max":1025.296875,"ha":1106,"o":"m 1025 496 q 903 118 1025 250 q 553 -14 781 -14 q 202 118 325 -14 q 80 498 80 250 q 203 876 80 745 q 554 1007 325 1007 q 904 875 783 1007 q 1025 496 1025 743 m 553 162 q 727 227 663 162 q 804 421 791 292 l 299 421 q 375 230 313 298 q 553 162 437 162 m 554 832 q 383 773 447 832 q 302 596 320 714 l 802 596 q 723 771 785 710 q 554 832 660 832 m 323 1182 q 348 1250 323 1226 q 417 1273 374 1273 q 487 1248 462 1273 q 513 1182 513 1223 q 487 1116 513 1141 q 417 1092 461 1092 q 348 1115 374 1092 q 323 1182 323 1139 m 596 1182 q 623 1251 596 1229 q 691 1273 651 1273 q 762 1249 735 1273 q 788 1182 788 1224 q 761 1116 788 1140 q 691 1092 735 1092 q 623 1114 651 1092 q 596 1182 596 1136 "},"Ѧ":{"x_min":0,"x_max":1014,"ha":1014,"o":"m 809 0 l 668 427 l 600 427 l 600 0 l 415 0 l 415 428 l 345 428 l 205 0 l 0 0 l 377 996 l 634 996 l 1014 0 l 809 0 m 398 589 l 611 589 q 507 869 520 823 q 398 589 499 834 "},"[":{"x_min":97.03125,"x_max":425.421875,"ha":460,"o":"m 425 -220 l 97 -220 l 97 992 l 425 992 l 425 848 l 273 848 l 273 -76 l 425 -76 l 425 -220 "},"Ҝ":{"x_min":124.796875,"x_max":922,"ha":922,"o":"m 419 415 l 335 354 l 335 0 l 124 0 l 124 992 l 335 992 l 335 538 l 417 654 l 419 656 l 419 896 l 509 896 l 509 770 l 685 992 l 919 992 l 573 553 l 922 0 l 683 0 l 509 279 l 509 128 l 419 128 l 419 415 "},"ζ":{"x_min":62.390625,"x_max":685.21875,"ha":692,"o":"m 685 -25 q 591 -257 685 -126 l 383 -257 q 457 -141 430 -193 q 483 -56 483 -88 q 456 -21 483 -35 q 360 5 430 -7 q 62 316 62 57 q 151 601 62 458 q 449 915 240 744 q 381 907 430 910 q 298 903 333 903 l 101 903 l 101 1055 l 681 1055 l 681 931 q 455 717 544 818 q 320 521 365 616 q 275 326 275 425 q 288 245 275 275 q 326 196 301 214 q 386 169 351 179 q 465 151 421 160 q 631 86 578 128 q 685 -25 685 44 "},"∏":{"x_min":112.578125,"x_max":917.40625,"ha":1030,"o":"m 701 -310 l 701 817 l 327 817 l 327 -310 l 112 -310 l 112 992 l 917 992 l 917 -310 l 701 -310 "},"Έ":{"x_min":-67.421875,"x_max":792.9375,"ha":875,"o":"m 792 0 l 221 0 l 221 992 l 792 992 l 792 819 l 432 819 l 432 602 l 767 602 l 767 429 l 432 429 l 432 173 l 792 173 l 792 0 m -67 790 q -37 901 -55 826 q -11 1033 -19 976 l 180 1033 l 180 1016 q 53 769 127 890 l -67 769 l -67 790 "},"Ρ":{"x_min":124.796875,"x_max":809.609375,"ha":872,"o":"m 335 525 l 404 525 q 549 563 501 525 q 597 675 597 601 q 557 784 597 749 q 430 819 516 819 l 335 819 l 335 525 m 809 682 q 709 437 809 522 q 425 353 609 353 l 335 353 l 335 0 l 124 0 l 124 992 l 441 992 q 715 914 621 992 q 809 682 809 836 "},"ğ":{"x_min":4.0625,"x_max":768.71875,"ha":785,"o":"m 768 759 l 768 653 l 650 623 q 682 508 682 572 q 597 318 682 386 q 360 250 512 250 l 323 252 l 293 255 q 261 201 261 230 q 375 156 261 156 l 504 156 q 694 102 628 156 q 759 -54 759 49 q 648 -260 759 -187 q 330 -334 538 -334 q 87 -278 171 -334 q 4 -123 4 -223 q 46 -9 4 -55 q 172 56 89 36 q 116 100 140 70 q 92 166 92 131 q 118 238 92 209 q 190 295 143 267 q 95 378 130 321 q 61 512 61 435 q 141 705 61 637 q 372 773 222 773 q 448 767 404 773 q 504 759 491 761 l 768 759 m 183 -107 q 224 -174 183 -150 q 339 -199 265 -199 q 513 -168 450 -199 q 576 -85 576 -138 q 539 -26 576 -42 q 424 -10 502 -10 l 316 -10 q 221 -36 259 -10 q 183 -107 183 -63 m 258 510 q 286 412 258 448 q 372 376 314 376 q 458 412 430 376 q 485 510 485 448 q 372 647 485 647 q 258 510 258 647 m 667 1071 q 584 904 659 966 q 397 842 510 842 q 209 903 279 842 q 133 1071 139 965 l 249 1071 q 267 1020 251 1039 q 312 994 283 1002 q 399 986 341 986 q 549 1071 538 986 l 667 1071 "},"Ở":{"x_min":80.703125,"x_max":1188.078125,"ha":1146,"o":"m 1025 496 q 903 118 1025 250 q 553 -14 781 -14 q 202 118 325 -14 q 80 498 80 250 q 203 875 80 744 q 555 1007 326 1007 q 911 869 790 1007 q 974 1055 974 910 l 1178 1055 l 1188 1040 q 1115 851 1163 920 q 983 749 1067 783 q 1025 496 1025 642 m 301 496 q 364 246 301 330 q 553 162 427 162 q 804 496 804 162 q 554 832 804 832 q 364 747 428 832 q 301 496 301 663 m 1106 0 l 1106 0 m 742 1237 q 632 1104 742 1131 l 625 1056 l 507 1056 l 492 1155 q 561 1180 542 1163 q 579 1223 579 1198 q 565 1256 579 1245 q 527 1268 551 1268 q 433 1252 483 1268 l 433 1366 q 489 1377 454 1373 q 553 1382 525 1382 q 695 1344 648 1382 q 742 1237 742 1306 "},"Ӏ":{"x_min":124.84375,"x_max":335.09375,"ha":460,"o":"m 124 0 l 124 992 l 335 992 l 335 0 l 124 0 "},"ª":{"x_min":31.890625,"x_max":472.21875,"ha":532,"o":"m 380 518 l 359 592 q 288 531 330 553 q 196 510 246 510 q 74 549 116 510 q 31 661 31 589 q 87 772 31 735 q 269 815 143 809 l 336 817 q 250 897 336 897 q 103 855 195 897 l 58 947 q 157 986 103 969 q 278 1003 211 1003 q 421 954 371 1003 q 472 817 472 906 l 472 518 l 380 518 m 170 662 q 186 624 170 636 q 223 612 202 612 q 306 640 276 612 q 336 712 336 668 l 336 737 l 269 733 q 170 662 170 726 "},"ї":{"x_min":-18.78125,"x_max":446.15625,"ha":424,"o":"m 315 0 l 108 0 l 108 758 l 315 758 l 315 0 m -18 953 q 6 1021 -18 997 q 75 1044 32 1044 q 145 1019 120 1044 q 171 953 171 994 q 145 887 171 912 q 75 863 119 863 q 6 886 32 863 q -18 953 -18 910 m 254 953 q 281 1022 254 1000 q 349 1044 309 1044 q 420 1020 393 1044 q 446 953 446 995 q 419 887 446 911 q 349 863 393 863 q 281 885 309 863 q 254 953 254 907 "},"ﬀ":{"x_min":27.859375,"x_max":1138.40625,"ha":1075,"o":"m 527 602 l 348 602 l 348 0 l 141 0 l 141 602 l 27 602 l 27 702 l 141 758 l 141 813 q 205 1003 141 943 q 409 1063 269 1063 q 600 1031 516 1063 l 547 879 q 432 898 485 898 q 368 872 388 898 q 348 805 348 846 l 348 758 l 527 758 l 527 602 m 1065 602 l 886 602 l 886 0 l 679 0 l 679 602 l 565 602 l 565 702 l 679 758 l 679 813 q 743 1003 679 943 q 947 1063 807 1063 q 1138 1031 1054 1063 l 1085 879 q 970 898 1023 898 q 906 872 926 898 q 886 805 886 846 l 886 758 l 1065 758 l 1065 602 "},"T":{"x_min":27.671875,"x_max":776.421875,"ha":804,"o":"m 507 0 l 296 0 l 296 817 l 27 817 l 27 992 l 776 992 l 776 817 l 507 817 l 507 0 "},"š":{"x_min":62.390625,"x_max":659.515625,"ha":690,"o":"m 637 224 q 556 47 637 108 q 313 -14 475 -14 q 172 -2 231 -14 q 63 30 114 8 l 63 201 q 193 155 121 173 q 320 137 265 137 q 432 202 432 137 q 418 242 432 226 q 366 276 403 257 q 269 322 329 296 q 140 390 181 358 q 81 461 99 421 q 62 561 62 502 q 140 717 62 662 q 362 773 218 773 q 628 713 499 773 l 566 564 q 460 604 509 588 q 359 619 410 619 q 267 570 267 619 q 297 521 267 542 q 426 461 326 501 q 556 394 515 425 q 617 322 597 362 q 637 224 637 281 m 659 1064 l 659 1045 q 554 932 602 988 q 485 842 506 875 l 243 842 q 187 918 224 873 q 70 1045 150 962 l 70 1064 l 207 1064 q 363 945 307 1001 q 521 1064 420 1003 l 659 1064 "},"є":{"x_min":62.390625,"x_max":683.921875,"ha":728,"o":"m 443 -14 q 158 84 254 -14 q 62 375 62 183 q 153 675 62 577 q 441 773 245 773 q 683 722 566 773 l 624 575 q 436 619 508 619 q 325 578 364 619 q 276 452 286 536 l 562 452 l 562 314 l 276 314 q 323 182 286 225 q 430 139 360 139 q 538 152 484 139 q 661 194 592 164 l 661 35 q 443 -14 565 -14 "},"Þ":{"x_min":124.796875,"x_max":809.609375,"ha":872,"o":"m 809 522 q 713 283 809 367 q 438 199 616 199 l 335 199 l 335 0 l 124 0 l 124 992 l 335 992 l 335 837 l 455 837 q 718 756 627 837 q 809 522 809 675 m 335 368 l 402 368 q 549 404 501 368 q 597 522 597 439 q 554 630 597 595 q 419 666 511 666 l 335 666 l 335 368 "},"j":{"x_min":-88.84375,"x_max":324.875,"ha":424,"o":"m 47 -334 q -88 -317 -31 -334 l -88 -154 q 8 -167 -41 -167 q 84 -137 60 -167 q 108 -51 108 -108 l 108 758 l 315 758 l 315 -82 q 245 -268 315 -203 q 47 -334 175 -334 m 99 953 q 212 1055 99 1055 q 324 953 324 1055 q 296 879 324 905 q 212 852 268 852 q 99 953 99 852 "},"Ѱ":{"x_min":73.921875,"x_max":1143.75,"ha":1217,"o":"m 1143 666 q 1042 385 1143 476 q 737 295 941 295 l 702 295 l 702 0 l 514 0 l 514 295 l 479 295 q 173 385 272 295 q 73 664 73 475 l 73 992 l 270 992 l 270 666 q 321 512 270 560 q 493 465 372 465 l 514 465 l 514 992 l 702 992 l 702 465 l 723 465 q 894 514 841 465 q 946 663 946 563 l 946 992 l 1143 992 l 1143 666 "},"Σ":{"x_min":52.90625,"x_max":776.203125,"ha":823,"o":"m 52 0 l 52 165 l 372 519 l 61 831 l 61 992 l 735 992 l 735 819 l 438 819 q 284 827 404 819 l 592 521 l 269 165 q 462 173 431 173 l 776 173 l 776 0 l 52 0 "},"1":{"x_min":82.140625,"x_max":573.859375,"ha":793,"o":"m 573 0 l 364 0 l 364 574 l 366 668 l 369 771 q 297 703 317 719 l 183 611 l 82 737 l 401 992 l 573 992 l 573 0 "},"ϒ":{"x_min":0,"x_max":871.921875,"ha":876,"o":"m 431 578 q 514 753 473 670 q 590 895 555 836 q 665 977 625 955 q 769 1000 705 1000 q 871 981 827 1000 l 871 826 q 825 834 842 834 q 780 819 798 834 q 744 778 762 805 q 637 593 699 713 q 539 376 575 472 l 539 0 l 330 0 l 330 379 l 0 992 l 227 992 l 431 578 "},"ҍ":{"x_min":2.71875,"x_max":804.84375,"ha":853,"o":"m 2 904 l 108 904 l 108 1055 l 315 1055 l 315 904 l 571 904 l 571 769 l 315 769 l 315 465 l 461 465 q 720 409 636 465 q 804 241 804 353 q 469 0 804 0 l 108 0 l 108 769 l 2 769 l 2 904 m 597 238 q 562 302 597 282 q 457 321 527 321 l 315 321 l 315 143 l 460 143 q 597 238 597 143 "},"ℓ":{"x_min":27.734375,"x_max":671.828125,"ha":722,"o":"m 434 129 q 501 162 475 129 q 531 265 527 196 l 671 265 q 602 52 664 116 q 413 -12 539 -12 q 220 58 289 -12 q 151 261 151 128 l 151 347 l 27 314 l 27 446 q 151 483 94 464 l 151 762 q 214 945 151 886 q 412 1004 278 1004 q 587 945 522 1004 q 651 784 651 886 q 582 575 651 662 q 349 412 513 488 l 349 254 q 434 129 349 129 m 473 780 q 412 874 473 874 q 363 848 376 874 q 349 780 349 822 l 349 558 q 441 641 409 584 q 473 780 473 698 "},"ӡ":{"x_min":38.65625,"x_max":752.75,"ha":807,"o":"m 191 340 l 466 599 l 66 599 l 66 758 l 722 758 l 722 623 l 422 342 q 667 239 583 325 q 752 1 752 152 q 704 -176 752 -101 q 562 -293 655 -252 q 339 -334 469 -334 q 38 -279 168 -334 l 38 -102 q 178 -149 101 -132 q 323 -167 254 -167 q 486 -121 430 -167 q 543 10 543 -75 q 474 148 543 104 q 271 193 406 193 l 191 193 l 191 340 "},"Ү":{"x_min":0.09375,"x_max":866.859375,"ha":867,"o":"m 433 583 l 640 992 l 866 992 l 537 386 l 537 0 l 329 0 l 329 379 l 0 992 l 227 992 l 433 583 "},"ĉ":{"x_min":62.390625,"x_max":703.515625,"ha":714,"o":"m 416 -14 q 62 375 62 -14 q 158 670 62 568 q 434 773 254 773 q 670 721 566 773 l 609 561 q 518 593 560 581 q 434 606 476 606 q 273 376 273 606 q 434 153 273 153 q 545 169 494 153 q 646 219 596 185 l 646 42 q 545 -1 596 10 q 416 -14 494 -14 m 565 842 q 407 960 459 904 q 251 842 354 906 l 114 842 l 114 860 q 287 1064 242 988 l 529 1064 q 602 968 550 1028 q 703 860 654 907 l 703 842 l 565 842 "},"ī":{"x_min":-16.0625,"x_max":443.765625,"ha":424,"o":"m 315 0 l 108 0 l 108 758 l 315 758 l 315 0 m -16 985 l 443 985 l 443 842 l -16 842 l -16 985 "},"ӹ":{"x_min":108.515625,"x_max":1072.484375,"ha":1181,"o":"m 315 465 l 415 465 q 672 409 588 465 q 755 241 755 353 q 672 60 755 121 q 422 0 588 0 l 108 0 l 108 758 l 315 758 l 315 465 m 548 238 q 513 302 548 282 q 408 321 478 321 l 315 321 l 315 143 l 411 143 q 548 238 548 143 m 1072 0 l 865 0 l 865 758 l 1072 758 l 1072 0 m 359 953 q 384 1021 359 997 q 453 1044 410 1044 q 523 1019 498 1044 q 549 953 549 994 q 523 887 549 912 q 453 863 497 863 q 384 886 410 863 q 359 953 359 910 m 632 953 q 659 1022 632 1000 q 727 1044 687 1044 q 798 1020 771 1044 q 824 953 824 995 q 797 887 824 911 q 727 863 771 863 q 659 885 687 863 q 632 953 632 907 "},"О":{"x_min":80.703125,"x_max":1025.296875,"ha":1106,"o":"m 1025 496 q 903 118 1025 250 q 553 -14 781 -14 q 202 118 325 -14 q 80 498 80 250 q 203 876 80 745 q 554 1007 325 1007 q 904 875 783 1007 q 1025 496 1025 743 m 301 496 q 364 246 301 330 q 553 162 427 162 q 804 496 804 162 q 554 832 804 832 q 364 747 428 832 q 301 496 301 663 "},"ξ":{"x_min":62.390625,"x_max":685.21875,"ha":692,"o":"m 62 296 q 111 446 62 382 q 254 548 161 511 l 254 554 q 105 727 105 590 q 151 843 105 799 q 301 912 197 887 q 116 903 162 903 l 101 903 l 101 1055 l 647 1055 l 647 912 l 596 912 q 391 866 470 912 q 311 740 311 819 q 355 647 311 675 q 498 620 398 620 l 611 620 l 611 477 l 497 477 q 327 435 379 477 q 275 311 275 394 q 291 234 275 262 q 340 187 307 205 q 465 151 373 169 q 631 86 578 128 q 685 -25 685 44 q 591 -257 685 -126 l 383 -257 q 457 -141 430 -193 q 483 -56 483 -88 q 456 -21 483 -35 q 360 5 430 -7 q 138 105 213 31 q 62 296 62 178 "},"Ď":{"x_min":124.796875,"x_max":947.296875,"ha":1028,"o":"m 947 505 q 807 130 947 260 q 405 0 668 0 l 124 0 l 124 992 l 436 992 q 813 863 678 992 q 947 505 947 735 m 728 500 q 446 819 728 819 l 335 819 l 335 173 l 425 173 q 728 500 728 173 m 786 1293 l 786 1274 q 681 1161 729 1217 q 612 1071 633 1104 l 370 1071 q 314 1147 351 1102 q 197 1274 277 1191 l 197 1293 l 334 1293 q 490 1174 434 1230 q 648 1293 547 1232 l 786 1293 "},"&":{"x_min":55.609375,"x_max":1042,"ha":1042,"o":"m 1042 0 l 786 0 l 708 76 q 415 -14 578 -14 q 152 62 249 -14 q 55 267 55 138 q 96 426 55 360 q 237 548 137 491 q 163 660 186 607 q 140 776 140 713 q 219 942 140 879 q 430 1006 298 1006 q 632 947 556 1006 q 708 790 708 888 q 661 642 708 709 q 510 515 614 576 l 702 327 q 786 532 751 406 l 1001 532 q 934 353 977 440 q 837 198 892 266 l 1042 0 m 273 287 q 317 194 273 228 q 429 159 360 159 q 583 201 514 159 l 358 425 q 296 362 318 395 q 273 287 273 330 m 516 768 q 492 825 516 804 q 429 845 468 845 q 357 824 383 845 q 331 762 331 802 q 396 631 331 702 q 485 695 454 663 q 516 768 516 726 "},"G":{"x_min":80.703125,"x_max":894.734375,"ha":1006,"o":"m 501 557 l 894 557 l 894 42 q 714 -1 799 11 q 541 -14 630 -14 q 199 117 317 -14 q 80 497 80 249 q 218 871 80 737 q 598 1006 355 1006 q 893 944 751 1006 l 823 776 q 597 831 714 831 q 379 739 461 831 q 297 492 297 647 q 363 246 297 331 q 555 160 429 160 q 689 174 621 160 l 689 382 l 501 382 l 501 557 "},"ΰ":{"x_min":96.984375,"x_max":822.0625,"ha":896,"o":"m 445 -12 q 183 75 269 -12 q 96 345 96 163 l 96 758 l 304 758 l 304 339 q 340 196 304 240 q 453 152 375 152 q 576 215 537 152 q 615 416 615 278 q 605 561 615 488 q 567 758 596 633 l 775 758 q 812 571 802 651 q 822 410 822 490 q 729 93 822 198 q 445 -12 636 -12 m 172 953 q 196 1023 172 1001 q 259 1044 220 1044 q 323 1023 298 1044 q 348 953 348 1001 q 323 885 348 907 q 259 863 298 863 q 196 885 220 863 q 172 953 172 907 m 543 953 q 632 1044 543 1044 q 695 1023 670 1044 q 721 953 721 1001 q 695 885 721 907 q 632 863 670 863 q 567 885 591 863 q 543 953 543 907 m 376 959 q 399 1056 386 993 q 418 1164 413 1120 l 596 1164 l 596 1150 q 470 942 556 1063 l 376 942 l 376 959 "},"`":{"x_min":225.15625,"x_max":616.484375,"ha":843,"o":"m 479 842 q 354 938 436 871 q 225 1049 271 1005 l 225 1064 l 457 1064 q 616 860 499 995 l 616 842 l 479 842 "},"ỗ":{"x_min":62.390625,"x_max":797.609375,"ha":860,"o":"m 273 380 q 310 209 273 267 q 430 152 347 152 q 549 209 513 152 q 586 380 586 267 q 549 549 586 493 q 429 606 512 606 q 309 550 346 606 q 273 380 273 494 m 797 380 q 699 90 797 195 q 427 -14 602 -14 q 235 33 318 -14 q 107 171 151 81 q 62 380 62 261 q 159 669 62 566 q 432 773 256 773 q 624 725 541 773 q 752 588 708 677 q 797 380 797 500 m 529 1063 q 479 1071 504 1063 q 429 1090 453 1080 q 382 1109 404 1100 q 340 1118 359 1118 q 298 1106 313 1118 q 275 1062 284 1095 l 198 1062 q 241 1181 204 1137 q 333 1226 277 1226 q 384 1217 358 1226 q 435 1197 411 1208 q 482 1178 459 1187 q 522 1169 504 1169 q 563 1181 550 1169 q 587 1227 577 1194 l 664 1227 q 619 1105 655 1148 q 529 1063 583 1063 m 683 842 l 587 842 q 430 945 491 890 q 273 842 374 895 l 177 842 l 177 860 q 337 1037 293 971 l 523 1037 q 599 945 556 990 q 683 860 643 900 l 683 842 "},"Ễ":{"x_min":124.796875,"x_max":695.9375,"ha":778,"o":"m 695 0 l 124 0 l 124 992 l 695 992 l 695 819 l 335 819 l 335 602 l 670 602 l 670 429 l 335 429 l 335 173 l 695 173 l 695 0 m 512 1292 q 462 1300 487 1292 q 412 1319 436 1309 q 365 1338 387 1329 q 323 1347 342 1347 q 281 1335 296 1347 q 258 1291 267 1324 l 181 1291 q 224 1410 187 1366 q 316 1455 260 1455 q 367 1446 341 1455 q 418 1426 394 1437 q 465 1407 442 1416 q 505 1398 487 1398 q 546 1410 533 1398 q 570 1456 560 1423 l 647 1456 q 602 1334 638 1377 q 512 1292 566 1292 m 666 1071 l 570 1071 q 413 1174 474 1119 q 256 1071 357 1124 l 160 1071 l 160 1089 q 320 1266 276 1200 l 506 1266 q 582 1174 539 1219 q 666 1089 626 1129 l 666 1071 "},"ằ":{"x_min":58.328125,"x_max":734.546875,"ha":839,"o":"m 590 0 l 550 102 l 544 102 q 437 11 492 36 q 293 -14 381 -14 q 121 48 183 -14 q 58 226 58 110 q 142 404 58 347 q 397 467 227 461 l 529 472 l 529 505 q 411 620 529 620 q 197 565 320 620 l 128 705 q 419 774 259 774 q 653 707 571 774 q 734 505 734 641 l 734 0 l 590 0 m 529 351 l 449 348 q 314 315 358 345 q 270 224 270 286 q 371 137 270 137 q 485 178 442 137 q 529 288 529 220 l 529 351 m 484 1018 l 395 1018 q 255 1158 324 1076 l 255 1173 l 405 1173 q 484 1036 437 1107 l 484 1018 m 275 1071 q 319 988 280 1020 q 418 955 357 955 q 517 985 480 955 q 561 1071 555 1014 l 662 1071 q 593 899 656 957 q 419 842 530 842 q 244 902 310 842 q 170 1071 178 963 l 275 1071 "},"ŏ":{"x_min":62.390625,"x_max":797.609375,"ha":860,"o":"m 273 380 q 310 209 273 267 q 430 152 347 152 q 549 209 513 152 q 586 380 586 267 q 549 549 586 493 q 429 606 512 606 q 309 550 346 606 q 273 380 273 494 m 797 380 q 699 90 797 195 q 427 -14 602 -14 q 235 33 318 -14 q 107 171 151 81 q 62 380 62 261 q 159 669 62 566 q 432 773 256 773 q 624 725 541 773 q 752 588 708 677 q 797 380 797 500 m 695 1071 q 612 904 687 966 q 425 842 538 842 q 237 903 307 842 q 161 1071 167 965 l 277 1071 q 295 1020 279 1039 q 340 994 311 1002 q 427 986 369 986 q 577 1071 566 986 l 695 1071 "},"Ả":{"x_min":0,"x_max":958,"ha":958,"o":"m 731 0 l 659 236 l 298 236 l 226 0 l 0 0 l 349 996 l 606 996 l 958 0 l 731 0 m 609 413 q 497 775 509 733 q 479 842 484 817 q 351 413 456 755 l 609 413 m 653 1237 q 543 1104 653 1131 l 536 1056 l 418 1056 l 403 1155 q 472 1180 453 1163 q 490 1223 490 1198 q 476 1256 490 1245 q 438 1268 462 1268 q 344 1252 394 1268 l 344 1366 q 400 1377 365 1373 q 464 1382 436 1382 q 606 1344 559 1382 q 653 1237 653 1306 "},"ý":{"x_min":0,"x_max":790,"ha":790,"o":"m 0 758 l 226 758 l 369 331 q 394 199 387 275 l 398 199 q 427 331 406 269 l 568 758 l 790 758 l 469 -97 q 343 -275 425 -216 q 152 -334 261 -334 q 47 -322 99 -334 l 47 -158 q 128 -167 84 -167 q 224 -133 183 -167 q 288 -32 265 -100 l 301 5 l 0 758 m 266 842 l 266 860 q 425 1064 382 995 l 657 1064 l 657 1049 q 537 945 622 1014 q 403 842 451 875 l 266 842 "},"º":{"x_min":38.640625,"x_max":499.671875,"ha":539,"o":"m 499 756 q 437 575 499 640 q 267 510 375 510 q 101 576 164 510 q 38 756 38 643 q 99 937 38 871 q 270 1003 160 1003 q 436 936 373 1003 q 499 756 499 869 m 176 756 q 198 654 176 689 q 269 620 220 620 q 339 654 317 620 q 360 756 360 689 q 339 858 360 824 q 269 891 317 891 q 198 858 220 891 q 176 756 176 824 "},"Ԁ":{"x_min":62.390625,"x_max":760.53125,"ha":886,"o":"m 62 309 q 168 532 62 453 q 467 611 273 611 l 550 611 l 550 992 l 760 992 l 760 0 l 471 0 q 62 309 62 0 m 550 438 l 496 438 q 325 408 374 438 q 275 309 275 378 q 324 206 275 240 q 480 172 374 172 l 550 172 l 550 438 "},"∞":{"x_min":76.640625,"x_max":905.359375,"ha":982,"o":"m 905 486 q 843 323 905 389 q 690 257 781 257 q 487 376 571 257 q 397 292 447 324 q 294 261 347 261 q 137 323 198 261 q 76 490 76 385 q 138 652 76 587 q 294 718 199 718 q 491 600 413 718 q 690 715 576 715 q 845 652 785 715 q 905 486 905 589 m 301 398 q 413 490 360 398 q 360 558 387 536 q 299 581 333 581 q 238 555 261 581 q 215 488 215 529 q 238 423 215 448 q 301 398 261 398 m 680 577 q 566 487 621 577 q 682 394 621 394 q 743 421 720 394 q 766 487 766 448 q 742 552 766 526 q 680 577 718 577 "},"ź":{"x_min":37.296875,"x_max":636.625,"ha":678,"o":"m 636 0 l 37 0 l 37 122 l 389 599 l 58 599 l 58 758 l 624 758 l 624 623 l 282 158 l 636 158 l 636 0 m 239 842 l 239 860 q 398 1064 355 995 l 630 1064 l 630 1049 q 510 945 595 1014 q 376 842 424 875 l 239 842 "},"я":{"x_min":0,"x_max":715.171875,"ha":823,"o":"m 223 0 l 0 0 l 204 299 q 93 387 130 330 q 55 523 55 445 q 137 695 55 633 q 362 758 220 758 l 715 758 l 715 0 l 508 0 l 508 281 l 394 281 l 223 0 m 258 522 q 295 447 258 474 q 393 421 332 421 l 508 421 l 508 612 l 366 612 q 287 587 315 612 q 258 522 258 562 "},"ӛ":{"x_min":62.390625,"x_max":775.3125,"ha":835,"o":"m 408 133 q 515 173 475 133 q 562 293 555 213 l 257 293 q 297 175 258 218 q 408 133 337 133 m 377 773 q 670 671 565 773 q 775 384 775 569 q 679 90 775 195 q 409 -14 583 -14 q 154 76 246 -14 q 62 330 62 167 l 62 431 l 567 431 q 512 568 563 519 q 371 618 461 618 q 241 605 303 618 q 105 558 178 592 l 105 718 q 229 760 165 748 q 377 773 294 773 m 188 953 q 213 1021 188 997 q 282 1044 239 1044 q 352 1019 327 1044 q 378 953 378 994 q 352 887 378 912 q 282 863 326 863 q 213 886 239 863 q 188 953 188 910 m 461 953 q 488 1022 461 1000 q 556 1044 516 1044 q 627 1020 600 1044 q 653 953 653 995 q 626 887 653 911 q 556 863 600 863 q 488 885 516 863 q 461 953 461 907 "},"Ё":{"x_min":124.796875,"x_max":695.9375,"ha":778,"o":"m 695 0 l 124 0 l 124 992 l 695 992 l 695 819 l 335 819 l 335 602 l 670 602 l 670 429 l 335 429 l 335 173 l 695 173 l 695 0 m 179 1182 q 204 1250 179 1226 q 273 1273 230 1273 q 343 1248 318 1273 q 369 1182 369 1223 q 343 1116 369 1141 q 273 1092 317 1092 q 204 1115 230 1092 q 179 1182 179 1139 m 452 1182 q 479 1251 452 1229 q 547 1273 507 1273 q 618 1249 591 1273 q 644 1182 644 1224 q 617 1116 644 1140 q 547 1092 591 1092 q 479 1114 507 1092 q 452 1182 452 1136 "},"Ư":{"x_min":118.015625,"x_max":1243.296875,"ha":1229,"o":"m 931 992 l 931 864 q 1005 932 982 881 q 1029 1056 1029 983 l 1233 1056 l 1243 1041 q 1185 879 1221 936 q 1087 787 1149 822 q 931 739 1025 752 l 931 349 q 882 157 931 239 q 740 30 833 74 q 520 -14 647 -14 q 223 84 329 -14 q 118 352 118 182 l 118 992 l 327 992 l 327 368 q 375 212 327 262 q 526 162 423 162 q 675 214 629 162 q 722 369 722 266 l 722 992 l 931 992 m 1050 0 l 1050 0 "},"ń":{"x_min":108.515625,"x_max":808.546875,"ha":913,"o":"m 808 0 l 601 0 l 601 443 q 572 566 601 525 q 479 607 543 607 q 354 549 392 607 q 315 357 315 491 l 315 0 l 108 0 l 108 758 l 266 758 l 294 661 l 305 661 q 401 744 340 716 q 539 773 461 773 q 740 701 671 773 q 808 494 808 629 l 808 0 m 340 842 l 340 860 q 499 1064 456 995 l 731 1064 l 731 1049 q 611 945 696 1014 q 477 842 525 875 l 340 842 "}," ":{"x_min":0,"x_max":0,"ha":347},"Г":{"x_min":124.796875,"x_max":751.1875,"ha":779,"o":"m 751 992 l 751 818 l 335 818 l 335 0 l 124 0 l 124 992 l 751 992 "},"Ь":{"x_min":124.796875,"x_max":822.921875,"ha":886,"o":"m 822 309 q 413 0 822 0 l 124 0 l 124 992 l 335 992 l 335 611 l 417 611 q 717 532 611 611 q 822 309 822 453 m 335 172 l 405 172 q 561 206 511 172 q 610 309 610 240 q 560 408 610 378 q 388 438 510 438 l 335 438 l 335 172 "},"ѝ":{"x_min":108.515625,"x_max":891.484375,"ha":1000,"o":"m 308 758 l 308 458 q 293 226 308 410 l 642 758 l 891 758 l 891 0 l 691 0 l 691 302 q 704 530 691 383 l 356 0 l 108 0 l 108 758 l 308 758 m 487 842 q 362 938 444 871 q 233 1049 279 1005 l 233 1064 l 465 1064 q 624 860 507 995 l 624 842 l 487 842 "},"ԓ":{"x_min":0,"x_max":987.234375,"ha":1006,"o":"m 787 0 l 580 0 l 580 602 l 390 602 q 337 223 368 348 q 254 41 305 97 q 118 -14 202 -14 q 0 7 46 -14 l 0 173 q 66 159 33 159 q 131 215 105 159 q 178 400 157 270 q 213 758 198 530 l 787 758 l 787 0 m 748 -336 q 623 -319 680 -336 l 623 -156 q 703 -169 663 -169 q 787 -53 787 -169 l 787 178 l 987 178 l 987 -84 q 925 -270 987 -204 q 748 -336 863 -336 "},"¤":{"x_min":76.703125,"x_max":716.9375,"ha":793,"o":"m 127 490 q 164 623 127 559 l 76 709 l 176 809 l 262 723 q 396 759 324 759 q 529 722 467 759 l 615 809 l 716 712 l 629 625 q 665 490 665 564 q 629 355 665 417 l 714 270 l 615 172 l 529 257 q 396 222 464 222 q 261 257 318 222 l 176 173 l 78 272 l 164 356 q 127 490 127 419 m 267 490 q 304 400 267 438 q 396 363 341 363 q 488 400 451 363 q 526 490 526 437 q 488 581 526 544 q 396 619 449 619 q 305 581 343 619 q 267 490 267 543 "},"Ĝ":{"x_min":80.703125,"x_max":894.734375,"ha":1006,"o":"m 501 557 l 894 557 l 894 42 q 714 -1 799 11 q 541 -14 630 -14 q 199 117 317 -14 q 80 497 80 249 q 218 871 80 737 q 598 1006 355 1006 q 893 944 751 1006 l 823 776 q 597 831 714 831 q 379 739 461 831 q 297 492 297 647 q 363 246 297 331 q 555 160 429 160 q 689 174 621 160 l 689 382 l 501 382 l 501 557 m 702 1071 q 544 1189 596 1133 q 388 1071 491 1135 l 251 1071 l 251 1089 q 424 1293 379 1217 l 666 1293 q 739 1197 687 1257 q 840 1089 791 1136 l 840 1071 l 702 1071 "},"p":{"x_min":108.515625,"x_max":816.609375,"ha":879,"o":"m 524 -14 q 315 83 391 -14 l 304 83 q 315 -26 315 -11 l 315 -334 l 108 -334 l 108 758 l 276 758 l 305 660 l 315 660 q 530 773 387 773 q 740 669 664 773 q 816 380 816 565 q 781 169 816 258 q 679 32 745 79 q 524 -14 613 -14 m 463 607 q 352 560 387 607 q 315 404 316 513 l 315 381 q 351 206 315 259 q 466 153 387 153 q 605 383 605 153 q 571 551 605 495 q 463 607 537 607 "},"ӓ":{"x_min":58.328125,"x_max":734.546875,"ha":839,"o":"m 590 0 l 550 102 l 544 102 q 437 11 492 36 q 293 -14 381 -14 q 121 48 183 -14 q 58 226 58 110 q 142 404 58 347 q 397 467 227 461 l 529 472 l 529 505 q 411 620 529 620 q 197 565 320 620 l 128 705 q 419 774 259 774 q 653 707 571 774 q 734 505 734 641 l 734 0 l 590 0 m 529 351 l 449 348 q 314 315 358 345 q 270 224 270 286 q 371 137 270 137 q 485 178 442 137 q 529 288 529 220 l 529 351 m 186 953 q 211 1021 186 997 q 280 1044 237 1044 q 350 1019 325 1044 q 376 953 376 994 q 350 887 376 912 q 280 863 324 863 q 211 886 237 863 q 186 953 186 910 m 459 953 q 486 1022 459 1000 q 554 1044 514 1044 q 625 1020 598 1044 q 651 953 651 995 q 624 887 651 911 q 554 863 598 863 q 486 885 514 863 q 459 953 459 907 "},"Ѹ":{"x_min":80.703125,"x_max":1832,"ha":1832,"o":"m 1042 758 l 1268 758 l 1411 331 q 1436 199 1429 275 l 1440 199 q 1469 331 1448 269 l 1610 758 l 1832 758 l 1511 -97 q 1385 -275 1467 -216 q 1194 -334 1303 -334 q 1089 -322 1141 -334 l 1089 -158 q 1170 -167 1126 -167 q 1266 -133 1225 -167 q 1330 -32 1307 -100 l 1343 5 l 1042 758 m 970 496 q 858 115 970 245 q 525 -14 746 -14 q 192 114 305 -14 q 80 498 80 243 q 193 880 80 753 q 526 1007 305 1007 q 857 879 745 1007 q 970 496 970 751 m 297 496 q 352 242 297 322 q 525 162 408 162 q 697 240 642 162 q 753 496 753 317 q 698 752 753 673 q 526 832 643 832 q 352 751 407 832 q 297 496 297 670 "},"Ю":{"x_min":124.796875,"x_max":1405.96875,"ha":1486,"o":"m 1405 496 q 1291 119 1405 252 q 963 -14 1177 -14 q 655 99 767 -14 q 524 428 542 212 l 335 428 l 335 0 l 124 0 l 124 992 l 335 992 l 335 603 l 529 603 q 663 902 552 798 q 965 1007 775 1007 q 1292 874 1179 1007 q 1405 496 1405 741 m 740 496 q 797 246 740 331 q 963 162 854 162 q 1188 496 1188 162 q 1132 747 1188 662 q 966 832 1077 832 q 797 747 855 832 q 740 496 740 662 "},"ο":{"x_min":62.390625,"x_max":797.609375,"ha":860,"o":"m 273 380 q 310 209 273 267 q 430 152 347 152 q 549 209 513 152 q 586 380 586 267 q 549 549 586 493 q 429 606 512 606 q 309 550 346 606 q 273 380 273 494 m 797 380 q 699 90 797 195 q 427 -14 602 -14 q 235 33 318 -14 q 107 171 151 81 q 62 380 62 261 q 159 669 62 566 q 432 773 256 773 q 624 725 541 773 q 752 588 708 677 q 797 380 797 500 "},"S":{"x_min":63.75,"x_max":710.0625,"ha":765,"o":"m 710 275 q 613 63 710 140 q 344 -14 516 -14 q 63 45 185 -14 l 63 241 q 233 177 164 196 q 360 159 303 159 q 466 186 429 159 q 503 264 503 212 q 487 316 503 294 q 439 360 471 339 q 311 427 408 381 q 174 509 220 470 q 102 601 129 549 q 75 723 75 653 q 164 930 75 855 q 410 1006 253 1006 q 558 987 488 1006 q 705 936 628 969 l 637 772 q 506 818 558 805 q 404 831 454 831 q 312 803 344 831 q 280 730 280 775 q 293 682 280 702 q 334 641 306 661 q 467 572 362 622 q 658 438 606 505 q 710 275 710 372 "},"ễ":{"x_min":62.390625,"x_max":761.3125,"ha":821,"o":"m 422 625 q 319 583 356 625 q 276 465 282 542 l 567 465 q 527 583 565 542 q 422 625 488 625 m 451 -14 q 165 87 268 -14 q 62 373 62 188 q 157 668 62 564 q 421 773 253 773 q 671 681 582 773 q 761 427 761 589 l 761 327 l 271 327 q 324 189 275 239 q 461 139 373 139 q 590 154 529 139 q 718 199 652 168 l 718 39 q 602 0 664 12 q 451 -14 540 -14 m 522 1063 q 472 1071 497 1063 q 422 1090 446 1080 q 375 1109 397 1100 q 333 1118 352 1118 q 291 1106 306 1118 q 268 1062 277 1095 l 191 1062 q 234 1181 197 1137 q 326 1226 270 1226 q 377 1217 351 1226 q 428 1197 404 1208 q 475 1178 452 1187 q 515 1169 497 1169 q 556 1181 543 1169 q 580 1227 570 1194 l 657 1227 q 612 1105 648 1148 q 522 1063 576 1063 m 676 842 l 580 842 q 423 945 484 890 q 266 842 367 895 l 170 842 l 170 860 q 330 1037 286 971 l 516 1037 q 592 945 549 990 q 676 860 636 900 l 676 842 "},"/":{"x_min":9.5,"x_max":567.21875,"ha":574,"o":"m 567 992 l 197 0 l 9 0 l 379 992 l 567 992 "},"Ọ":{"x_min":80.703125,"x_max":1025.296875,"ha":1106,"o":"m 1025 496 q 903 118 1025 250 q 553 -14 781 -14 q 202 118 325 -14 q 80 498 80 250 q 203 876 80 745 q 554 1007 325 1007 q 904 875 783 1007 q 1025 496 1025 743 m 301 496 q 364 246 301 330 q 553 162 427 162 q 804 496 804 162 q 554 832 804 832 q 364 747 428 832 q 301 496 301 663 m 440 -190 q 553 -89 440 -89 q 665 -190 665 -89 q 637 -265 665 -238 q 553 -291 608 -291 q 440 -190 440 -291 "},"Ӭ":{"x_min":48.828125,"x_max":840.28125,"ha":921,"o":"m 375 831 q 243 812 307 831 q 115 766 178 793 l 48 936 q 379 1006 206 1006 q 719 870 599 1006 q 840 494 840 735 q 716 117 840 248 q 359 -14 592 -14 q 66 36 198 -14 l 66 213 q 347 160 231 160 q 544 224 476 160 q 619 413 613 287 l 189 413 l 189 586 l 617 586 q 548 766 613 701 q 375 831 483 831 m 213 1182 q 238 1250 213 1226 q 307 1273 264 1273 q 377 1248 352 1273 q 403 1182 403 1223 q 377 1116 403 1141 q 307 1092 351 1092 q 238 1115 264 1092 q 213 1182 213 1139 m 486 1182 q 513 1251 486 1229 q 581 1273 541 1273 q 652 1249 625 1273 q 678 1182 678 1224 q 651 1116 678 1140 q 581 1092 625 1092 q 513 1114 541 1092 q 486 1182 486 1136 "},"Ŧ":{"x_min":27.671875,"x_max":776.421875,"ha":804,"o":"m 507 0 l 296 0 l 296 404 l 128 404 l 128 577 l 296 577 l 296 817 l 27 817 l 27 992 l 776 992 l 776 817 l 507 817 l 507 577 l 674 577 l 674 404 l 507 404 l 507 0 "},"ђ":{"x_min":2.71875,"x_max":808.546875,"ha":913,"o":"m 562 -334 q 437 -317 489 -334 l 437 -154 q 518 -167 477 -167 q 601 -51 601 -167 l 601 416 q 569 527 601 490 q 479 565 537 565 q 354 505 393 565 q 315 315 315 446 l 315 0 l 108 0 l 108 811 l 2 811 l 2 946 l 108 946 l 108 1055 l 315 1055 l 315 946 l 529 946 l 529 811 l 315 811 l 315 798 q 305 618 315 742 l 318 618 q 537 730 387 730 q 740 658 671 730 q 808 452 808 587 l 808 -82 q 744 -268 808 -203 q 562 -334 681 -334 "},"y":{"x_min":0,"x_max":790,"ha":790,"o":"m 0 758 l 226 758 l 369 331 q 394 199 387 275 l 398 199 q 427 331 406 269 l 568 758 l 790 758 l 469 -97 q 343 -275 425 -216 q 152 -334 261 -334 q 47 -322 99 -334 l 47 -158 q 128 -167 84 -167 q 224 -133 183 -167 q 288 -32 265 -100 l 301 5 l 0 758 "},"Π":{"x_min":124.796875,"x_max":909.53125,"ha":1035,"o":"m 909 0 l 699 0 l 699 817 l 335 817 l 335 0 l 124 0 l 124 992 l 909 992 l 909 0 "},"‗":{"x_min":-2.71875,"x_max":573.71875,"ha":571,"o":"m 573 -314 l -2 -314 l -2 -219 l 573 -219 l 573 -314 m 573 -125 l -2 -125 l -2 -30 l 573 -30 l 573 -125 "},"–":{"x_min":55.609375,"x_max":639.390625,"ha":695,"o":"m 55 296 l 55 452 l 639 452 l 639 296 l 55 296 "},"ë":{"x_min":62.390625,"x_max":761.3125,"ha":821,"o":"m 422 625 q 319 583 356 625 q 276 465 282 542 l 567 465 q 527 583 565 542 q 422 625 488 625 m 451 -14 q 165 87 268 -14 q 62 373 62 188 q 157 668 62 564 q 421 773 253 773 q 671 681 582 773 q 761 427 761 589 l 761 327 l 271 327 q 324 189 275 239 q 461 139 373 139 q 590 154 529 139 q 718 199 652 168 l 718 39 q 602 0 664 12 q 451 -14 540 -14 m 201 953 q 226 1021 201 997 q 295 1044 252 1044 q 365 1019 340 1044 q 391 953 391 994 q 365 887 391 912 q 295 863 339 863 q 226 886 252 863 q 201 953 201 910 m 474 953 q 501 1022 474 1000 q 569 1044 529 1044 q 640 1020 613 1044 q 666 953 666 995 q 639 887 666 911 q 569 863 613 863 q 501 885 529 863 q 474 953 474 907 "},"б":{"x_min":62.390625,"x_max":801.59375,"ha":864,"o":"m 62 454 q 161 850 62 715 q 472 1022 261 986 q 777 1067 574 1039 l 801 886 q 488 843 713 876 q 361 802 403 829 q 298 725 319 775 q 273 591 278 675 l 283 591 q 378 677 319 647 q 505 707 437 707 q 723 621 645 707 q 801 375 801 535 q 702 88 801 190 q 430 -14 604 -14 q 159 110 257 -14 q 62 454 62 235 m 442 153 q 589 356 589 153 q 457 554 589 554 q 384 537 420 554 q 317 492 347 520 q 273 437 287 465 q 317 226 273 299 q 442 153 361 153 "},"ƒ":{"x_min":133.671875,"x_max":726.4375,"ha":793,"o":"m 505 -82 q 441 -268 505 -202 q 258 -334 377 -334 q 133 -317 185 -334 l 133 -154 q 213 -167 173 -167 q 298 -51 298 -167 l 298 545 l 184 545 l 184 645 l 298 701 l 298 756 q 357 944 298 884 q 548 1005 417 1005 q 726 973 650 1005 l 677 821 q 579 840 622 840 q 505 748 505 840 l 505 701 l 659 701 l 659 545 l 505 545 l 505 -82 "},"у":{"x_min":0,"x_max":790,"ha":790,"o":"m 0 758 l 226 758 l 369 331 q 394 199 387 275 l 398 199 q 427 331 406 269 l 568 758 l 790 758 l 469 -97 q 343 -275 425 -216 q 152 -334 261 -334 q 47 -322 99 -334 l 47 -158 q 128 -167 84 -167 q 224 -133 183 -167 q 288 -32 265 -100 l 301 5 l 0 758 "},"J":{"x_min":-103.09375,"x_max":335.046875,"ha":460,"o":"m 21 -291 q -103 -276 -50 -291 l -103 -101 q -4 -114 -48 -114 q 94 -71 65 -114 q 124 63 124 -28 l 124 992 l 335 992 l 335 64 q 255 -200 335 -109 q 21 -291 176 -291 "},"ŷ":{"x_min":0,"x_max":790,"ha":790,"o":"m 0 758 l 226 758 l 369 331 q 394 199 387 275 l 398 199 q 427 331 406 269 l 568 758 l 790 758 l 469 -97 q 343 -275 425 -216 q 152 -334 261 -334 q 47 -322 99 -334 l 47 -158 q 128 -167 84 -167 q 224 -133 183 -167 q 288 -32 265 -100 l 301 5 l 0 758 m 553 842 q 395 960 447 904 q 239 842 342 906 l 102 842 l 102 860 q 275 1064 230 988 l 517 1064 q 590 968 538 1028 q 691 860 642 907 l 691 842 l 553 842 "},"ŕ":{"x_min":108.515625,"x_max":620.484375,"ha":631,"o":"m 531 773 q 601 766 574 773 l 586 572 q 525 579 561 579 q 370 528 426 579 q 315 386 315 477 l 315 0 l 108 0 l 108 758 l 265 758 l 295 631 l 305 631 q 401 734 341 695 q 531 773 461 773 m 229 842 l 229 860 q 388 1064 345 995 l 620 1064 l 620 1049 q 500 945 585 1014 q 366 842 414 875 l 229 842 "},"ӌ":{"x_min":83.421875,"x_max":803.15625,"ha":911,"o":"m 290 758 l 290 480 q 381 381 290 381 q 492 395 441 381 q 596 430 544 409 l 596 758 l 803 758 l 803 0 l 626 0 l 626 -272 l 440 -272 l 440 151 l 596 151 l 596 301 q 462 247 524 263 q 343 232 400 232 q 151 295 219 232 q 83 476 83 358 l 83 758 l 290 758 "},"ώ":{"x_min":73.921875,"x_max":1124.75,"ha":1198,"o":"m 819 -14 q 683 21 736 -14 q 602 128 630 57 l 595 128 q 512 19 564 53 q 379 -14 459 -14 q 153 88 233 -14 q 73 367 73 190 q 90 560 73 472 q 149 758 106 648 l 348 758 q 263 374 263 580 q 297 205 263 263 q 395 146 330 146 q 477 186 452 146 q 503 316 503 225 l 503 517 l 694 517 l 694 316 q 720 185 694 224 q 802 146 745 146 q 900 204 866 146 q 934 371 934 261 q 849 758 934 580 l 1048 758 q 1108 560 1091 648 q 1124 367 1124 473 q 1044 87 1124 189 q 819 -14 963 -14 m 529 863 q 559 974 541 899 q 585 1106 577 1049 l 777 1106 l 777 1089 q 650 842 724 963 l 529 842 l 529 863 "},"˘":{"x_min":153.953125,"x_max":687.71875,"ha":843,"o":"m 687 1071 q 604 904 679 966 q 417 842 530 842 q 229 903 299 842 q 153 1071 159 965 l 269 1071 q 287 1020 271 1039 q 332 994 303 1002 q 419 986 361 986 q 569 1071 558 986 l 687 1071 "},"҃":{"x_min":122.109375,"x_max":654.515625,"ha":774,"o":"m 267 842 q 245 795 263 812 q 194 778 227 778 q 139 802 156 778 q 122 864 122 826 q 196 943 122 943 l 507 943 q 580 1007 514 1007 q 654 929 654 1007 q 636 866 654 890 q 579 842 617 842 l 267 842 "},"D":{"x_min":124.796875,"x_max":947.296875,"ha":1028,"o":"m 947 505 q 807 130 947 260 q 405 0 668 0 l 124 0 l 124 992 l 436 992 q 813 863 678 992 q 947 505 947 735 m 728 500 q 446 819 728 819 l 335 819 l 335 173 l 425 173 q 728 500 728 173 "},"ł":{"x_min":-0.140625,"x_max":458.34375,"ha":458,"o":"m 331 630 l 378 660 l 458 526 l 331 450 l 331 0 l 124 0 l 124 323 l 76 294 l 0 427 l 124 503 l 124 1055 l 331 1055 l 331 630 "},"ĺ":{"x_min":108.515625,"x_max":512.484375,"ha":424,"o":"m 315 0 l 108 0 l 108 1055 l 315 1055 l 315 0 m 121 1110 l 121 1128 q 280 1332 237 1263 l 512 1332 l 512 1317 q 392 1213 477 1282 q 258 1110 306 1143 l 121 1110 "},"ӳ":{"x_min":0,"x_max":790,"ha":790,"o":"m 0 758 l 226 758 l 369 331 q 394 199 387 275 l 398 199 q 427 331 406 269 l 568 758 l 790 758 l 469 -97 q 343 -275 425 -216 q 152 -334 261 -334 q 47 -322 99 -334 l 47 -158 q 128 -167 84 -167 q 224 -133 183 -167 q 288 -32 265 -100 l 301 5 l 0 758 m 161 842 l 161 860 q 241 977 203 917 q 293 1064 279 1036 l 497 1064 l 497 1049 q 398 946 475 1013 q 271 842 321 878 l 161 842 m 430 842 l 430 860 q 563 1064 525 990 l 767 1064 l 767 1049 q 682 958 750 1020 q 540 842 613 896 l 430 842 "},"ц":{"x_min":108.515625,"x_max":936.34375,"ha":956,"o":"m 825 151 l 936 151 l 936 -272 l 750 -272 l 750 0 l 108 0 l 108 758 l 315 758 l 315 155 l 618 155 l 618 758 l 825 758 l 825 151 "},"Л":{"x_min":10.859375,"x_max":909.53125,"ha":1035,"o":"m 909 0 l 699 0 l 699 817 l 457 817 l 446 726 q 372 238 404 379 q 278 41 339 98 q 111 -14 216 -15 q 10 0 54 -14 l 10 173 q 84 159 50 159 q 141 192 120 159 q 181 314 162 225 q 230 607 200 404 q 283 992 261 810 l 909 992 l 909 0 "},"$":{"x_min":59.703125,"x_max":740.765625,"ha":793,"o":"m 740 310 q 662 137 740 202 q 444 58 584 71 l 444 -80 l 351 -80 l 351 56 q 61 114 185 59 l 61 293 q 203 241 120 264 q 351 215 286 219 l 351 425 l 305 443 q 115 558 171 496 q 59 711 59 620 q 136 873 59 809 q 351 950 213 936 l 351 1054 l 444 1054 l 444 953 q 725 890 599 946 l 661 731 q 444 784 555 775 l 444 584 q 632 496 576 533 q 714 414 688 459 q 740 310 740 369 m 536 300 q 513 348 536 328 q 444 388 490 367 l 444 220 q 536 300 536 235 m 263 711 q 284 662 263 681 q 351 622 305 643 l 351 782 q 263 711 263 769 "},"w":{"x_min":13.5625,"x_max":1175.4375,"ha":1189,"o":"m 731 0 l 673 265 l 594 600 l 590 600 l 451 0 l 229 0 l 13 758 l 219 758 l 307 422 q 349 173 328 332 l 354 173 q 377 336 356 225 l 388 394 l 482 758 l 710 758 l 799 394 q 807 350 801 379 q 818 288 813 321 q 828 224 824 255 q 833 173 832 192 l 837 173 q 859 307 843 222 q 881 422 874 392 l 972 758 l 1175 758 l 957 0 l 731 0 "},"Ԅ":{"x_min":16.953125,"x_max":1149.984375,"ha":1268,"o":"m 686 769 q 629 611 686 676 q 471 522 573 546 l 471 518 q 653 445 591 503 q 715 288 715 387 q 743 189 715 220 q 829 159 771 159 q 916 194 889 159 q 943 305 943 228 l 943 575 l 1149 575 l 1149 258 q 1068 55 1149 124 q 829 -14 987 -14 q 587 63 670 -14 q 505 288 505 140 q 438 397 505 360 q 247 434 372 434 l 132 434 l 132 582 l 247 582 q 480 723 480 582 q 444 806 480 776 q 331 836 408 836 q 122 768 225 836 l 16 908 q 347 1006 152 1006 q 594 942 503 1006 q 686 769 686 879 "},"о":{"x_min":62.390625,"x_max":797.609375,"ha":860,"o":"m 273 380 q 310 209 273 267 q 430 152 347 152 q 549 209 513 152 q 586 380 586 267 q 549 549 586 493 q 429 606 512 606 q 309 550 346 606 q 273 380 273 494 m 797 380 q 699 90 797 195 q 427 -14 602 -14 q 235 33 318 -14 q 107 171 151 81 q 62 380 62 261 q 159 669 62 566 q 432 773 256 773 q 624 725 541 773 q 752 588 708 677 q 797 380 797 500 "},"Д":{"x_min":6.78125,"x_max":1033.1875,"ha":1061,"o":"m 6 174 l 83 174 q 238 568 181 371 q 323 992 295 764 l 900 992 l 900 174 l 1033 174 l 1033 -289 l 830 -289 l 830 0 l 209 0 l 209 -289 l 6 -289 l 6 174 m 490 817 q 417 487 468 661 q 304 174 367 314 l 691 174 l 691 817 l 490 817 "},"Ç":{"x_min":80.703125,"x_max":836.171875,"ha":885,"o":"m 545 831 q 362 741 427 831 q 297 492 297 652 q 545 160 297 160 q 798 213 650 160 l 798 36 q 526 -14 676 -14 q 195 117 309 -14 q 80 494 80 248 q 136 765 80 649 q 298 943 193 881 q 545 1006 404 1006 q 836 936 690 1006 l 768 765 q 656 811 712 791 q 545 831 600 831 m 650 -170 q 599 -295 650 -256 q 440 -334 548 -334 q 341 -319 388 -334 l 341 -205 q 391 -215 360 -210 q 438 -220 422 -220 q 487 -177 487 -220 q 375 -104 487 -121 l 428 0 l 559 0 l 540 -42 q 620 -92 590 -58 q 650 -170 650 -126 "},"Ŝ":{"x_min":63.75,"x_max":710.0625,"ha":765,"o":"m 710 275 q 613 63 710 140 q 344 -14 516 -14 q 63 45 185 -14 l 63 241 q 233 177 164 196 q 360 159 303 159 q 466 186 429 159 q 503 264 503 212 q 487 316 503 294 q 439 360 471 339 q 311 427 408 381 q 174 509 220 470 q 102 601 129 549 q 75 723 75 653 q 164 930 75 855 q 410 1006 253 1006 q 558 987 488 1006 q 705 936 628 969 l 637 772 q 506 818 558 805 q 404 831 454 831 q 312 803 344 831 q 280 730 280 775 q 293 682 280 702 q 334 641 306 661 q 467 572 362 622 q 658 438 606 505 q 710 275 710 372 m 562 1071 q 404 1189 456 1133 q 248 1071 351 1135 l 111 1071 l 111 1089 q 284 1293 239 1217 l 526 1293 q 599 1197 547 1257 q 700 1089 651 1136 l 700 1071 l 562 1071 "},"Ӛ":{"x_min":111.234375,"x_max":1054.28125,"ha":1135,"o":"m 555 832 q 347 801 455 832 q 162 722 238 770 l 162 903 q 351 983 257 960 q 556 1007 446 1007 q 923 870 791 1007 q 1054 494 1054 734 q 930 119 1054 253 q 582 -14 807 -14 q 229 118 348 -14 q 111 516 111 251 l 111 565 l 835 565 q 754 763 826 695 q 555 832 683 832 m 582 160 q 758 222 692 160 q 832 389 825 284 l 328 389 q 390 215 328 270 q 582 160 451 160 m 350 1182 q 375 1250 350 1226 q 444 1273 401 1273 q 514 1248 489 1273 q 540 1182 540 1223 q 514 1116 540 1141 q 444 1092 488 1092 q 375 1115 401 1092 q 350 1182 350 1139 m 623 1182 q 650 1251 623 1229 q 718 1273 678 1273 q 789 1249 762 1273 q 815 1182 815 1224 q 788 1116 815 1140 q 718 1092 762 1092 q 650 1114 678 1092 q 623 1182 623 1136 "},"ӣ":{"x_min":108.515625,"x_max":891.484375,"ha":1000,"o":"m 308 758 l 308 458 q 293 226 308 410 l 642 758 l 891 758 l 891 0 l 691 0 l 691 302 q 704 530 691 383 l 356 0 l 108 0 l 108 758 l 308 758 m 270 985 l 730 985 l 730 842 l 270 842 l 270 985 "},"C":{"x_min":80.703125,"x_max":836.171875,"ha":885,"o":"m 545 831 q 362 741 427 831 q 297 492 297 652 q 545 160 297 160 q 798 213 650 160 l 798 36 q 526 -14 676 -14 q 195 117 309 -14 q 80 494 80 248 q 136 765 80 649 q 298 943 193 881 q 545 1006 404 1006 q 836 936 690 1006 l 768 765 q 656 811 712 791 q 545 831 600 831 "},"Ӂ":{"x_min":0,"x_max":1310,"ha":1310,"o":"m 352 515 l 19 992 l 236 992 l 556 511 l 556 992 l 752 992 l 752 511 l 1073 992 l 1291 992 l 957 515 l 1310 0 l 1084 0 l 752 502 l 752 0 l 556 0 l 556 502 l 225 0 l 0 0 l 352 515 m 982 1314 q 886 1129 969 1187 q 647 1071 803 1071 q 410 1126 487 1071 q 323 1314 333 1182 l 508 1314 q 543 1215 513 1244 q 651 1187 573 1187 q 753 1218 720 1187 q 795 1314 787 1249 l 982 1314 "},"Ḁ":{"x_min":0,"x_max":958,"ha":958,"o":"m 731 0 l 659 236 l 298 236 l 226 0 l 0 0 l 349 996 l 606 996 l 958 0 l 731 0 m 609 413 q 497 775 509 733 q 479 842 484 817 q 351 413 456 755 l 609 413 m 651 -244 q 603 -362 651 -317 q 479 -407 555 -407 q 357 -363 403 -407 q 311 -245 311 -320 q 357 -128 311 -172 q 479 -85 403 -85 q 603 -129 554 -85 q 651 -244 651 -174 m 544 -245 q 526 -197 544 -215 q 479 -180 508 -180 q 433 -197 451 -180 q 414 -245 414 -215 q 431 -293 414 -276 q 479 -311 447 -311 q 526 -293 508 -311 q 544 -245 544 -276 "},"̉":{"x_min":-547.328125,"x_max":-238.734375,"ha":0,"o":"m -238 1008 q -348 875 -238 902 l -355 827 l -473 827 l -489 926 q -419 951 -438 934 q -401 994 -401 969 q -415 1027 -401 1016 q -453 1039 -430 1039 q -547 1023 -497 1039 l -547 1137 q -491 1148 -526 1144 q -427 1153 -455 1153 q -285 1115 -333 1153 q -238 1008 -238 1077 "},"Ĵ":{"x_min":-103.09375,"x_max":526.515625,"ha":460,"o":"m 21 -291 q -103 -276 -50 -291 l -103 -101 q -4 -114 -48 -114 q 94 -71 65 -114 q 124 63 124 -28 l 124 992 l 335 992 l 335 64 q 255 -200 335 -109 q 21 -291 176 -291 m 388 1071 q 230 1189 282 1133 q 74 1071 177 1135 l -62 1071 l -62 1089 q 110 1293 65 1217 l 352 1293 q 425 1197 373 1257 q 526 1089 477 1136 l 526 1071 l 388 1071 "},"Ẻ":{"x_min":124.796875,"x_max":695.9375,"ha":778,"o":"m 695 0 l 124 0 l 124 992 l 695 992 l 695 819 l 335 819 l 335 602 l 670 602 l 670 429 l 335 429 l 335 173 l 695 173 l 695 0 m 589 1237 q 479 1104 589 1131 l 472 1056 l 354 1056 l 339 1155 q 408 1180 389 1163 q 426 1223 426 1198 q 412 1256 426 1245 q 374 1268 398 1268 q 280 1252 330 1268 l 280 1366 q 336 1377 301 1373 q 400 1382 372 1382 q 542 1344 495 1382 q 589 1237 589 1306 "},"Ҕ":{"x_min":124.796875,"x_max":949.8125,"ha":1019,"o":"m 421 364 q 335 355 385 364 l 335 0 l 124 0 l 124 992 l 748 992 l 748 819 l 335 819 l 335 547 q 508 556 407 556 q 742 498 639 556 q 897 337 846 440 q 949 96 949 235 q 902 -137 949 -36 q 770 -292 855 -237 q 581 -347 685 -347 q 460 -339 507 -347 q 362 -315 412 -332 l 362 -130 q 540 -162 450 -162 q 689 -92 634 -162 q 744 96 744 -23 q 666 296 744 229 q 421 364 588 364 "},"È":{"x_min":124.796875,"x_max":695.9375,"ha":778,"o":"m 695 0 l 124 0 l 124 992 l 695 992 l 695 819 l 335 819 l 335 602 l 670 602 l 670 429 l 335 429 l 335 173 l 695 173 l 695 0 m 429 1071 q 304 1167 386 1100 q 175 1278 221 1234 l 175 1293 l 407 1293 q 566 1089 449 1224 l 566 1071 l 429 1071 "},"ﬁ":{"x_min":27.859375,"x_max":862.875,"ha":961,"o":"m 527 602 l 348 602 l 348 0 l 141 0 l 141 602 l 27 602 l 27 702 l 141 758 l 141 813 q 205 1003 141 943 q 409 1063 269 1063 q 600 1031 516 1063 l 547 879 q 432 898 485 898 q 368 872 388 898 q 348 805 348 846 l 348 758 l 527 758 l 527 602 m 637 953 q 750 1055 637 1055 q 862 953 862 1055 q 834 879 862 905 q 750 852 806 852 q 637 953 637 852 m 853 0 l 646 0 l 646 758 l 853 758 l 853 0 "},"X":{"x_min":0,"x_max":926,"ha":926,"o":"m 926 0 l 685 0 l 455 375 l 225 0 l 0 0 l 328 511 l 21 992 l 252 992 l 466 635 l 675 992 l 902 992 l 591 500 l 926 0 "},"ô":{"x_min":62.390625,"x_max":797.609375,"ha":860,"o":"m 273 380 q 310 209 273 267 q 430 152 347 152 q 549 209 513 152 q 586 380 586 267 q 549 549 586 493 q 429 606 512 606 q 309 550 346 606 q 273 380 273 494 m 797 380 q 699 90 797 195 q 427 -14 602 -14 q 235 33 318 -14 q 107 171 151 81 q 62 380 62 261 q 159 669 62 566 q 432 773 256 773 q 624 725 541 773 q 752 588 708 677 q 797 380 797 500 m 585 842 q 427 960 479 904 q 271 842 374 906 l 134 842 l 134 860 q 307 1064 262 988 l 549 1064 q 622 968 570 1028 q 723 860 674 907 l 723 842 l 585 842 "},"ҝ":{"x_min":108.515625,"x_max":832,"ha":832,"o":"m 108 758 l 301 758 l 301 389 l 368 473 l 368 687 l 466 687 l 466 600 l 591 758 l 805 758 l 505 394 l 832 0 l 610 0 l 465 180 l 465 61 l 366 61 l 366 302 l 301 384 l 301 0 l 108 0 l 108 758 "},"Ė":{"x_min":124.796875,"x_max":695.9375,"ha":778,"o":"m 695 0 l 124 0 l 124 992 l 695 992 l 695 819 l 335 819 l 335 602 l 670 602 l 670 429 l 335 429 l 335 173 l 695 173 l 695 0 m 305 1164 q 418 1265 305 1265 q 530 1164 530 1265 q 502 1089 530 1116 q 418 1063 474 1063 q 305 1164 305 1063 "},"г":{"x_min":108.515625,"x_max":632.125,"ha":664,"o":"m 632 758 l 632 602 l 315 602 l 315 0 l 108 0 l 108 758 l 632 758 "},"℠":{"x_min":55.625,"x_max":958.59375,"ha":1021,"o":"m 364 642 q 317 536 364 574 q 190 498 270 498 q 55 527 115 498 l 55 624 q 193 588 133 588 q 239 601 223 588 q 255 638 255 614 q 243 669 255 656 q 206 694 232 682 q 109 750 133 730 q 71 797 84 770 q 58 858 58 823 q 101 960 58 921 q 222 999 145 999 q 362 963 286 999 l 327 878 q 269 902 289 897 q 222 908 248 908 q 182 896 197 908 q 166 862 166 885 q 181 826 166 841 q 245 787 195 812 q 340 721 316 753 q 364 642 364 690 m 629 503 l 516 861 l 512 861 l 515 786 l 515 503 l 404 503 l 404 992 l 572 992 l 681 646 l 796 992 l 958 992 l 958 503 l 844 503 l 844 779 l 847 861 l 843 861 l 725 503 l 629 503 "},"ấ":{"x_min":58.328125,"x_max":866.65625,"ha":839,"o":"m 590 0 l 550 102 l 544 102 q 437 11 492 36 q 293 -14 381 -14 q 121 48 183 -14 q 58 226 58 110 q 142 404 58 347 q 397 467 227 461 l 529 472 l 529 505 q 411 620 529 620 q 197 565 320 620 l 128 705 q 419 774 259 774 q 653 707 571 774 q 734 505 734 641 l 734 0 l 590 0 m 529 351 l 449 348 q 314 315 358 345 q 270 224 270 286 q 371 137 270 137 q 485 178 442 137 q 529 288 529 220 l 529 351 m 669 842 l 560 842 q 417 954 484 892 q 273 842 339 886 l 164 842 l 164 860 q 309 1050 239 948 l 523 1050 q 605 939 559 997 q 669 860 650 881 l 669 842 m 609 991 q 703 1128 667 1053 l 866 1128 l 866 1113 q 712 974 821 1053 l 609 974 l 609 991 "},"Ŀ":{"x_min":124.796875,"x_max":737.53125,"ha":785,"o":"m 124 0 l 124 992 l 335 992 l 335 173 l 737 173 l 737 0 l 124 0 m 478 509 q 591 610 478 610 q 703 509 703 610 q 675 434 703 461 q 591 408 647 408 q 478 509 478 408 "},"х":{"x_min":6.78125,"x_max":796.21875,"ha":803,"o":"m 263 387 l 19 758 l 254 758 l 401 516 l 550 758 l 784 758 l 537 387 l 796 0 l 560 0 l 401 259 l 241 0 l 6 0 l 263 387 "},"Ԋ":{"x_min":124.796875,"x_max":1330.984375,"ha":1449,"o":"m 909 258 q 934 183 909 207 q 1016 159 959 159 q 1099 194 1074 159 q 1124 305 1124 228 l 1124 575 l 1330 575 l 1330 258 q 1251 55 1330 125 q 1016 -14 1171 -14 q 781 53 860 -14 q 700 252 701 121 l 700 428 l 335 428 l 335 0 l 124 0 l 124 992 l 335 992 l 335 603 l 700 603 l 700 992 l 909 992 l 909 258 "},"ŋ":{"x_min":108.515625,"x_max":808.546875,"ha":913,"o":"m 562 -334 q 437 -317 489 -334 l 437 -154 q 518 -167 477 -167 q 601 -51 601 -167 l 601 458 q 479 607 601 607 q 354 549 392 607 q 315 357 315 491 l 315 0 l 108 0 l 108 758 l 266 758 l 294 661 l 307 661 q 400 744 341 715 q 539 773 460 773 q 740 701 671 773 q 808 494 808 629 l 808 -82 q 744 -268 808 -203 q 562 -334 681 -334 "},"Ỵ":{"x_min":0.09375,"x_max":866.859375,"ha":867,"o":"m 433 583 l 640 992 l 866 992 l 537 386 l 537 0 l 329 0 l 329 379 l 0 992 l 227 992 l 433 583 m 319 -190 q 432 -89 319 -89 q 544 -190 544 -89 q 516 -265 544 -238 q 432 -291 487 -291 q 319 -190 319 -291 "},"Ч":{"x_min":73.921875,"x_max":886.203125,"ha":1011,"o":"m 886 0 l 675 0 l 675 383 q 502 334 571 347 q 369 322 432 322 q 150 390 227 322 q 73 581 73 458 l 73 992 l 283 992 l 283 641 q 316 533 283 569 q 429 496 349 496 q 540 508 484 496 q 675 547 595 519 l 675 992 l 886 992 l 886 0 "},"ü":{"x_min":104.453125,"x_max":804.484375,"ha":913,"o":"m 645 0 l 617 96 l 607 96 q 512 14 573 43 q 373 -14 451 -14 q 172 57 240 -14 q 104 263 104 129 l 104 758 l 311 758 l 311 314 q 340 191 311 232 q 433 150 369 150 q 558 208 520 150 q 597 401 597 266 l 597 758 l 804 758 l 804 0 l 645 0 m 221 953 q 246 1021 221 997 q 315 1044 272 1044 q 385 1019 360 1044 q 411 953 411 994 q 385 887 411 912 q 315 863 359 863 q 246 886 272 863 q 221 953 221 910 m 494 953 q 521 1022 494 1000 q 589 1044 549 1044 q 660 1020 633 1044 q 686 953 686 995 q 659 887 686 911 q 589 863 633 863 q 521 885 549 863 q 494 953 494 907 "},"ь":{"x_min":108.515625,"x_max":804.84375,"ha":853,"o":"m 315 465 l 461 465 q 720 409 636 465 q 804 241 804 353 q 469 0 804 0 l 108 0 l 108 758 l 315 758 l 315 465 m 597 238 q 562 302 597 282 q 457 321 527 321 l 315 321 l 315 143 l 460 143 q 597 238 597 143 "},"Җ":{"x_min":0,"x_max":1401.5625,"ha":1429,"o":"m 352 515 l 19 992 l 236 992 l 556 511 l 556 992 l 752 992 l 752 511 l 1073 992 l 1291 992 l 957 515 l 1186 180 l 1401 180 l 1401 -289 l 1198 -289 l 1198 0 l 1084 0 l 752 502 l 752 0 l 556 0 l 556 502 l 225 0 l 0 0 l 352 515 m 1310 0 l 1310 0 "},"Ҍ":{"x_min":31.875,"x_max":823.4375,"ha":856,"o":"m 335 890 l 537 890 l 537 717 l 335 717 l 335 611 l 417 611 q 717 532 611 611 q 823 309 823 453 q 413 0 823 0 l 124 0 l 124 717 l 31 717 l 31 890 l 124 890 l 124 992 l 335 992 l 335 890 m 335 172 l 405 172 q 561 206 512 172 q 611 309 611 240 q 560 408 611 378 q 388 438 510 438 l 335 438 l 335 172 "},"Ÿ":{"x_min":0.09375,"x_max":866.859375,"ha":867,"o":"m 433 583 l 640 992 l 866 992 l 537 386 l 537 0 l 329 0 l 329 379 l 0 992 l 227 992 l 433 583 m 201 1182 q 226 1250 201 1226 q 295 1273 252 1273 q 365 1248 340 1273 q 391 1182 391 1223 q 365 1116 391 1141 q 295 1092 339 1092 q 226 1115 252 1092 q 201 1182 201 1139 m 474 1182 q 501 1251 474 1229 q 569 1273 529 1273 q 640 1249 613 1273 q 666 1182 666 1224 q 639 1116 666 1140 q 569 1092 613 1092 q 501 1114 529 1092 q 474 1182 474 1136 "},"€":{"x_min":44.765625,"x_max":783.5,"ha":793,"o":"m 544 830 q 408 782 461 830 q 339 644 354 735 l 612 644 l 612 524 l 328 524 l 327 501 l 327 469 l 328 447 l 569 447 l 569 326 l 340 326 q 558 160 375 160 q 744 199 655 160 l 744 26 q 546 -14 666 -14 q 272 76 379 -14 q 137 326 165 166 l 44 326 l 44 447 l 124 447 q 122 488 122 462 l 123 524 l 44 524 l 44 644 l 134 644 q 269 903 160 808 q 544 999 379 999 q 783 943 672 999 l 717 786 q 629 818 670 807 q 544 830 588 830 "},"ҽ":{"x_min":0,"x_max":933.3125,"ha":993,"o":"m 226 465 q 343 693 248 614 q 586 773 437 773 q 841 681 750 773 q 933 427 933 590 l 933 327 l 429 327 q 483 189 432 239 q 625 139 533 139 q 760 154 697 139 q 890 199 824 169 l 890 39 q 773 0 837 13 q 617 -14 708 -14 q 338 74 442 -14 q 222 327 235 163 q 0 479 0 327 q 27 591 0 544 l 166 591 q 149 517 149 553 q 215 465 149 465 l 226 465 m 587 625 q 481 586 523 625 q 433 465 439 547 l 739 465 q 697 583 737 541 q 587 625 657 625 "},"в":{"x_min":108.515625,"x_max":832.375,"ha":888,"o":"m 808 559 q 770 454 808 498 q 657 399 731 411 l 657 394 q 785 338 738 384 q 832 226 832 293 q 745 57 832 115 q 497 0 658 0 l 108 0 l 108 758 l 497 758 q 730 707 653 758 q 808 559 808 656 m 618 237 q 583 301 618 281 q 479 321 548 321 l 315 321 l 315 143 l 483 143 q 583 167 549 143 q 618 237 618 192 m 599 542 q 489 612 599 612 l 315 612 l 315 462 l 465 462 q 565 481 531 462 q 599 542 599 500 "},"Η":{"x_min":124.796875,"x_max":937.515625,"ha":1063,"o":"m 937 0 l 727 0 l 727 428 l 335 428 l 335 0 l 124 0 l 124 992 l 335 992 l 335 603 l 727 603 l 727 992 l 937 992 l 937 0 "},"С":{"x_min":80.703125,"x_max":836.171875,"ha":885,"o":"m 545 831 q 362 741 427 831 q 297 492 297 652 q 545 160 297 160 q 798 213 650 160 l 798 36 q 526 -14 676 -14 q 195 117 309 -14 q 80 494 80 248 q 136 765 80 649 q 298 943 193 881 q 545 1006 404 1006 q 836 936 690 1006 l 768 765 q 656 811 712 791 q 545 831 600 831 "},"ß":{"x_min":108.515625,"x_max":939.15625,"ha":988,"o":"m 847 841 q 833 765 847 798 q 797 706 819 732 q 750 661 775 680 q 703 625 725 641 q 667 594 681 609 q 653 565 653 580 q 671 529 653 547 q 734 484 689 511 q 868 389 833 423 q 921 315 904 356 q 939 220 939 273 q 860 45 939 104 q 626 -14 781 -14 q 510 -4 559 -14 q 421 28 462 5 l 421 192 q 513 151 457 168 q 612 134 569 134 q 726 218 726 134 q 716 263 726 245 q 677 300 705 280 q 599 349 649 321 q 480 439 513 398 q 447 534 447 479 q 470 613 447 577 q 542 683 494 649 q 615 747 594 720 q 636 805 636 774 q 593 874 636 846 q 482 901 550 901 q 359 865 403 901 q 315 765 315 830 l 315 0 l 108 0 l 108 772 q 207 986 108 909 q 482 1063 307 1063 q 747 1002 648 1063 q 847 841 847 942 "},"њ":{"x_min":108.515625,"x_max":1185.171875,"ha":1234,"o":"m 758 465 l 854 465 q 1104 409 1023 465 q 1185 241 1185 353 q 858 0 1185 0 l 551 0 l 551 312 l 315 312 l 315 0 l 108 0 l 108 758 l 315 758 l 315 466 l 551 466 l 551 758 l 758 758 l 758 465 m 978 238 q 945 302 978 282 q 845 321 911 321 l 758 321 l 758 143 l 848 143 q 978 238 978 143 "},"Ể":{"x_min":124.796875,"x_max":799.625,"ha":778,"o":"m 695 0 l 124 0 l 124 992 l 695 992 l 695 819 l 335 819 l 335 602 l 670 602 l 670 429 l 335 429 l 335 173 l 695 173 l 695 0 m 799 1335 q 714 1241 799 1258 l 710 1200 l 624 1200 l 617 1278 q 677 1290 655 1280 q 699 1320 699 1301 q 687 1345 699 1335 q 645 1355 674 1355 q 596 1348 621 1355 l 596 1434 q 659 1439 611 1439 q 761 1414 722 1439 q 799 1335 799 1390 m 663 1071 l 554 1071 q 411 1183 478 1121 q 267 1071 333 1115 l 158 1071 l 158 1089 q 303 1279 233 1177 l 517 1279 q 599 1168 553 1226 q 663 1089 644 1110 l 663 1071 "},"Ӓ":{"x_min":0,"x_max":958,"ha":958,"o":"m 731 0 l 659 236 l 298 236 l 226 0 l 0 0 l 349 996 l 606 996 l 958 0 l 731 0 m 609 413 q 497 775 509 733 q 479 842 484 817 q 351 413 456 755 l 609 413 m 247 1182 q 272 1250 247 1226 q 341 1273 298 1273 q 411 1248 386 1273 q 437 1182 437 1223 q 411 1116 437 1141 q 341 1092 385 1092 q 272 1115 298 1092 q 247 1182 247 1139 m 520 1182 q 547 1251 520 1229 q 615 1273 575 1273 q 686 1249 659 1273 q 712 1182 712 1224 q 685 1116 712 1140 q 615 1092 659 1092 q 547 1114 575 1092 q 520 1182 520 1136 "},"ẳ":{"x_min":58.328125,"x_max":734.546875,"ha":839,"o":"m 590 0 l 550 102 l 544 102 q 437 11 492 36 q 293 -14 381 -14 q 121 48 183 -14 q 58 226 58 110 q 142 404 58 347 q 397 467 227 461 l 529 472 l 529 505 q 411 620 529 620 q 197 565 320 620 l 128 705 q 419 774 259 774 q 653 707 571 774 q 734 505 734 641 l 734 0 l 590 0 m 529 351 l 449 348 q 314 315 358 345 q 270 224 270 286 q 371 137 270 137 q 485 178 442 137 q 529 288 529 220 l 529 351 m 519 1128 q 503 1071 519 1093 q 449 1036 486 1049 l 445 1009 l 372 1009 l 366 1083 q 413 1097 400 1089 q 427 1123 427 1106 q 387 1150 427 1150 q 331 1145 351 1150 l 331 1215 q 393 1220 346 1220 q 486 1197 452 1220 q 519 1128 519 1174 m 277 1071 q 321 988 282 1020 q 420 955 359 955 q 519 985 482 955 q 563 1071 557 1014 l 664 1071 q 595 899 658 957 q 421 842 532 842 q 246 902 312 842 q 172 1071 180 963 l 277 1071 "},"Ű":{"x_min":118.015625,"x_max":931.984375,"ha":1050,"o":"m 931 992 l 931 349 q 882 157 931 239 q 740 30 833 74 q 520 -14 647 -14 q 223 84 329 -14 q 118 352 118 182 l 118 992 l 327 992 l 327 384 q 373 215 327 269 q 526 162 419 162 q 675 216 629 162 q 722 385 722 270 l 722 992 l 931 992 m 298 1071 l 298 1089 q 378 1206 340 1146 q 430 1293 416 1265 l 634 1293 l 634 1278 q 535 1175 612 1242 q 408 1071 458 1107 l 298 1071 m 567 1071 l 567 1089 q 700 1293 662 1219 l 904 1293 l 904 1278 q 819 1187 887 1249 q 677 1071 750 1125 l 567 1071 "},"c":{"x_min":62.390625,"x_max":670.59375,"ha":714,"o":"m 416 -14 q 62 375 62 -14 q 158 670 62 568 q 434 773 254 773 q 670 721 566 773 l 609 561 q 518 593 560 581 q 434 606 476 606 q 273 376 273 606 q 434 153 273 153 q 545 169 494 153 q 646 219 596 185 l 646 42 q 545 -1 596 10 q 416 -14 494 -14 "},"¶":{"x_min":76.78125,"x_max":791.859375,"ha":910,"o":"m 791 -176 l 682 -176 l 682 919 l 570 919 l 570 -176 l 460 -176 l 460 379 q 361 367 418 367 q 145 451 214 367 q 76 706 76 536 q 150 968 76 882 q 382 1055 224 1055 l 791 1055 l 791 -176 "},"Ή":{"x_min":-67.421875,"x_max":1034.515625,"ha":1160,"o":"m 1034 0 l 824 0 l 824 428 l 432 428 l 432 0 l 221 0 l 221 992 l 432 992 l 432 603 l 824 603 l 824 992 l 1034 992 l 1034 0 m -67 790 q -37 901 -55 826 q -11 1033 -19 976 l 180 1033 l 180 1016 q 53 769 127 890 l -67 769 l -67 790 "},"Ὅ":{"x_min":-270.078125,"x_max":1081.296875,"ha":1161,"o":"m 1081 496 q 959 118 1081 250 q 609 -14 837 -14 q 258 118 381 -14 q 136 498 136 250 q 259 876 136 745 q 610 1007 381 1007 q 960 875 839 1007 q 1081 496 1081 743 m 357 496 q 420 246 357 330 q 609 162 483 162 q 860 496 860 162 q 610 832 860 832 q 420 747 484 832 q 357 496 357 663 m -270 858 q -218 952 -270 914 q -71 1003 -166 990 l -71 952 q -144 925 -120 937 q -167 893 -167 912 q -155 874 -167 880 q -127 862 -142 868 q -99 848 -112 857 q -86 820 -86 839 q -108 780 -86 795 q -174 765 -129 765 q -244 790 -219 765 q -270 858 -270 815 m -35 788 l -22 834 q 20 993 5 933 l 197 993 l 197 979 q 57 771 169 915 l -35 771 l -35 788 "},"Ụ":{"x_min":118.015625,"x_max":931.984375,"ha":1050,"o":"m 931 992 l 931 349 q 882 157 931 239 q 740 30 833 74 q 520 -14 647 -14 q 223 84 329 -14 q 118 352 118 182 l 118 992 l 327 992 l 327 384 q 373 215 327 269 q 526 162 419 162 q 675 216 629 162 q 722 385 722 270 l 722 992 l 931 992 m 412 -190 q 525 -89 412 -89 q 637 -190 637 -89 q 609 -265 637 -238 q 525 -291 580 -291 q 412 -190 412 -291 "},"γ":{"x_min":1.359375,"x_max":789,"ha":789,"o":"m 441 -334 l 222 -334 q 241 -178 222 -275 q 290 8 260 -81 l 1 758 l 216 758 l 327 423 q 364 299 341 381 q 396 168 386 217 l 400 168 q 422 275 402 198 q 462 413 441 353 l 574 758 l 789 758 l 508 12 q 459 -161 478 -66 q 441 -334 441 -257 "},"­":{"x_min":41.375,"x_max":405.625,"ha":447,"o":"m 41 287 l 41 457 l 405 457 l 405 287 l 41 287 "},"ѫ":{"x_min":13.5625,"x_max":850.765625,"ha":865,"o":"m 13 0 l 92 234 q 162 368 119 319 q 266 439 204 417 l 70 686 l 70 758 l 799 758 l 799 686 l 601 437 q 702 367 661 415 q 772 234 743 318 l 850 0 l 675 0 l 612 200 q 575 274 594 252 q 524 304 556 297 l 524 0 l 345 0 l 345 306 q 288 276 309 299 q 252 200 268 253 l 189 0 l 13 0 m 433 465 l 555 617 l 312 617 l 433 465 "},":":{"x_min":79.359375,"x_max":316.734375,"ha":396,"o":"m 79 97 q 109 183 79 154 q 198 212 140 212 q 285 182 255 212 q 316 97 316 152 q 285 12 316 43 q 198 -18 254 -18 q 110 12 141 -18 q 79 97 79 42 m 79 657 q 109 743 79 714 q 198 773 140 773 q 285 743 255 773 q 316 657 316 713 q 285 572 316 602 q 198 542 253 542 q 110 572 141 542 q 79 657 79 602 "},"Ѝ":{"x_min":124.796875,"x_max":1017.53125,"ha":1143,"o":"m 124 992 l 314 992 l 314 512 l 311 384 l 304 238 l 308 238 l 765 992 l 1017 992 l 1017 0 l 830 0 l 830 476 q 842 759 830 571 l 837 759 l 377 0 l 124 0 l 124 992 m 536 1071 q 411 1167 493 1100 q 282 1278 328 1234 l 282 1293 l 514 1293 q 673 1089 556 1224 l 673 1071 l 536 1071 "},"₫":{"x_min":62.390625,"x_max":875.90625,"ha":901,"o":"m 341 -14 q 136 83 211 -14 q 62 356 62 181 q 129 638 62 547 q 348 730 196 730 q 478 701 421 730 q 572 618 536 673 l 578 618 q 563 776 563 707 l 563 811 l 349 811 l 349 946 l 563 946 l 563 1055 l 770 1055 l 770 946 l 875 946 l 875 811 l 770 811 l 770 0 l 602 0 l 559 97 l 551 97 q 341 -14 480 -14 m 429 150 q 539 192 503 150 q 577 335 574 234 l 577 354 q 543 518 577 474 q 418 561 509 561 q 315 515 343 561 q 287 353 287 468 q 321 201 287 252 q 429 150 355 150 m 720 -220 l 144 -220 l 144 -125 l 720 -125 l 720 -220 "},"ś":{"x_min":62.390625,"x_max":637.09375,"ha":690,"o":"m 637 224 q 556 47 637 108 q 313 -14 475 -14 q 172 -2 231 -14 q 63 30 114 8 l 63 201 q 193 155 121 173 q 320 137 265 137 q 432 202 432 137 q 418 242 432 226 q 366 276 403 257 q 269 322 329 296 q 140 390 181 358 q 81 461 99 421 q 62 561 62 502 q 140 717 62 662 q 362 773 218 773 q 628 713 499 773 l 566 564 q 460 604 509 588 q 359 619 410 619 q 267 570 267 619 q 297 521 267 542 q 426 461 326 501 q 556 394 515 425 q 617 322 597 362 q 637 224 637 281 m 232 842 l 232 860 q 391 1064 348 995 l 623 1064 l 623 1049 q 503 945 588 1014 q 369 842 417 875 l 232 842 "},"ӄ":{"x_min":108.515625,"x_max":862.390625,"ha":918,"o":"m 862 46 q 821 -161 862 -75 q 704 -294 780 -248 q 527 -340 628 -340 q 354 -305 431 -340 l 354 -127 q 425 -153 384 -143 q 499 -163 466 -163 q 620 -107 578 -163 q 663 49 663 -51 q 610 202 663 149 q 452 255 556 255 q 377 248 419 255 q 315 233 336 241 l 315 0 l 108 0 l 108 758 l 315 758 l 315 423 l 609 758 l 842 758 l 522 419 q 769 319 677 419 q 862 46 862 220 "}," ":{"x_min":0,"x_max":0,"ha":361},"У":{"x_min":0,"x_max":907,"ha":907,"o":"m 907 992 l 600 290 q 492 100 542 157 q 372 14 441 42 q 204 -14 303 -14 q 46 6 119 -14 l 46 186 q 194 162 105 162 q 285 188 251 162 q 343 279 320 214 l 0 992 l 222 992 l 466 438 l 473 438 l 485 472 l 690 992 l 907 992 "},"ү":{"x_min":0,"x_max":798,"ha":798,"o":"m 502 -334 l 294 -334 l 294 0 l 0 758 l 227 758 l 347 416 q 386 269 365 366 l 394 229 l 403 229 q 450 416 427 351 l 571 758 l 798 758 l 502 0 l 502 -334 "},"¾":{"x_min":61,"x_max":1160.84375,"ha":1224,"o":"m 472 846 q 357 712 472 749 l 357 703 q 456 652 420 690 q 491 562 491 615 q 431 433 491 480 q 246 386 372 386 q 61 433 149 386 l 61 562 q 244 501 161 501 q 341 573 341 501 q 311 627 341 609 q 229 645 281 645 l 153 645 l 153 754 l 215 754 q 299 771 271 754 q 326 827 326 789 q 309 870 326 853 q 258 887 292 887 q 197 874 226 887 q 130 834 169 861 l 62 930 q 155 982 104 961 q 276 1004 206 1004 q 417 960 362 1004 q 472 846 472 917 m 977 992 l 427 0 l 265 0 l 815 992 l 977 992 m 1160 103 l 1076 103 l 1076 0 l 914 0 l 914 103 l 655 103 l 655 207 l 916 599 l 1076 599 l 1076 217 l 1160 217 l 1160 103 m 914 217 l 914 328 q 918 453 914 386 q 894 398 912 435 q 866 346 876 362 l 780 217 l 914 217 "},"Ί":{"x_min":-67.421875,"x_max":506.09375,"ha":711,"o":"m 295 0 l 295 992 l 506 992 l 506 0 l 295 0 m -67 792 q -37 903 -55 828 q -11 1035 -19 978 l 180 1035 l 180 1018 q 53 771 127 892 l -67 771 l -67 792 "},"ŉ":{"x_min":3.953125,"x_max":978.546875,"ha":1082,"o":"m 978 0 l 771 0 l 771 443 q 742 566 771 525 q 649 607 713 607 q 524 549 562 607 q 485 357 485 491 l 485 0 l 278 0 l 278 758 l 436 758 l 464 661 l 475 661 q 571 744 510 716 q 709 773 631 773 q 910 701 841 773 q 978 494 978 629 l 978 0 m 262 992 l 271 977 q 152 652 237 843 l 3 652 q 71 992 50 852 l 262 992 "},"⁶":{"x_min":30.5,"x_max":494.140625,"ha":526,"o":"m 494 594 q 434 440 494 497 q 270 383 375 383 q 96 447 163 383 q 30 619 30 512 q 401 1014 30 902 l 446 904 q 266 823 328 868 q 187 719 204 778 l 194 719 q 245 765 215 749 q 326 781 275 781 q 449 733 404 781 q 494 594 494 685 m 260 503 q 321 527 300 503 q 342 594 342 552 q 322 654 342 631 q 263 677 302 677 q 176 605 176 677 q 199 532 176 560 q 260 503 222 503 "},"Ѭ":{"x_min":124.796875,"x_max":1463.1875,"ha":1491,"o":"m 401 0 l 504 307 q 568 428 534 393 l 335 428 l 335 0 l 124 0 l 124 992 l 335 992 l 335 603 l 728 603 l 493 897 l 493 992 l 1375 992 l 1375 897 l 1115 579 q 1264 489 1207 553 q 1360 307 1321 424 l 1463 0 l 1251 0 l 1168 260 q 1111 378 1140 345 q 1037 423 1083 412 l 1037 0 l 829 0 l 829 423 q 752 378 781 412 q 696 260 723 344 l 612 0 l 401 0 m 932 604 l 1104 817 l 761 817 l 932 604 m 374 0 l 374 0 "},"Ģ":{"x_min":80.703125,"x_max":894.734375,"ha":1006,"o":"m 501 557 l 894 557 l 894 42 q 714 -1 799 11 q 541 -14 630 -14 q 199 117 317 -14 q 80 497 80 249 q 218 871 80 737 q 598 1006 355 1006 q 893 944 751 1006 l 823 776 q 597 831 714 831 q 379 739 461 831 q 297 492 297 647 q 363 246 297 331 q 555 160 429 160 q 689 174 621 160 l 689 382 l 501 382 l 501 557 m 426 -288 q 449 -191 436 -255 q 468 -85 463 -128 l 659 -85 l 659 -98 q 547 -307 609 -212 l 426 -307 l 426 -288 "},"m":{"x_min":108.515625,"x_max":1260.234375,"ha":1364,"o":"m 787 0 l 580 0 l 580 443 q 553 566 580 525 q 466 607 525 607 q 351 549 387 607 q 315 357 315 490 l 315 0 l 108 0 l 108 758 l 266 758 l 294 661 l 305 661 q 394 743 336 713 q 526 773 451 773 q 756 661 696 773 l 775 661 q 865 743 805 714 q 999 773 924 773 q 1194 706 1127 773 q 1260 494 1260 640 l 1260 0 l 1052 0 l 1052 443 q 1025 566 1052 525 q 938 607 997 607 q 825 553 862 607 q 787 380 787 498 l 787 0 "},"Ị":{"x_min":116.671875,"x_max":341.84375,"ha":460,"o":"m 124 0 l 124 992 l 335 992 l 335 0 l 124 0 m 116 -190 q 229 -89 116 -89 q 341 -190 341 -89 q 313 -265 341 -238 q 229 -291 284 -291 q 116 -190 116 -291 "},"Ҏ":{"x_min":124.796875,"x_max":809.609375,"ha":872,"o":"m 809 682 q 777 527 809 595 q 682 416 745 458 l 741 331 l 638 256 l 560 367 q 425 353 502 353 l 335 353 l 335 0 l 124 0 l 124 992 l 441 992 q 715 914 621 992 q 809 682 809 836 m 335 525 l 433 525 l 448 526 l 409 582 l 513 657 l 569 578 q 597 675 597 614 q 557 784 597 749 q 430 819 516 819 l 335 819 l 335 525 "},"Е":{"x_min":124.796875,"x_max":695.9375,"ha":778,"o":"m 695 0 l 124 0 l 124 992 l 695 992 l 695 819 l 335 819 l 335 602 l 670 602 l 670 429 l 335 429 l 335 173 l 695 173 l 695 0 "},"ž":{"x_min":37.296875,"x_max":645.515625,"ha":678,"o":"m 636 0 l 37 0 l 37 122 l 389 599 l 58 599 l 58 758 l 624 758 l 624 623 l 282 158 l 636 158 l 636 0 m 645 1064 l 645 1045 q 540 932 588 988 q 471 842 492 875 l 229 842 q 173 918 210 873 q 56 1045 136 962 l 56 1064 l 193 1064 q 349 945 293 1001 q 507 1064 406 1003 l 645 1064 "},"⁵":{"x_min":56.9375,"x_max":484.65625,"ha":526,"o":"m 269 781 q 425 730 366 781 q 484 593 484 679 q 420 440 484 494 q 231 386 355 386 q 56 421 124 386 l 56 551 q 135 515 90 529 q 218 501 180 501 q 334 590 334 501 q 305 654 334 633 q 220 676 275 676 q 140 664 178 676 l 66 693 l 91 992 l 443 992 l 443 867 l 202 867 l 191 775 q 269 781 229 781 "},"ớ":{"x_min":62.390625,"x_max":1007.171875,"ha":943,"o":"m 797 380 q 699 90 797 195 q 427 -14 602 -14 q 235 33 318 -14 q 107 171 151 81 q 62 380 62 261 q 159 669 62 566 q 432 773 256 773 q 575 749 508 773 q 691 679 643 726 q 792 873 792 709 l 997 873 l 1007 858 q 959 713 988 767 q 881 624 929 660 q 762 570 833 587 q 797 380 797 485 m 273 380 q 310 209 273 267 q 430 152 347 152 q 549 209 513 152 q 586 380 586 267 q 549 549 586 493 q 429 606 512 606 q 309 550 346 606 q 273 380 273 494 m 860 0 l 860 0 m 310 842 l 310 860 q 469 1064 426 995 l 701 1064 l 701 1049 q 581 945 666 1014 q 447 842 495 875 l 310 842 "},"á":{"x_min":58.328125,"x_max":734.546875,"ha":839,"o":"m 590 0 l 550 102 l 544 102 q 437 11 492 36 q 293 -14 381 -14 q 121 48 183 -14 q 58 226 58 110 q 142 404 58 347 q 397 467 227 461 l 529 472 l 529 505 q 411 620 529 620 q 197 565 320 620 l 128 705 q 419 774 259 774 q 653 707 571 774 q 734 505 734 641 l 734 0 l 590 0 m 529 351 l 449 348 q 314 315 358 345 q 270 224 270 286 q 371 137 270 137 q 485 178 442 137 q 529 288 529 220 l 529 351 m 299 842 l 299 860 q 458 1064 415 995 l 690 1064 l 690 1049 q 570 945 655 1014 q 436 842 484 875 l 299 842 "},"Ӻ":{"x_min":31.875,"x_max":749.203125,"ha":777,"o":"m 749 992 l 749 819 l 335 819 l 335 577 l 607 577 l 607 404 l 335 404 l 335 0 l 124 0 l 124 404 l 31 404 l 31 577 l 124 577 l 124 992 l 749 992 m 296 -336 q 171 -319 228 -336 l 171 -156 q 251 -169 211 -169 q 335 -53 335 -169 l 335 206 l 535 206 l 535 -84 q 473 -270 535 -204 q 296 -336 411 -336 "},"×":{"x_min":87.5625,"x_max":705.4375,"ha":793,"o":"m 290 490 l 87 694 l 190 799 l 394 596 l 601 799 l 705 697 l 498 490 l 702 285 l 601 181 l 394 386 l 190 183 l 88 286 l 290 490 "},"Ӱ":{"x_min":0,"x_max":907,"ha":907,"o":"m 907 992 l 600 290 q 492 100 542 157 q 372 14 441 42 q 204 -14 303 -14 q 46 6 119 -14 l 46 186 q 194 162 105 162 q 285 188 251 162 q 343 279 320 214 l 0 992 l 222 992 l 466 438 l 473 438 l 485 472 l 690 992 l 907 992 m 222 1182 q 247 1250 222 1226 q 316 1273 273 1273 q 386 1248 361 1273 q 412 1182 412 1223 q 386 1116 412 1141 q 316 1092 360 1092 q 247 1115 273 1092 q 222 1182 222 1139 m 495 1182 q 522 1251 495 1229 q 590 1273 550 1273 q 661 1249 634 1273 q 687 1182 687 1224 q 660 1116 687 1140 q 590 1092 634 1092 q 522 1114 550 1092 q 495 1182 495 1136 "},"ӆ":{"x_min":0,"x_max":990.265625,"ha":1010,"o":"m 787 151 l 990 151 l 891 -272 l 694 -272 l 787 0 l 580 0 l 580 602 l 390 602 q 337 223 368 348 q 254 41 305 97 q 118 -14 202 -14 q 0 7 46 -14 l 0 173 q 66 159 33 159 q 131 215 105 159 q 178 400 157 270 q 213 758 198 530 l 787 758 l 787 151 m 896 0 l 896 0 "},"п":{"x_min":108.515625,"x_max":797.171875,"ha":905,"o":"m 797 758 l 797 0 l 589 0 l 589 602 l 315 602 l 315 0 l 108 0 l 108 758 l 797 758 "},"Ǻ":{"x_min":0,"x_max":958,"ha":958,"o":"m 649 991 q 617 891 649 933 l 958 0 l 732 0 l 660 223 l 298 223 l 225 0 l 0 0 l 338 891 q 309 990 309 931 q 355 1107 309 1064 q 477 1151 402 1151 q 600 1107 551 1151 q 649 991 649 1063 m 616 400 l 547 596 q 479 798 488 752 q 420 617 466 750 l 344 400 l 616 400 m 395 1188 l 395 1199 q 463 1268 427 1227 q 513 1330 499 1309 l 745 1330 l 745 1321 q 668 1265 730 1304 q 532 1188 606 1225 l 395 1188 m 543 990 q 524 1037 543 1020 q 477 1055 506 1055 q 430 1037 449 1055 q 412 990 412 1020 q 470 925 412 927 l 483 925 q 526 943 509 926 q 543 990 543 960 "},"K":{"x_min":124.796875,"x_max":922,"ha":922,"o":"m 922 0 l 683 0 l 423 418 l 335 354 l 335 0 l 124 0 l 124 992 l 335 992 l 335 538 l 417 654 l 685 992 l 919 992 l 573 553 l 922 0 "},"7":{"x_min":37.3125,"x_max":748.90625,"ha":793,"o":"m 154 0 l 526 813 l 37 813 l 37 990 l 748 990 l 748 858 l 373 0 l 154 0 "},"¨":{"x_min":189.21875,"x_max":654.15625,"ha":843,"o":"m 189 953 q 214 1021 189 997 q 283 1044 240 1044 q 353 1019 328 1044 q 379 953 379 994 q 353 887 379 912 q 283 863 327 863 q 214 886 240 863 q 189 953 189 910 m 462 953 q 489 1022 462 1000 q 557 1044 517 1044 q 628 1020 601 1044 q 654 953 654 995 q 627 887 654 911 q 557 863 601 863 q 489 885 517 863 q 462 953 462 907 "},"Y":{"x_min":0.09375,"x_max":866.859375,"ha":867,"o":"m 433 583 l 640 992 l 866 992 l 537 386 l 537 0 l 329 0 l 329 379 l 0 992 l 227 992 l 433 583 "},"E":{"x_min":124.796875,"x_max":695.9375,"ha":778,"o":"m 695 0 l 124 0 l 124 992 l 695 992 l 695 819 l 335 819 l 335 602 l 670 602 l 670 429 l 335 429 l 335 173 l 695 173 l 695 0 "},"Ô":{"x_min":80.703125,"x_max":1025.296875,"ha":1106,"o":"m 1025 496 q 903 118 1025 250 q 553 -14 781 -14 q 202 118 325 -14 q 80 498 80 250 q 203 876 80 745 q 554 1007 325 1007 q 904 875 783 1007 q 1025 496 1025 743 m 301 496 q 364 246 301 330 q 553 162 427 162 q 804 496 804 162 q 554 832 804 832 q 364 747 428 832 q 301 496 301 663 m 709 1071 q 551 1189 603 1133 q 395 1071 498 1135 l 258 1071 l 258 1089 q 431 1293 386 1217 l 673 1293 q 746 1197 694 1257 q 847 1089 798 1136 l 847 1071 l 709 1071 "},"ổ":{"x_min":62.390625,"x_max":813.625,"ha":860,"o":"m 273 380 q 310 209 273 267 q 430 152 347 152 q 549 209 513 152 q 586 380 586 267 q 549 549 586 493 q 429 606 512 606 q 309 550 346 606 q 273 380 273 494 m 797 380 q 699 90 797 195 q 427 -14 602 -14 q 235 33 318 -14 q 107 171 151 81 q 62 380 62 261 q 159 669 62 566 q 432 773 256 773 q 624 725 541 773 q 752 588 708 677 q 797 380 797 500 m 813 1106 q 728 1012 813 1029 l 724 971 l 638 971 l 631 1049 q 691 1061 669 1051 q 713 1091 713 1072 q 701 1116 713 1106 q 659 1126 688 1126 q 610 1119 635 1126 l 610 1205 q 673 1210 625 1210 q 775 1185 736 1210 q 813 1106 813 1161 m 677 842 l 568 842 q 425 954 492 892 q 281 842 347 886 l 172 842 l 172 860 q 317 1050 247 948 l 531 1050 q 613 939 567 997 q 677 860 658 881 l 677 842 "},"Є":{"x_min":80.703125,"x_max":891.84375,"ha":940,"o":"m 571 831 q 383 766 455 831 q 302 586 310 701 l 731 586 l 731 413 l 301 413 q 378 226 309 292 q 573 160 446 160 q 854 213 689 160 l 854 36 q 713 -2 782 9 q 560 -14 643 -14 q 204 117 327 -14 q 80 494 80 248 q 141 764 80 648 q 314 943 201 881 q 580 1006 427 1006 q 743 987 668 1006 q 891 936 818 968 l 816 765 l 757 790 q 571 831 661 831 "},"Ï":{"x_min":-1.78125,"x_max":463.15625,"ha":460,"o":"m 124 0 l 124 992 l 335 992 l 335 0 l 124 0 m -1 1182 q 23 1250 -1 1226 q 92 1273 49 1273 q 162 1248 137 1273 q 188 1182 188 1223 q 162 1116 188 1141 q 92 1092 136 1092 q 23 1115 49 1092 q -1 1182 -1 1139 m 271 1182 q 298 1251 271 1229 q 366 1273 326 1273 q 437 1249 410 1273 q 463 1182 463 1224 q 436 1116 463 1140 q 366 1092 410 1092 q 298 1114 326 1092 q 271 1182 271 1136 "},"Ѷ":{"x_min":0,"x_max":981.078125,"ha":996,"o":"m 913 825 q 860 800 882 825 q 810 696 838 776 l 565 0 l 336 0 l 0 992 l 212 992 l 408 375 q 451 172 437 266 q 500 374 463 259 l 615 727 q 684 896 652 843 q 755 974 715 949 q 854 1000 796 1000 q 981 973 933 1000 l 981 809 q 913 825 946 825 m 595 1071 q 479 1172 553 1104 q 382 1278 405 1241 l 382 1293 l 586 1293 q 642 1185 608 1244 q 704 1089 676 1127 l 704 1071 l 595 1071 m 325 1071 q 204 1177 275 1109 q 113 1278 134 1244 l 113 1293 l 317 1293 q 373 1185 339 1244 q 435 1089 407 1127 l 435 1071 l 325 1071 "},"ġ":{"x_min":4.0625,"x_max":768.71875,"ha":785,"o":"m 768 759 l 768 653 l 650 623 q 682 508 682 572 q 597 318 682 386 q 360 250 512 250 l 323 252 l 293 255 q 261 201 261 230 q 375 156 261 156 l 504 156 q 694 102 628 156 q 759 -54 759 49 q 648 -260 759 -187 q 330 -334 538 -334 q 87 -278 171 -334 q 4 -123 4 -223 q 46 -9 4 -55 q 172 56 89 36 q 116 100 140 70 q 92 166 92 131 q 118 238 92 209 q 190 295 143 267 q 95 378 130 321 q 61 512 61 435 q 141 705 61 637 q 372 773 222 773 q 448 767 404 773 q 504 759 491 761 l 768 759 m 183 -107 q 224 -174 183 -150 q 339 -199 265 -199 q 513 -168 450 -199 q 576 -85 576 -138 q 539 -26 576 -42 q 424 -10 502 -10 l 316 -10 q 221 -36 259 -10 q 183 -107 183 -63 m 258 510 q 286 412 258 448 q 372 376 314 376 q 458 412 430 376 q 485 510 485 448 q 372 647 485 647 q 258 510 258 647 m 278 954 q 391 1055 278 1055 q 503 954 503 1055 q 475 879 503 906 q 391 853 447 853 q 278 954 278 853 "},"Ẳ":{"x_min":0,"x_max":958,"ha":958,"o":"m 731 0 l 659 236 l 298 236 l 226 0 l 0 0 l 349 996 l 606 996 l 958 0 l 731 0 m 609 413 q 497 775 509 733 q 479 842 484 817 q 351 413 456 755 l 609 413 m 580 1357 q 564 1300 580 1322 q 510 1265 547 1278 l 506 1238 l 433 1238 l 427 1312 q 474 1326 461 1318 q 488 1352 488 1335 q 448 1379 488 1379 q 392 1374 412 1379 l 392 1444 q 454 1449 407 1449 q 547 1426 513 1449 q 580 1357 580 1403 m 338 1300 q 382 1217 343 1249 q 481 1184 420 1184 q 580 1214 543 1184 q 624 1300 618 1243 l 725 1300 q 656 1128 719 1186 q 482 1071 593 1071 q 307 1131 373 1071 q 233 1300 241 1192 l 338 1300 "},"ҕ":{"x_min":108.515625,"x_max":787.171875,"ha":836,"o":"m 787 46 q 745 -162 787 -74 q 628 -294 704 -249 q 452 -340 552 -340 q 279 -305 356 -340 l 279 -127 q 350 -153 309 -143 q 425 -163 391 -163 q 546 -108 503 -163 q 588 49 588 -53 q 375 255 588 255 q 315 251 346 255 l 315 0 l 108 0 l 108 758 l 662 758 l 662 589 l 315 589 l 315 426 q 416 435 365 435 q 608 387 523 435 q 740 251 693 340 q 787 46 787 163 "},"ứ":{"x_min":104.453125,"x_max":1119.875,"ha":1055,"o":"m 645 0 l 617 96 l 605 96 q 512 15 573 44 q 373 -14 451 -14 q 172 57 240 -14 q 104 263 104 129 l 104 758 l 311 758 l 311 314 q 340 191 311 232 q 433 150 369 150 q 558 208 520 150 q 597 401 597 266 l 597 758 l 804 758 l 804 679 q 879 743 852 693 q 905 872 905 793 l 1109 872 l 1119 857 q 1061 694 1098 751 q 962 602 1024 637 q 804 554 900 568 l 804 0 l 645 0 m 913 0 l 913 0 m 340 842 l 340 860 q 499 1064 456 995 l 731 1064 l 731 1049 q 611 945 696 1014 q 477 842 525 875 l 340 842 "},"έ":{"x_min":52.90625,"x_max":719.453125,"ha":771,"o":"m 569 467 l 569 323 l 455 323 q 306 301 356 323 q 257 230 257 279 q 438 145 257 145 q 583 160 508 145 q 718 203 657 175 l 718 38 q 423 -14 601 -14 q 148 42 243 -14 q 52 209 52 98 q 96 327 52 282 q 237 392 139 373 l 237 399 q 92 574 92 432 q 179 721 92 669 q 423 773 265 773 q 580 757 501 773 q 719 716 659 741 l 655 566 q 528 609 575 598 q 429 619 481 619 q 315 602 352 619 q 278 549 278 585 q 323 485 278 504 q 465 467 368 467 l 569 467 m 344 863 q 374 974 356 899 q 400 1106 392 1049 l 592 1106 l 592 1089 q 465 842 539 963 l 344 842 l 344 863 "},"Ấ":{"x_min":0,"x_max":958,"ha":958,"o":"m 731 0 l 659 236 l 298 236 l 226 0 l 0 0 l 349 996 l 606 996 l 958 0 l 731 0 m 609 413 q 497 775 509 733 q 479 842 484 817 q 351 413 456 755 l 609 413 m 732 1071 l 623 1071 q 480 1183 547 1121 q 336 1071 402 1115 l 227 1071 l 227 1089 q 372 1279 302 1177 l 586 1279 q 668 1168 622 1226 q 732 1089 713 1110 l 732 1071 m 672 1220 q 766 1357 730 1282 l 929 1357 l 929 1342 q 775 1203 884 1282 l 672 1203 l 672 1220 "}," ":{"x_min":0,"x_max":0,"ha":463},"ể":{"x_min":62.390625,"x_max":809.625,"ha":821,"o":"m 422 625 q 319 583 356 625 q 276 465 282 542 l 567 465 q 527 583 565 542 q 422 625 488 625 m 451 -14 q 165 87 268 -14 q 62 373 62 188 q 157 668 62 564 q 421 773 253 773 q 671 681 582 773 q 761 427 761 589 l 761 327 l 271 327 q 324 189 275 239 q 461 139 373 139 q 590 154 529 139 q 718 199 652 168 l 718 39 q 602 0 664 12 q 451 -14 540 -14 m 809 1106 q 724 1012 809 1029 l 720 971 l 634 971 l 627 1049 q 687 1061 665 1051 q 709 1091 709 1072 q 697 1116 709 1106 q 655 1126 684 1126 q 606 1119 631 1126 l 606 1205 q 669 1210 621 1210 q 771 1185 732 1210 q 809 1106 809 1161 m 673 842 l 564 842 q 421 954 488 892 q 277 842 343 886 l 168 842 l 168 860 q 313 1050 243 948 l 527 1050 q 609 939 563 997 q 673 860 654 881 l 673 842 "},"ϋ":{"x_min":96.984375,"x_max":822.0625,"ha":896,"o":"m 445 -12 q 183 75 269 -12 q 96 345 96 163 l 96 758 l 304 758 l 304 339 q 340 196 304 240 q 453 152 375 152 q 576 215 537 152 q 615 416 615 278 q 605 561 615 488 q 567 758 596 633 l 775 758 q 812 571 802 651 q 822 410 822 490 q 729 93 822 198 q 445 -12 636 -12 m 215 953 q 240 1021 215 997 q 309 1044 266 1044 q 379 1019 354 1044 q 405 953 405 994 q 379 887 405 912 q 309 863 353 863 q 240 886 266 863 q 215 953 215 910 m 488 953 q 515 1022 488 1000 q 583 1044 543 1044 q 654 1020 627 1044 q 680 953 680 995 q 653 887 680 911 q 583 863 627 863 q 515 885 543 863 q 488 953 488 907 "},"җ":{"x_min":0,"x_max":1275.40625,"ha":1308,"o":"m 510 389 l 510 758 l 702 758 l 702 389 l 972 758 l 1186 758 l 906 394 l 1094 151 l 1275 151 l 1275 -272 l 1089 -272 l 1089 0 l 991 0 l 702 384 l 702 0 l 510 0 l 510 384 l 221 0 l 0 0 l 306 394 l 26 758 l 240 758 l 510 389 m 1213 0 l 1213 0 "},"й":{"x_min":108.515625,"x_max":891.484375,"ha":1000,"o":"m 308 758 l 308 458 q 293 226 308 410 l 642 758 l 891 758 l 891 0 l 691 0 l 691 302 q 704 530 691 383 l 356 0 l 108 0 l 108 758 l 308 758 m 831 1085 q 735 900 818 958 q 496 842 652 842 q 259 897 336 842 q 172 1085 182 953 l 357 1085 q 392 986 362 1015 q 500 958 422 958 q 602 989 569 958 q 644 1085 636 1020 l 831 1085 "},"b":{"x_min":108.515625,"x_max":816.59375,"ha":879,"o":"m 530 773 q 740 668 664 773 q 816 380 816 563 q 738 89 816 192 q 524 -14 659 -14 q 315 83 391 -14 l 301 83 l 266 0 l 108 0 l 108 1055 l 315 1055 l 315 809 q 307 660 315 763 l 315 660 q 530 773 387 773 m 463 607 q 352 560 387 607 q 315 404 316 513 l 315 381 q 351 206 315 259 q 466 153 387 153 q 568 212 530 153 q 605 383 605 271 q 567 551 605 495 q 463 607 529 607 "},"̃":{"x_min":-716.625,"x_max":-154.359375,"ha":0,"o":"m -547 913 q -587 894 -568 913 q -615 840 -606 876 l -716 840 q -660 994 -709 938 q -532 1050 -612 1050 q -477 1038 -504 1050 q -424 1014 -450 1027 q -373 989 -398 1000 q -323 978 -348 978 q -283 996 -302 978 q -255 1051 -264 1014 l -154 1051 q -210 896 -161 952 q -338 841 -260 841 q -393 852 -366 841 q -446 877 -420 863 q -497 901 -472 890 q -547 913 -522 913 "},"ύ":{"x_min":96.984375,"x_max":822.0625,"ha":896,"o":"m 445 -12 q 183 75 269 -12 q 96 345 96 163 l 96 758 l 304 758 l 304 339 q 340 196 304 240 q 453 152 375 152 q 576 215 537 152 q 615 416 615 278 q 605 561 615 488 q 567 758 596 633 l 775 758 q 812 571 802 651 q 822 410 822 490 q 729 93 822 198 q 445 -12 636 -12 m 372 863 q 402 974 384 899 q 428 1106 420 1049 l 620 1106 l 620 1089 q 493 842 567 963 l 372 842 l 372 863 "},"ﬂ":{"x_min":27.859375,"x_max":853.375,"ha":961,"o":"m 527 602 l 348 602 l 348 0 l 141 0 l 141 602 l 27 602 l 27 702 l 141 758 l 141 813 q 205 1003 141 943 q 409 1063 269 1063 q 600 1031 516 1063 l 547 879 q 432 898 485 898 q 368 872 388 898 q 348 805 348 846 l 348 758 l 527 758 l 527 602 m 853 0 l 646 0 l 646 1055 l 853 1055 l 853 0 "},"ԅ":{"x_min":38.65625,"x_max":1104.546875,"ha":1209,"o":"m 273 467 q 426 486 380 467 q 472 546 472 505 q 438 601 472 583 q 326 619 403 619 q 213 607 274 619 q 99 571 153 594 l 38 716 q 193 760 120 747 q 355 773 265 773 q 575 718 493 773 q 657 571 657 664 q 515 404 657 443 l 515 397 q 676 242 676 371 q 790 159 676 159 q 874 194 849 159 q 900 305 900 228 l 900 475 l 1104 475 l 1104 258 q 1024 55 1104 124 q 790 -14 945 -14 q 555 38 640 -14 q 469 185 469 90 q 420 289 469 254 q 278 323 370 323 l 173 323 l 173 467 l 273 467 "},"ӏ":{"x_min":124.84375,"x_max":335.09375,"ha":460,"o":"m 124 0 l 124 992 l 335 992 l 335 0 l 124 0 "},"ҋ":{"x_min":108.515625,"x_max":1094.28125,"ha":1114,"o":"m 308 758 l 308 458 q 293 226 308 410 l 642 758 l 891 758 l 891 151 l 1094 151 l 995 -272 l 798 -272 l 891 0 l 691 0 l 691 302 q 704 530 691 383 l 356 0 l 108 0 l 108 758 l 308 758 m 830 1084 q 733 898 816 955 q 495 841 651 841 q 317 866 386 841 q 213 942 248 891 q 172 1084 178 993 l 356 1084 q 392 984 362 1010 q 499 957 423 957 q 603 989 569 957 q 642 1084 637 1022 l 830 1084 m 1000 0 l 1000 0 "},"ф":{"x_min":62.390625,"x_max":1068.609375,"ha":1131,"o":"m 662 762 q 960 644 852 746 q 1068 379 1068 543 q 962 111 1068 211 q 662 -5 855 10 l 662 -334 l 470 -334 l 470 -5 q 170 115 278 12 q 62 379 62 217 q 166 649 62 550 q 470 762 271 749 l 470 1055 l 662 1055 l 662 762 m 275 379 q 327 223 275 283 q 470 151 379 163 l 470 606 q 329 532 383 595 q 275 379 275 470 m 856 379 q 805 529 856 468 q 662 603 754 591 l 662 151 q 804 224 753 163 q 856 379 856 284 "},"Ŋ":{"x_min":124.796875,"x_max":1004.21875,"ha":1129,"o":"m 688 -292 q 555 -277 611 -292 l 555 -102 q 667 -115 618 -115 q 781 -84 741 -115 q 827 2 821 -53 l 305 750 l 299 750 q 312 466 312 551 l 312 0 l 124 0 l 124 992 l 389 992 l 820 387 l 825 387 l 819 489 q 814 661 814 563 l 814 992 l 1004 992 l 1004 0 q 922 -216 1004 -140 q 688 -292 840 -292 "},"Ũ":{"x_min":118.015625,"x_max":931.984375,"ha":1050,"o":"m 931 992 l 931 349 q 882 157 931 239 q 740 30 833 74 q 520 -14 647 -14 q 223 84 329 -14 q 118 352 118 182 l 118 992 l 327 992 l 327 384 q 373 215 327 269 q 526 162 419 162 q 675 216 629 162 q 722 385 722 270 l 722 992 l 931 992 m 415 1142 q 375 1123 394 1142 q 347 1069 356 1105 l 246 1069 q 302 1223 253 1167 q 430 1279 350 1279 q 485 1267 458 1279 q 538 1243 512 1256 q 589 1218 564 1229 q 639 1207 614 1207 q 679 1225 660 1207 q 707 1280 698 1243 l 808 1280 q 752 1125 801 1181 q 624 1070 702 1070 q 569 1081 596 1070 q 516 1106 542 1092 q 465 1130 490 1119 q 415 1142 440 1142 "},"Щ":{"x_min":124.796875,"x_max":1520.375,"ha":1547,"o":"m 854 174 l 1162 174 l 1162 992 l 1372 992 l 1372 166 l 1520 166 l 1520 -289 l 1317 -289 l 1317 0 l 124 0 l 124 992 l 335 992 l 335 174 l 643 174 l 643 992 l 854 992 l 854 174 m 1498 0 l 1498 0 "},"L":{"x_min":124.796875,"x_max":737.53125,"ha":785,"o":"m 124 0 l 124 992 l 335 992 l 335 173 l 737 173 l 737 0 l 124 0 "},"Ҡ":{"x_min":0,"x_max":1018,"ha":1018,"o":"m 0 992 l 431 992 l 431 538 l 514 654 l 781 992 l 1015 992 l 669 553 l 1018 0 l 779 0 l 519 418 l 431 354 l 431 0 l 221 0 l 221 817 l 0 817 l 0 992 m 96 0 l 96 0 "},"ď":{"x_min":62.390625,"x_max":1066.859375,"ha":879,"o":"m 348 -14 q 138 89 215 -14 q 62 377 62 193 q 140 668 62 564 q 354 773 217 773 q 572 661 497 773 l 579 661 q 563 812 563 746 l 563 1055 l 771 1055 l 771 0 l 612 0 l 572 98 l 563 98 q 348 -14 493 -14 m 421 150 q 537 197 500 150 q 577 354 574 243 l 577 376 q 540 551 577 498 q 417 604 502 604 q 310 546 348 604 q 271 375 271 487 q 310 206 271 262 q 421 150 349 150 m 833 850 q 856 947 843 884 q 875 1055 870 1011 l 1066 1055 l 1066 1041 q 954 833 1012 922 l 833 833 l 833 850 "},"Ο":{"x_min":80.703125,"x_max":1025.296875,"ha":1106,"o":"m 1025 496 q 903 118 1025 250 q 553 -14 781 -14 q 202 118 325 -14 q 80 498 80 250 q 203 876 80 745 q 554 1007 325 1007 q 904 875 783 1007 q 1025 496 1025 743 m 301 496 q 364 246 301 330 q 553 162 427 162 q 804 496 804 162 q 554 832 804 832 q 364 747 428 832 q 301 496 301 663 "},"Ĭ":{"x_min":-36.046875,"x_max":497.71875,"ha":460,"o":"m 124 0 l 124 992 l 335 992 l 335 0 l 124 0 m 497 1300 q 414 1133 489 1195 q 227 1071 340 1071 q 39 1132 109 1071 q -36 1300 -30 1194 l 79 1300 q 97 1249 81 1268 q 142 1223 113 1231 q 229 1215 171 1215 q 379 1300 368 1215 l 497 1300 "},"ŧ":{"x_min":31.890625,"x_max":558.234375,"ha":603,"o":"m 427 150 q 558 174 482 150 l 558 20 q 472 -5 522 3 q 372 -14 421 -14 q 188 47 246 -14 q 130 237 130 109 l 130 337 l 44 337 l 44 472 l 130 472 l 130 602 l 31 602 l 31 690 l 145 759 l 205 919 l 337 919 l 337 758 l 550 758 l 550 602 l 337 602 l 337 472 l 526 472 l 526 337 l 337 337 l 337 237 q 362 171 337 192 q 427 150 387 150 "},"À":{"x_min":0,"x_max":958,"ha":958,"o":"m 731 0 l 659 236 l 298 236 l 226 0 l 0 0 l 349 996 l 606 996 l 958 0 l 731 0 m 609 413 q 497 775 509 733 q 479 842 484 817 q 351 413 456 755 l 609 413 m 483 1071 q 358 1167 440 1100 q 229 1278 275 1234 l 229 1293 l 461 1293 q 620 1089 503 1224 l 620 1071 l 483 1071 "},"Ϊ":{"x_min":-1.78125,"x_max":463.15625,"ha":460,"o":"m 124 0 l 124 992 l 335 992 l 335 0 l 124 0 m -1 1182 q 23 1250 -1 1226 q 92 1273 49 1273 q 162 1248 137 1273 q 188 1182 188 1223 q 162 1116 188 1141 q 92 1092 136 1092 q 23 1115 49 1092 q -1 1182 -1 1139 m 271 1182 q 298 1251 271 1229 q 366 1273 326 1273 q 437 1249 410 1273 q 463 1182 463 1224 q 436 1116 463 1140 q 366 1092 410 1092 q 298 1114 326 1092 q 271 1182 271 1136 "},"ḁ":{"x_min":58.328125,"x_max":734.546875,"ha":839,"o":"m 590 0 l 550 102 l 544 102 q 437 11 492 36 q 293 -14 381 -14 q 121 48 183 -14 q 58 226 58 110 q 142 404 58 347 q 397 467 227 461 l 529 472 l 529 505 q 411 620 529 620 q 197 565 320 620 l 128 705 q 419 774 259 774 q 653 707 571 774 q 734 505 734 641 l 734 0 l 590 0 m 529 351 l 449 348 q 314 315 358 345 q 270 224 270 286 q 371 137 270 137 q 485 178 442 137 q 529 288 529 220 l 529 351 m 573 -244 q 525 -362 573 -317 q 401 -407 477 -407 q 279 -363 325 -407 q 233 -245 233 -320 q 279 -128 233 -172 q 401 -85 325 -85 q 525 -129 476 -85 q 573 -244 573 -174 m 466 -245 q 448 -197 466 -215 q 401 -180 430 -180 q 355 -197 373 -180 q 336 -245 336 -215 q 353 -293 336 -276 q 401 -311 369 -311 q 448 -293 430 -311 q 466 -245 466 -276 "},"½":{"x_min":31.25,"x_max":1163.859375,"ha":1224,"o":"m 364 397 l 203 397 l 203 700 l 205 776 l 208 840 q 158 787 190 816 l 105 746 l 31 832 l 235 992 l 364 992 l 364 397 m 929 992 l 379 0 l 217 0 l 767 992 l 929 992 m 1163 0 l 725 0 l 725 113 l 877 262 q 965 360 946 330 q 984 425 984 391 q 968 464 984 450 q 925 478 952 478 q 803 418 870 478 l 719 521 q 947 609 819 609 q 1094 563 1040 609 q 1147 439 1147 518 q 1115 330 1147 381 q 996 200 1083 279 l 925 135 l 1163 135 l 1163 0 "},"ԍ":{"x_min":62.390625,"x_max":858.59375,"ha":921,"o":"m 448 450 l 858 450 l 858 386 q 465 -14 858 -14 q 168 87 273 -14 q 62 373 62 188 q 172 669 62 566 q 486 773 282 773 q 772 714 639 773 l 710 555 q 597 592 659 579 q 487 606 536 606 q 324 549 377 606 q 271 371 271 492 q 459 149 271 149 q 597 188 547 149 q 647 295 647 228 l 448 295 l 448 450 "},"'":{"x_min":90.203125,"x_max":279.421875,"ha":370,"o":"m 279 992 l 251 634 l 118 634 l 90 992 l 279 992 "},"ĳ":{"x_min":99.703125,"x_max":721.875,"ha":821,"o":"m 99 953 q 212 1055 99 1055 q 324 953 324 1055 q 296 879 324 905 q 212 852 268 852 q 99 953 99 852 m 315 0 l 108 0 l 108 758 l 315 758 l 315 0 m 444 -334 q 308 -317 365 -334 l 308 -154 q 405 -167 355 -167 q 481 -137 457 -167 q 505 -51 505 -108 l 505 758 l 712 758 l 712 -82 q 642 -268 712 -203 q 444 -334 572 -334 m 496 953 q 609 1055 496 1055 q 721 953 721 1055 q 693 879 721 905 q 609 852 665 852 q 496 953 496 852 "},"Ҽ":{"x_min":0,"x_max":1205.765625,"ha":1317,"o":"m 760 160 q 967 192 854 160 q 1154 270 1079 224 l 1154 81 q 972 8 1069 30 q 759 -14 876 -14 q 414 101 543 -14 q 265 428 284 217 l 222 428 q 55 474 111 428 q 0 604 0 521 q 35 743 0 683 l 194 743 q 182 707 189 731 q 176 662 176 683 q 241 602 176 602 l 269 602 q 415 901 294 795 q 734 1007 535 1007 q 1088 873 970 1007 q 1205 476 1205 739 l 1205 428 l 482 428 q 562 228 491 296 q 760 160 633 160 m 734 832 q 559 771 626 832 q 484 602 493 710 l 987 602 q 925 777 987 722 q 734 832 863 832 "},"Р":{"x_min":124.796875,"x_max":809.609375,"ha":872,"o":"m 335 525 l 404 525 q 549 563 501 525 q 597 675 597 601 q 557 784 597 749 q 430 819 516 819 l 335 819 l 335 525 m 809 682 q 709 437 809 522 q 425 353 609 353 l 335 353 l 335 0 l 124 0 l 124 992 l 441 992 q 715 914 621 992 q 809 682 809 836 "},"˛":{"x_min":6.78125,"x_max":281.9375,"ha":286,"o":"m 149 -154 q 165 -196 149 -182 q 204 -209 180 -209 q 281 -197 241 -209 l 281 -318 q 176 -334 226 -334 q 53 -290 99 -334 q 6 -177 6 -247 q 32 -92 6 -132 q 128 0 58 -52 l 250 0 q 176 -81 202 -44 q 149 -154 149 -118 "},"⁷":{"x_min":40,"x_max":492.78125,"ha":526,"o":"m 104 397 l 334 867 l 40 867 l 40 992 l 492 992 l 492 890 l 275 397 l 104 397 "},"Ѿ":{"x_min":80.703125,"x_max":1430.296875,"ha":1511,"o":"m 1040 837 q 983 825 1013 837 q 906 784 952 814 l 847 930 q 940 982 887 961 q 1047 1004 992 1004 q 1329 877 1228 1004 q 1430 520 1430 750 q 1319 126 1430 266 q 1005 -14 1207 -14 q 872 10 933 -14 q 755 89 812 34 q 643 12 703 38 q 505 -14 583 -14 q 192 125 303 -14 q 80 520 80 265 q 181 876 80 749 q 463 1004 282 1004 q 571 982 518 1004 q 663 930 623 961 l 604 784 q 527 825 558 814 q 470 837 496 837 q 335 754 383 837 q 287 519 287 672 q 350 258 287 348 q 533 169 413 169 q 646 219 587 169 l 646 484 l 857 484 l 857 226 q 979 169 917 169 q 1161 258 1098 169 q 1223 519 1223 348 q 1174 754 1223 671 q 1040 837 1126 837 m 1036 1260 l 1036 1199 l 980 1082 l 943 1082 l 909 1152 l 805 1152 l 772 1082 l 734 1082 l 701 1152 l 597 1152 l 563 1082 l 526 1082 l 472 1199 l 472 1260 l 1036 1260 "},"Ć":{"x_min":80.703125,"x_max":836.171875,"ha":885,"o":"m 545 831 q 362 741 427 831 q 297 492 297 652 q 545 160 297 160 q 798 213 650 160 l 798 36 q 526 -14 676 -14 q 195 117 309 -14 q 80 494 80 248 q 136 765 80 649 q 298 943 193 881 q 545 1006 404 1006 q 836 936 690 1006 l 768 765 q 656 811 712 791 q 545 831 600 831 m 405 1071 l 405 1089 q 564 1293 521 1224 l 796 1293 l 796 1278 q 676 1174 761 1243 q 542 1071 590 1104 l 405 1071 "},"Т":{"x_min":27.671875,"x_max":776.421875,"ha":804,"o":"m 507 0 l 296 0 l 296 817 l 27 817 l 27 992 l 776 992 l 776 817 l 507 817 l 507 0 "},"£":{"x_min":55.625,"x_max":766.546875,"ha":793,"o":"m 474 1006 q 739 950 607 1006 l 676 794 q 491 837 569 837 q 410 807 438 837 q 381 721 381 777 l 381 590 l 636 590 l 636 441 l 381 441 l 381 344 q 279 176 381 229 l 766 176 l 766 0 l 55 0 l 55 168 q 151 236 125 198 q 177 343 177 275 l 177 441 l 56 441 l 56 590 l 177 590 l 177 722 q 255 932 177 858 q 474 1006 333 1006 "},"ẹ":{"x_min":62.390625,"x_max":761.3125,"ha":821,"o":"m 422 625 q 319 583 356 625 q 276 465 282 542 l 567 465 q 527 583 565 542 q 422 625 488 625 m 451 -14 q 165 87 268 -14 q 62 373 62 188 q 157 668 62 564 q 421 773 253 773 q 671 681 582 773 q 761 427 761 589 l 761 327 l 271 327 q 324 189 275 239 q 461 139 373 139 q 590 154 529 139 q 718 199 652 168 l 718 39 q 602 0 664 12 q 451 -14 540 -14 m 296 -190 q 409 -89 296 -89 q 521 -190 521 -89 q 493 -265 521 -238 q 409 -291 464 -291 q 296 -190 296 -291 "},"ů":{"x_min":104.453125,"x_max":804.484375,"ha":913,"o":"m 645 0 l 617 96 l 607 96 q 512 14 573 43 q 373 -14 451 -14 q 172 57 240 -14 q 104 263 104 129 l 104 758 l 311 758 l 311 314 q 340 191 311 232 q 433 150 369 150 q 558 208 520 150 q 597 401 597 266 l 597 758 l 804 758 l 804 0 l 645 0 m 624 1002 q 576 884 624 929 q 451 840 527 840 q 329 883 375 840 q 283 1001 283 926 q 329 1118 283 1074 q 451 1162 375 1162 q 575 1117 526 1162 q 624 1002 624 1072 m 517 1001 q 498 1049 517 1031 q 451 1066 480 1066 q 405 1049 423 1066 q 386 1001 386 1031 q 403 953 386 970 q 451 935 419 935 q 498 953 480 935 q 517 1001 517 970 "},"Ō":{"x_min":80.703125,"x_max":1025.296875,"ha":1106,"o":"m 1025 496 q 903 118 1025 250 q 553 -14 781 -14 q 202 118 325 -14 q 80 498 80 250 q 203 876 80 745 q 554 1007 325 1007 q 904 875 783 1007 q 1025 496 1025 743 m 301 496 q 364 246 301 330 q 553 162 427 162 q 804 496 804 162 q 554 832 804 832 q 364 747 428 832 q 301 496 301 663 m 323 1214 l 783 1214 l 783 1071 l 323 1071 l 323 1214 "},"а":{"x_min":58.328125,"x_max":734.546875,"ha":839,"o":"m 590 0 l 550 102 l 544 102 q 437 11 492 36 q 293 -14 381 -14 q 121 48 183 -14 q 58 226 58 110 q 142 404 58 347 q 397 467 227 461 l 529 472 l 529 505 q 411 620 529 620 q 197 565 320 620 l 128 705 q 419 774 259 774 q 653 707 571 774 q 734 505 734 641 l 734 0 l 590 0 m 529 351 l 449 348 q 314 315 358 345 q 270 224 270 286 q 371 137 270 137 q 485 178 442 137 q 529 288 529 220 l 529 351 "},"Ğ":{"x_min":80.703125,"x_max":894.734375,"ha":1006,"o":"m 501 557 l 894 557 l 894 42 q 714 -1 799 11 q 541 -14 630 -14 q 199 117 317 -14 q 80 497 80 249 q 218 871 80 737 q 598 1006 355 1006 q 893 944 751 1006 l 823 776 q 597 831 714 831 q 379 739 461 831 q 297 492 297 647 q 363 246 297 331 q 555 160 429 160 q 689 174 621 160 l 689 382 l 501 382 l 501 557 m 816 1300 q 733 1133 808 1195 q 546 1071 659 1071 q 358 1132 428 1071 q 282 1300 288 1194 l 398 1300 q 416 1249 400 1268 q 461 1223 432 1231 q 548 1215 490 1215 q 698 1300 687 1215 l 816 1300 "},"ә":{"x_min":62.390625,"x_max":775.3125,"ha":835,"o":"m 408 133 q 515 173 475 133 q 562 293 555 213 l 257 293 q 297 175 258 218 q 408 133 337 133 m 377 773 q 670 671 565 773 q 775 384 775 569 q 679 90 775 195 q 409 -14 583 -14 q 154 76 246 -14 q 62 330 62 167 l 62 431 l 567 431 q 512 568 563 519 q 371 618 461 618 q 241 605 303 618 q 105 558 178 592 l 105 718 q 229 760 165 748 q 377 773 294 773 "},"v":{"x_min":0,"x_max":790,"ha":790,"o":"m 288 0 l 0 758 l 216 758 l 362 326 q 393 170 387 244 l 397 170 q 427 326 400 235 l 573 758 l 790 758 l 501 0 l 288 0 "},"Ї":{"x_min":-1.78125,"x_max":463.15625,"ha":460,"o":"m 124 0 l 124 992 l 335 992 l 335 0 l 124 0 m -1 1182 q 23 1250 -1 1226 q 92 1273 49 1273 q 162 1248 137 1273 q 188 1182 188 1223 q 162 1116 188 1141 q 92 1092 136 1092 q 23 1115 49 1092 q -1 1182 -1 1139 m 271 1182 q 298 1251 271 1229 q 366 1273 326 1273 q 437 1249 410 1273 q 463 1182 463 1224 q 436 1116 463 1140 q 366 1092 410 1092 q 298 1114 326 1092 q 271 1182 271 1136 "},"Ѯ":{"x_min":27.8125,"x_max":818.3125,"ha":878,"o":"m 653 1205 q 736 1193 703 1205 l 736 1091 q 676 1099 718 1099 q 548 994 613 1099 q 725 908 662 971 q 787 759 787 846 q 725 601 787 664 q 555 521 663 538 l 555 517 q 749 442 680 504 q 818 281 818 379 q 703 65 818 145 q 388 -14 589 -14 q 293 -19 326 -14 q 245 -38 259 -25 q 231 -79 231 -51 q 330 -139 231 -139 q 461 -135 390 -139 l 565 -132 q 681 -160 660 -132 l 681 -315 q 639 -296 670 -304 q 572 -287 609 -287 l 449 -290 l 287 -293 q 97 -234 166 -293 q 27 -76 27 -176 q 107 93 27 40 q 361 150 187 146 q 551 187 493 153 q 610 296 610 222 q 529 397 610 362 q 291 432 449 432 l 198 432 l 198 597 l 282 597 q 511 626 439 597 q 583 726 583 656 q 538 807 583 777 q 403 837 493 837 q 133 756 262 837 l 41 897 q 159 959 97 933 q 302 997 221 985 q 148 1166 237 1077 l 148 1185 l 290 1185 q 432 1052 327 1157 q 514 1147 485 1120 q 578 1189 544 1173 q 653 1205 612 1205 "},"û":{"x_min":104.453125,"x_max":804.484375,"ha":913,"o":"m 645 0 l 617 96 l 607 96 q 512 14 573 43 q 373 -14 451 -14 q 172 57 240 -14 q 104 263 104 129 l 104 758 l 311 758 l 311 314 q 340 191 311 232 q 433 150 369 150 q 558 208 520 150 q 597 401 597 266 l 597 758 l 804 758 l 804 0 l 645 0 m 610 842 q 452 960 504 904 q 296 842 399 906 l 159 842 l 159 860 q 332 1064 287 988 l 574 1064 q 647 968 595 1028 q 748 860 699 907 l 748 842 l 610 842 "},"Ź":{"x_min":33.21875,"x_max":770.78125,"ha":804,"o":"m 770 0 l 33 0 l 33 136 l 508 818 l 46 818 l 46 992 l 757 992 l 757 856 l 283 173 l 770 173 l 770 0 m 278 1071 l 278 1089 q 437 1293 394 1224 l 669 1293 l 669 1278 q 549 1174 634 1243 q 415 1071 463 1104 l 278 1071 "},"ˉ":{"x_min":191.9375,"x_max":651.765625,"ha":843,"o":"m 191 985 l 651 985 l 651 842 l 191 842 l 191 985 "},"Ĺ":{"x_min":124.796875,"x_max":737.53125,"ha":785,"o":"m 124 0 l 124 992 l 335 992 l 335 173 l 737 173 l 737 0 l 124 0 m 181 1071 l 181 1089 q 340 1293 297 1224 l 572 1293 l 572 1278 q 452 1174 537 1243 q 318 1071 366 1104 l 181 1071 "},"ỵ":{"x_min":0,"x_max":790,"ha":790,"o":"m 0 758 l 226 758 l 369 331 q 394 199 387 275 l 398 199 q 427 331 406 269 l 568 758 l 790 758 l 469 -97 q 343 -275 425 -216 q 152 -334 261 -334 q 47 -322 99 -334 l 47 -158 q 128 -167 84 -167 q 224 -133 183 -167 q 288 -32 265 -100 l 301 5 l 0 758 m 552 -190 q 665 -89 552 -89 q 777 -190 777 -89 q 749 -265 777 -238 q 665 -291 720 -291 q 552 -190 552 -291 "},"ӻ":{"x_min":2.71875,"x_max":649.4375,"ha":682,"o":"m 649 758 l 649 589 l 302 589 l 302 443 l 527 443 l 527 283 l 302 283 l 302 0 l 95 0 l 95 283 l 2 283 l 2 443 l 95 443 l 95 758 l 649 758 m 263 -336 q 138 -319 195 -336 l 138 -156 q 218 -169 178 -169 q 302 -53 302 -169 l 302 178 l 502 178 l 502 -84 q 440 -270 502 -204 q 263 -336 378 -336 "},"₤":{"x_min":55.625,"x_max":766.546875,"ha":793,"o":"m 478 1006 q 739 950 607 1006 l 676 794 q 578 825 623 814 q 487 837 534 837 q 407 808 433 837 q 381 720 381 779 l 381 644 l 625 644 l 625 524 l 381 524 l 381 447 l 625 447 l 625 326 l 380 326 q 353 239 377 276 q 279 176 329 202 l 766 176 l 766 0 l 55 0 l 55 168 q 148 232 123 196 q 177 326 174 268 l 56 326 l 56 447 l 177 447 l 177 524 l 56 524 l 56 644 l 177 644 l 177 722 q 255 934 177 862 q 478 1006 332 1006 "},"Č":{"x_min":80.703125,"x_max":836.171875,"ha":885,"o":"m 545 831 q 362 741 427 831 q 297 492 297 652 q 545 160 297 160 q 798 213 650 160 l 798 36 q 526 -14 676 -14 q 195 117 309 -14 q 80 494 80 248 q 136 765 80 649 q 298 943 193 881 q 545 1006 404 1006 q 836 936 690 1006 l 768 765 q 656 811 712 791 q 545 831 600 831 m 832 1293 l 832 1274 q 727 1161 775 1217 q 658 1071 679 1104 l 416 1071 q 360 1147 397 1102 q 243 1274 323 1191 l 243 1293 l 380 1293 q 536 1174 480 1230 q 694 1293 593 1232 l 832 1293 "},"x":{"x_min":6.78125,"x_max":796.21875,"ha":803,"o":"m 263 387 l 19 758 l 254 758 l 401 516 l 550 758 l 784 758 l 537 387 l 796 0 l 560 0 l 401 259 l 241 0 l 6 0 l 263 387 "},"è":{"x_min":62.390625,"x_max":761.3125,"ha":821,"o":"m 422 625 q 319 583 356 625 q 276 465 282 542 l 567 465 q 527 583 565 542 q 422 625 488 625 m 451 -14 q 165 87 268 -14 q 62 373 62 188 q 157 668 62 564 q 421 773 253 773 q 671 681 582 773 q 761 427 761 589 l 761 327 l 271 327 q 324 189 275 239 q 461 139 373 139 q 590 154 529 139 q 718 199 652 168 l 718 39 q 602 0 664 12 q 451 -14 540 -14 m 420 842 q 295 938 377 871 q 166 1049 212 1005 l 166 1064 l 398 1064 q 557 860 440 995 l 557 842 l 420 842 "},"Ń":{"x_min":124.796875,"x_max":1004.21875,"ha":1129,"o":"m 1004 0 l 737 0 l 305 750 l 299 750 q 312 466 312 551 l 312 0 l 124 0 l 124 992 l 389 992 l 820 249 l 825 249 q 814 522 814 442 l 814 992 l 1004 992 l 1004 0 m 445 1071 l 445 1089 q 604 1293 561 1224 l 836 1293 l 836 1278 q 716 1174 801 1243 q 582 1071 630 1104 l 445 1071 "},"ḿ":{"x_min":108.515625,"x_max":1260.234375,"ha":1364,"o":"m 787 0 l 580 0 l 580 443 q 553 566 580 525 q 466 607 525 607 q 351 549 387 607 q 315 357 315 490 l 315 0 l 108 0 l 108 758 l 266 758 l 294 661 l 305 661 q 394 743 336 713 q 526 773 451 773 q 756 661 696 773 l 775 661 q 865 743 805 714 q 999 773 924 773 q 1194 706 1127 773 q 1260 494 1260 640 l 1260 0 l 1052 0 l 1052 443 q 1025 566 1052 525 q 938 607 997 607 q 825 553 862 607 q 787 380 787 498 l 787 0 m 560 842 l 560 860 q 719 1064 676 995 l 951 1064 l 951 1049 q 831 945 916 1014 q 697 842 745 875 l 560 842 "},"μ":{"x_min":108.515625,"x_max":808.484375,"ha":917,"o":"m 315 314 q 345 191 315 232 q 438 150 375 150 q 562 209 524 150 q 601 401 601 268 l 601 758 l 808 758 l 808 0 l 651 0 l 622 101 l 612 101 q 543 14 583 43 q 442 -14 502 -14 q 365 1 400 -14 q 308 47 330 17 l 311 -10 l 315 -117 l 315 -334 l 108 -334 l 108 758 l 315 758 l 315 314 "},".":{"x_min":79.359375,"x_max":316.734375,"ha":396,"o":"m 79 97 q 109 183 79 154 q 198 212 140 212 q 285 182 255 212 q 316 97 316 152 q 285 12 316 43 q 198 -18 254 -18 q 110 12 141 -18 q 79 97 79 42 "},"Ѡ":{"x_min":80.703125,"x_max":1430.296875,"ha":1511,"o":"m 1040 837 q 983 825 1013 837 q 906 784 952 814 l 833 930 q 936 983 876 963 q 1047 1004 996 1004 q 1329 877 1228 1004 q 1430 520 1430 750 q 1319 126 1430 266 q 1005 -14 1207 -14 q 866 10 927 -14 q 754 85 806 34 q 642 10 701 34 q 505 -14 583 -14 q 192 125 303 -14 q 80 520 80 265 q 181 876 80 749 q 463 1004 282 1004 q 573 984 514 1004 q 677 930 632 964 l 604 784 q 527 825 558 814 q 470 837 496 837 q 335 754 383 837 q 287 519 287 672 q 350 258 287 348 q 533 169 413 169 q 646 215 589 169 l 646 484 l 857 484 l 857 215 q 979 169 906 169 q 1161 258 1098 169 q 1223 519 1223 348 q 1174 754 1223 671 q 1040 837 1126 837 "},"ӑ":{"x_min":58.328125,"x_max":757.1875,"ha":839,"o":"m 590 0 l 550 102 l 544 102 q 437 11 492 36 q 293 -14 381 -14 q 121 48 183 -14 q 58 226 58 110 q 142 404 58 347 q 397 467 227 461 l 529 472 l 529 505 q 411 620 529 620 q 197 565 320 620 l 128 705 q 419 774 259 774 q 653 707 571 774 q 734 505 734 641 l 734 0 l 590 0 m 529 351 l 449 348 q 314 315 358 345 q 270 224 270 286 q 371 137 270 137 q 485 178 442 137 q 529 288 529 220 l 529 351 m 757 1085 q 661 900 744 958 q 422 842 578 842 q 185 897 262 842 q 98 1085 108 953 l 283 1085 q 318 986 288 1015 q 426 958 348 958 q 528 989 495 958 q 570 1085 562 1020 l 757 1085 "},"‘":{"x_min":16.828125,"x_max":284.734375,"ha":301,"o":"m 26 652 l 16 666 q 66 822 31 728 q 136 992 100 915 l 284 992 q 216 652 239 810 l 26 652 "},"π":{"x_min":16.953125,"x_max":977.84375,"ha":1026,"o":"m 881 148 q 969 171 927 148 l 969 23 q 898 -3 941 6 q 819 -14 855 -14 q 664 41 717 -14 q 610 207 610 97 l 610 599 l 381 599 l 381 0 l 174 0 l 174 599 l 16 599 l 16 688 l 137 758 l 977 758 l 977 599 l 817 599 l 817 215 q 836 164 817 181 q 881 148 854 148 "},"Ỏ":{"x_min":80.703125,"x_max":1025.296875,"ha":1106,"o":"m 1025 496 q 903 118 1025 250 q 553 -14 781 -14 q 202 118 325 -14 q 80 498 80 250 q 203 876 80 745 q 554 1007 325 1007 q 904 875 783 1007 q 1025 496 1025 743 m 301 496 q 364 246 301 330 q 553 162 427 162 q 804 496 804 162 q 554 832 804 832 q 364 747 428 832 q 301 496 301 663 m 727 1237 q 617 1104 727 1131 l 610 1056 l 492 1056 l 477 1155 q 546 1180 527 1163 q 564 1223 564 1198 q 550 1256 564 1245 q 512 1268 536 1268 q 418 1252 468 1268 l 418 1366 q 474 1377 439 1373 q 538 1382 510 1382 q 680 1344 633 1382 q 727 1237 727 1306 "},"Ѩ":{"x_min":124.796875,"x_max":1396,"ha":1396,"o":"m 1191 0 l 1050 428 l 982 428 l 982 0 l 797 0 l 797 428 l 727 428 l 587 0 l 382 0 l 544 428 l 335 428 l 335 0 l 124 0 l 124 992 l 335 992 l 335 603 l 611 603 l 759 996 l 1016 996 l 1396 0 l 1191 0 m 780 588 l 993 588 l 958 681 q 889 869 896 843 q 780 588 881 834 "},"Ớ":{"x_min":80.703125,"x_max":1188.078125,"ha":1146,"o":"m 1025 496 q 903 118 1025 250 q 553 -14 781 -14 q 202 118 325 -14 q 80 498 80 250 q 203 875 80 744 q 555 1007 326 1007 q 911 869 790 1007 q 974 1055 974 910 l 1178 1055 l 1188 1040 q 1115 851 1163 920 q 983 749 1067 783 q 1025 496 1025 642 m 301 496 q 364 246 301 330 q 553 162 427 162 q 804 496 804 162 q 554 832 804 832 q 364 747 428 832 q 301 496 301 663 m 1106 0 l 1106 0 m 416 1071 l 416 1089 q 575 1293 532 1224 l 807 1293 l 807 1278 q 687 1174 772 1243 q 553 1071 601 1104 l 416 1071 "},"9":{"x_min":44.765625,"x_max":744.84375,"ha":793,"o":"m 744 568 q 621 130 744 275 q 247 -14 497 -14 q 113 -4 159 -14 l 113 163 q 233 149 170 149 q 406 180 338 149 q 510 277 474 211 q 551 459 546 343 l 543 459 q 452 369 504 395 q 323 344 400 344 q 119 427 194 344 q 44 658 44 510 q 135 910 44 817 q 381 1003 225 1003 q 574 951 491 1003 q 700 801 656 899 q 744 568 744 703 m 385 834 q 284 789 320 834 q 247 660 247 745 q 280 546 247 588 q 381 504 314 504 q 491 546 445 504 q 536 642 536 588 q 494 779 536 723 q 385 834 451 834 "},"l":{"x_min":108.515625,"x_max":315.375,"ha":424,"o":"m 315 0 l 108 0 l 108 1055 l 315 1055 l 315 0 "},"Ẫ":{"x_min":0,"x_max":958,"ha":958,"o":"m 731 0 l 659 236 l 298 236 l 226 0 l 0 0 l 349 996 l 606 996 l 958 0 l 731 0 m 609 413 q 497 775 509 733 q 479 842 484 817 q 351 413 456 755 l 609 413 m 578 1292 q 528 1300 553 1292 q 478 1319 502 1309 q 431 1338 453 1329 q 389 1347 408 1347 q 347 1335 362 1347 q 324 1291 333 1324 l 247 1291 q 290 1410 253 1366 q 382 1455 326 1455 q 433 1446 407 1455 q 484 1426 460 1437 q 531 1407 508 1416 q 571 1398 553 1398 q 612 1410 599 1398 q 636 1456 626 1423 l 713 1456 q 668 1334 704 1377 q 578 1292 632 1292 m 732 1071 l 636 1071 q 479 1174 540 1119 q 322 1071 423 1124 l 226 1071 l 226 1089 q 386 1266 342 1200 l 572 1266 q 648 1174 605 1219 q 732 1089 692 1129 l 732 1071 "},"Ъ":{"x_min":0,"x_max":947.609375,"ha":1010,"o":"m 947 309 q 844 77 947 155 q 537 0 740 0 l 248 0 l 248 817 l 0 817 l 0 992 l 458 992 l 458 611 l 541 611 q 841 532 735 611 q 947 309 947 453 m 458 172 l 529 172 q 685 206 635 172 q 734 309 734 240 q 684 408 734 378 q 512 438 634 438 l 458 438 l 458 172 "}," ":{"x_min":0,"x_max":0,"ha":139},"Ś":{"x_min":63.75,"x_max":710.0625,"ha":765,"o":"m 710 275 q 613 63 710 140 q 344 -14 516 -14 q 63 45 185 -14 l 63 241 q 233 177 164 196 q 360 159 303 159 q 466 186 429 159 q 503 264 503 212 q 487 316 503 294 q 439 360 471 339 q 311 427 408 381 q 174 509 220 470 q 102 601 129 549 q 75 723 75 653 q 164 930 75 855 q 410 1006 253 1006 q 558 987 488 1006 q 705 936 628 969 l 637 772 q 506 818 558 805 q 404 831 454 831 q 312 803 344 831 q 280 730 280 775 q 293 682 280 702 q 334 641 306 661 q 467 572 362 622 q 658 438 606 505 q 710 275 710 372 m 278 1071 l 278 1089 q 437 1293 394 1224 l 669 1293 l 669 1278 q 549 1174 634 1243 q 415 1071 463 1104 l 278 1071 "},"Ü":{"x_min":118.015625,"x_max":931.984375,"ha":1050,"o":"m 931 992 l 931 349 q 882 157 931 239 q 740 30 833 74 q 520 -14 647 -14 q 223 84 329 -14 q 118 352 118 182 l 118 992 l 327 992 l 327 384 q 373 215 327 269 q 526 162 419 162 q 675 216 629 162 q 722 385 722 270 l 722 992 l 931 992 m 293 1182 q 318 1250 293 1226 q 387 1273 344 1273 q 457 1248 432 1273 q 483 1182 483 1223 q 457 1116 483 1141 q 387 1092 431 1092 q 318 1115 344 1092 q 293 1182 293 1139 m 566 1182 q 593 1251 566 1229 q 661 1273 621 1273 q 732 1249 705 1273 q 758 1182 758 1224 q 731 1116 758 1140 q 661 1092 705 1092 q 593 1114 621 1092 q 566 1182 566 1136 "},"à":{"x_min":58.328125,"x_max":734.546875,"ha":839,"o":"m 590 0 l 550 102 l 544 102 q 437 11 492 36 q 293 -14 381 -14 q 121 48 183 -14 q 58 226 58 110 q 142 404 58 347 q 397 467 227 461 l 529 472 l 529 505 q 411 620 529 620 q 197 565 320 620 l 128 705 q 419 774 259 774 q 653 707 571 774 q 734 505 734 641 l 734 0 l 590 0 m 529 351 l 449 348 q 314 315 358 345 q 270 224 270 286 q 371 137 270 137 q 485 178 442 137 q 529 288 529 220 l 529 351 m 416 842 q 291 938 373 871 q 162 1049 208 1005 l 162 1064 l 394 1064 q 553 860 436 995 l 553 842 l 416 842 "},"η":{"x_min":108.515625,"x_max":808.546875,"ha":913,"o":"m 808 -334 l 601 -334 l 601 443 q 572 566 601 525 q 479 607 543 607 q 354 549 392 607 q 315 357 315 491 l 315 0 l 108 0 l 108 758 l 266 758 l 294 661 l 305 661 q 401 744 340 716 q 539 773 461 773 q 740 701 671 773 q 808 494 808 629 l 808 -334 "},"ó":{"x_min":62.390625,"x_max":797.609375,"ha":860,"o":"m 273 380 q 310 209 273 267 q 430 152 347 152 q 549 209 513 152 q 586 380 586 267 q 549 549 586 493 q 429 606 512 606 q 309 550 346 606 q 273 380 273 494 m 797 380 q 699 90 797 195 q 427 -14 602 -14 q 235 33 318 -14 q 107 171 151 81 q 62 380 62 261 q 159 669 62 566 q 432 773 256 773 q 624 725 541 773 q 752 588 708 677 q 797 380 797 500 m 317 842 l 317 860 q 476 1064 433 995 l 708 1064 l 708 1049 q 588 945 673 1014 q 454 842 502 875 l 317 842 "},"¦":{"x_min":308.578125,"x_max":457.109375,"ha":765,"o":"m 308 1051 l 457 1051 l 457 499 l 308 499 l 308 1051 m 308 238 l 457 238 l 457 -315 l 308 -315 l 308 238 "},"Ѣ":{"x_min":0,"x_max":872.59375,"ha":935,"o":"m 383 762 l 383 611 l 466 611 q 766 532 660 611 q 872 309 872 453 q 462 0 872 0 l 173 0 l 173 762 l 0 762 l 0 918 l 173 918 l 173 1055 l 383 1055 l 383 918 l 639 918 l 639 762 l 383 762 m 383 172 l 454 172 q 610 206 561 172 q 660 309 660 240 q 610 408 660 378 q 437 438 559 438 l 383 438 l 383 172 "},"Ӈ":{"x_min":124.796875,"x_max":937.515625,"ha":1063,"o":"m 937 61 q 892 -152 937 -58 q 762 -296 846 -245 q 569 -347 679 -347 q 349 -315 440 -347 l 349 -130 q 445 -155 400 -148 q 546 -162 490 -162 q 679 -97 631 -162 q 727 84 727 -31 l 727 428 l 335 428 l 335 0 l 124 0 l 124 992 l 335 992 l 335 603 l 727 603 l 727 992 l 937 992 l 937 61 "},"Ỷ":{"x_min":0.09375,"x_max":866.859375,"ha":867,"o":"m 433 583 l 640 992 l 866 992 l 537 386 l 537 0 l 329 0 l 329 379 l 0 992 l 227 992 l 433 583 m 603 1237 q 493 1104 603 1131 l 486 1056 l 368 1056 l 353 1155 q 422 1180 403 1163 q 440 1223 440 1198 q 426 1256 440 1245 q 388 1268 412 1268 q 294 1252 344 1268 l 294 1366 q 350 1377 315 1373 q 414 1382 386 1382 q 556 1344 509 1382 q 603 1237 603 1306 "},"Ő":{"x_min":80.703125,"x_max":1025.296875,"ha":1106,"o":"m 1025 496 q 903 118 1025 250 q 553 -14 781 -14 q 202 118 325 -14 q 80 498 80 250 q 203 876 80 745 q 554 1007 325 1007 q 904 875 783 1007 q 1025 496 1025 743 m 301 496 q 364 246 301 330 q 553 162 427 162 q 804 496 804 162 q 554 832 804 832 q 364 747 428 832 q 301 496 301 663 m 323 1071 l 323 1089 q 403 1206 365 1146 q 455 1293 441 1265 l 659 1293 l 659 1278 q 560 1175 637 1242 q 433 1071 483 1107 l 323 1071 m 592 1071 l 592 1089 q 725 1293 687 1219 l 929 1293 l 929 1278 q 844 1187 912 1249 q 702 1071 775 1125 l 592 1071 "},"ҁ":{"x_min":62.390625,"x_max":683.921875,"ha":728,"o":"m 408 -11 q 149 99 237 1 q 62 375 62 196 q 153 675 62 577 q 441 773 245 773 q 683 718 566 773 l 624 561 q 436 606 506 606 q 312 548 350 606 q 273 376 273 491 q 317 212 273 270 q 441 153 360 153 q 615 178 526 153 l 615 -334 l 408 -334 l 408 -11 "},"Ҧ":{"x_min":124.796875,"x_max":1493.828125,"ha":1563,"o":"m 881 545 q 1072 556 959 556 q 1296 497 1198 556 q 1444 337 1394 439 q 1493 96 1493 235 q 1446 -137 1493 -36 q 1314 -292 1399 -237 q 1125 -347 1229 -347 q 1005 -340 1051 -347 q 905 -315 959 -333 l 905 -130 q 1083 -162 993 -162 q 1229 -90 1172 -162 q 1287 96 1287 -17 q 1215 296 1287 229 q 987 364 1143 364 q 881 350 948 364 l 881 0 l 672 0 l 672 817 l 335 817 l 335 0 l 124 0 l 124 992 l 881 992 l 881 545 "},"Ž":{"x_min":33.21875,"x_max":770.78125,"ha":804,"o":"m 770 0 l 33 0 l 33 136 l 508 818 l 46 818 l 46 992 l 757 992 l 757 856 l 283 173 l 770 173 l 770 0 m 705 1293 l 705 1274 q 600 1161 648 1217 q 531 1071 552 1104 l 289 1071 q 233 1147 270 1102 q 116 1274 196 1191 l 116 1293 l 253 1293 q 409 1174 353 1230 q 567 1293 466 1232 l 705 1293 "},"е":{"x_min":62.390625,"x_max":761.3125,"ha":821,"o":"m 422 625 q 319 583 356 625 q 276 465 282 542 l 567 465 q 527 583 565 542 q 422 625 488 625 m 451 -14 q 165 87 268 -14 q 62 373 62 188 q 157 668 62 564 q 421 773 253 773 q 671 681 582 773 q 761 427 761 589 l 761 327 l 271 327 q 324 189 275 239 q 461 139 373 139 q 590 154 529 139 q 718 199 652 168 l 718 39 q 602 0 664 12 q 451 -14 540 -14 "},"Î":{"x_min":-64.859375,"x_max":524.515625,"ha":460,"o":"m 124 0 l 124 992 l 335 992 l 335 0 l 124 0 m 386 1071 q 228 1189 280 1133 q 72 1071 175 1135 l -64 1071 l -64 1089 q 108 1293 63 1217 l 350 1293 q 423 1197 371 1257 q 524 1089 475 1136 l 524 1071 l 386 1071 "},"e":{"x_min":62.390625,"x_max":761.3125,"ha":821,"o":"m 422 625 q 319 583 356 625 q 276 465 282 542 l 567 465 q 527 583 565 542 q 422 625 488 625 m 451 -14 q 165 87 268 -14 q 62 373 62 188 q 157 668 62 564 q 421 773 253 773 q 671 681 582 773 q 761 427 761 589 l 761 327 l 271 327 q 324 189 275 239 q 461 139 373 139 q 590 154 529 139 q 718 199 652 168 l 718 39 q 602 0 664 12 q 451 -14 540 -14 "},"ό":{"x_min":62.390625,"x_max":797.609375,"ha":860,"o":"m 273 380 q 310 209 273 267 q 430 152 347 152 q 549 209 513 152 q 586 380 586 267 q 549 549 586 493 q 429 606 512 606 q 309 550 346 606 q 273 380 273 494 m 797 380 q 699 90 797 195 q 427 -14 602 -14 q 235 33 318 -14 q 107 171 151 81 q 62 380 62 261 q 159 669 62 566 q 432 773 256 773 q 624 725 541 773 q 752 588 708 677 q 797 380 797 500 m 364 863 q 394 974 376 899 q 420 1106 412 1049 l 612 1106 l 612 1089 q 485 842 559 963 l 364 842 l 364 863 "},"Ề":{"x_min":-34.984375,"x_max":695.9375,"ha":778,"o":"m 695 0 l 124 0 l 124 992 l 695 992 l 695 819 l 335 819 l 335 602 l 670 602 l 670 429 l 335 429 l 335 173 l 695 173 l 695 0 m 162 1089 q 308 1279 238 1177 l 522 1279 q 598 1174 555 1230 q 668 1089 641 1119 l 668 1071 l 558 1071 q 415 1183 492 1115 q 272 1071 343 1118 l 162 1071 l 162 1089 m 222 1203 l 119 1203 q -34 1342 8 1283 l -34 1357 l 129 1357 q 222 1220 165 1281 l 222 1203 "},"Ĕ":{"x_min":124.796875,"x_max":695.9375,"ha":778,"o":"m 695 0 l 124 0 l 124 992 l 695 992 l 695 819 l 335 819 l 335 602 l 670 602 l 670 429 l 335 429 l 335 173 l 695 173 l 695 0 m 672 1300 q 589 1133 664 1195 q 402 1071 515 1071 q 214 1132 284 1071 q 138 1300 144 1194 l 254 1300 q 272 1249 256 1268 q 317 1223 288 1231 q 404 1215 346 1215 q 554 1300 543 1215 l 672 1300 "},"ļ":{"x_min":67.546875,"x_max":315.375,"ha":424,"o":"m 315 0 l 108 0 l 108 1055 l 315 1055 l 315 0 m 67 -288 q 90 -191 77 -255 q 109 -85 104 -128 l 300 -85 l 300 -98 q 188 -307 250 -212 l 67 -307 l 67 -288 "},"ị":{"x_min":98.671875,"x_max":324.875,"ha":424,"o":"m 99 953 q 212 1055 99 1055 q 324 953 324 1055 q 296 879 324 905 q 212 852 268 852 q 99 953 99 852 m 315 0 l 108 0 l 108 758 l 315 758 l 315 0 m 98 -190 q 211 -89 98 -89 q 323 -190 323 -89 q 295 -265 323 -238 q 211 -291 266 -291 q 98 -190 98 -291 "}," ":{"x_min":0,"x_max":0,"ha":695},"Ѓ":{"x_min":124.796875,"x_max":751.1875,"ha":779,"o":"m 751 992 l 751 818 l 335 818 l 335 0 l 124 0 l 124 992 l 751 992 m 315 1071 l 315 1089 q 474 1293 431 1224 l 706 1293 l 706 1278 q 586 1174 671 1243 q 452 1071 500 1104 l 315 1071 "},"Ѽ":{"x_min":80.703125,"x_max":1430.296875,"ha":1511,"o":"m 1040 837 q 983 825 1013 837 q 906 784 952 814 l 847 930 q 940 982 887 961 q 1047 1004 992 1004 q 1329 877 1228 1004 q 1430 520 1430 750 q 1319 126 1430 266 q 1005 -14 1207 -14 q 872 10 933 -14 q 755 89 812 34 q 643 12 703 38 q 505 -14 583 -14 q 192 125 303 -14 q 80 520 80 265 q 181 876 80 749 q 463 1004 282 1004 q 571 982 518 1004 q 663 930 623 961 l 604 784 q 527 825 558 814 q 470 837 496 837 q 335 754 383 837 q 287 519 287 672 q 346 258 287 350 q 514 166 405 166 q 642 204 579 166 q 755 309 705 242 q 869 203 806 241 q 996 166 932 166 q 1165 259 1106 166 q 1223 519 1223 352 q 1174 754 1223 671 q 1040 837 1126 837 m 1049 1402 l 1049 1271 l 1038 1271 q 824 1307 916 1271 q 737 1340 754 1335 q 703 1344 720 1344 q 658 1327 672 1344 q 636 1270 643 1310 l 512 1270 l 512 1303 q 534 1409 512 1369 q 592 1466 555 1448 q 701 1485 630 1485 q 778 1472 740 1485 q 856 1443 816 1459 q 942 1415 897 1428 q 1040 1402 987 1402 l 1049 1402 m 865 1176 q 804 1066 865 1113 q 655 1014 743 1018 l 655 1072 q 712 1101 691 1081 q 734 1141 734 1121 q 721 1160 734 1154 q 694 1172 709 1166 q 666 1186 679 1177 q 654 1214 654 1195 q 680 1270 654 1250 q 755 1290 707 1290 q 836 1259 808 1290 q 865 1176 865 1228 "},"ò":{"x_min":62.390625,"x_max":797.609375,"ha":860,"o":"m 273 380 q 310 209 273 267 q 430 152 347 152 q 549 209 513 152 q 586 380 586 267 q 549 549 586 493 q 429 606 512 606 q 309 550 346 606 q 273 380 273 494 m 797 380 q 699 90 797 195 q 427 -14 602 -14 q 235 33 318 -14 q 107 171 151 81 q 62 380 62 261 q 159 669 62 566 q 432 773 256 773 q 624 725 541 773 q 752 588 708 677 q 797 380 797 500 m 415 842 q 290 938 372 871 q 161 1049 207 1005 l 161 1064 l 393 1064 q 552 860 435 995 l 552 842 l 415 842 "},"ﬄ":{"x_min":27.859375,"x_max":1389.375,"ha":1498,"o":"m 527 602 l 348 602 l 348 0 l 141 0 l 141 602 l 27 602 l 27 702 l 141 758 l 141 813 q 205 1003 141 943 q 409 1063 269 1063 q 600 1031 516 1063 l 547 879 q 432 898 485 898 q 368 872 388 898 q 348 805 348 846 l 348 758 l 527 758 l 527 602 m 1065 602 l 886 602 l 886 0 l 679 0 l 679 602 l 565 602 l 565 702 l 679 758 l 679 813 q 743 1003 679 943 q 947 1063 807 1063 q 1138 1031 1054 1063 l 1085 879 q 970 898 1023 898 q 906 872 926 898 q 886 805 886 846 l 886 758 l 1065 758 l 1065 602 m 1389 0 l 1182 0 l 1182 1055 l 1389 1055 l 1389 0 "},"^":{"x_min":5.421875,"x_max":735.609375,"ha":739,"o":"m 5 353 l 302 997 l 400 997 l 735 353 l 573 353 l 355 788 l 165 353 l 5 353 "},"ⁿ":{"x_min":69.140625,"x_max":527.34375,"ha":587,"o":"m 393 518 l 393 790 q 372 863 393 841 q 313 884 352 884 q 228 852 252 884 q 204 743 204 819 l 204 518 l 69 518 l 69 992 l 179 992 l 197 934 l 206 934 q 352 1003 256 1003 q 527 833 527 1003 l 527 518 l 393 518 "},"Ӑ":{"x_min":0,"x_max":958,"ha":958,"o":"m 731 0 l 659 236 l 298 236 l 226 0 l 0 0 l 349 996 l 606 996 l 958 0 l 731 0 m 609 413 q 497 775 509 733 q 479 842 484 817 q 351 413 456 755 l 609 413 m 808 1314 q 712 1129 795 1187 q 473 1071 629 1071 q 236 1126 313 1071 q 149 1314 159 1182 l 334 1314 q 369 1215 339 1244 q 477 1187 399 1187 q 579 1218 546 1187 q 621 1314 613 1249 l 808 1314 "},"к":{"x_min":108.515625,"x_max":860,"ha":860,"o":"m 605 758 l 833 758 l 533 394 l 860 0 l 625 0 l 315 384 l 315 0 l 108 0 l 108 758 l 315 758 l 315 389 l 605 758 "},"￼":{"x_min":56.96875,"x_max":1346.265625,"ha":1389,"o":"m 56 823 l 56 1030 l 262 1030 l 262 954 l 132 954 l 132 823 l 56 823 m 1140 954 l 1140 1030 l 1346 1030 l 1346 823 l 1272 823 l 1272 954 l 1140 954 m 56 -260 l 56 -54 l 132 -54 l 132 -186 l 262 -186 l 262 -260 l 56 -260 m 1140 -260 l 1140 -186 l 1272 -186 l 1272 -54 l 1346 -54 l 1346 -260 l 1140 -260 m 874 -260 l 874 -186 l 1060 -186 l 1060 -260 l 874 -260 m 344 -260 l 344 -186 l 527 -186 l 527 -260 l 344 -260 m 344 954 l 344 1030 l 527 1030 l 527 954 l 344 954 m 1346 26 l 1272 26 l 1272 209 l 1346 209 l 1346 26 m 1346 558 l 1272 558 l 1272 742 l 1346 742 l 1346 558 m 609 -260 l 609 -186 l 794 -186 l 794 -260 l 609 -260 m 132 26 l 56 26 l 56 209 l 132 209 l 132 26 m 609 954 l 609 1030 l 794 1030 l 794 954 l 609 954 m 874 954 l 874 1030 l 1060 1030 l 1060 954 l 874 954 m 132 291 l 56 291 l 56 476 l 132 476 l 132 291 m 132 558 l 56 558 l 56 742 l 132 742 l 132 558 m 1346 291 l 1272 291 l 1272 476 l 1346 476 l 1346 291 m 585 427 q 540 275 585 328 q 408 223 494 223 q 276 275 322 223 q 230 427 230 328 q 276 578 230 525 q 408 631 322 631 q 539 578 493 631 q 585 427 585 526 m 316 427 q 408 293 316 293 q 499 427 499 293 q 408 559 499 559 q 316 427 316 559 m 642 626 l 759 626 q 871 603 833 626 q 909 523 909 580 q 893 467 909 490 q 848 438 878 444 l 848 436 q 904 404 888 427 q 921 343 921 381 q 884 258 921 288 q 783 228 847 228 l 642 228 l 642 626 m 726 468 l 771 468 q 814 479 802 468 q 826 513 826 491 q 812 546 826 536 q 766 556 798 556 l 726 556 l 726 468 m 726 401 l 726 297 l 776 297 q 822 311 809 297 q 834 351 834 326 q 773 401 834 401 l 726 401 m 1011 224 q 956 230 975 224 l 956 299 q 1003 294 986 294 q 1061 352 1061 294 l 1061 626 l 1146 626 l 1146 355 q 1110 257 1146 291 q 1011 224 1074 224 "},"ѻ":{"x_min":62.390625,"x_max":879.921875,"ha":943,"o":"m 879 380 q 798 123 879 220 q 562 0 717 25 q 531 -55 555 -36 q 470 -75 507 -75 q 407 -55 431 -75 q 377 1 383 -35 q 144 126 226 27 q 62 380 62 226 q 144 639 62 541 q 382 761 227 738 q 470 816 395 816 q 556 761 542 816 q 794 638 708 737 q 879 380 879 539 m 273 380 q 380 154 273 197 q 412 195 393 181 q 470 210 431 210 q 520 199 499 210 q 559 153 541 188 q 642 234 615 174 q 669 380 669 294 q 641 524 669 468 q 565 600 614 580 q 532 549 553 568 q 470 530 511 530 q 410 547 433 530 q 374 600 387 563 q 273 380 273 556 "},"ū":{"x_min":104.453125,"x_max":804.484375,"ha":913,"o":"m 645 0 l 617 96 l 607 96 q 512 14 573 43 q 373 -14 451 -14 q 172 57 240 -14 q 104 263 104 129 l 104 758 l 311 758 l 311 314 q 340 191 311 232 q 433 150 369 150 q 558 208 520 150 q 597 401 597 266 l 597 758 l 804 758 l 804 0 l 645 0 m 223 985 l 683 985 l 683 842 l 223 842 l 223 985 "},"ˆ":{"x_min":126.140625,"x_max":715.515625,"ha":843,"o":"m 577 842 q 419 960 471 904 q 263 842 366 906 l 126 842 l 126 860 q 299 1064 254 988 l 541 1064 q 614 968 562 1028 q 715 860 666 907 l 715 842 l 577 842 "},"Ẅ":{"x_min":0,"x_max":1343,"ha":1343,"o":"m 1090 0 l 851 0 l 716 521 q 691 636 709 549 q 670 753 673 723 q 650 635 666 716 q 625 519 634 554 l 491 0 l 253 0 l 0 992 l 206 992 l 333 450 q 381 190 366 300 q 400 310 385 229 q 427 436 415 391 l 572 992 l 771 992 l 915 436 q 939 322 925 398 q 961 190 953 245 q 982 322 967 243 q 1009 450 997 401 l 1136 992 l 1343 992 l 1090 0 m 438 1182 q 463 1250 438 1226 q 532 1273 489 1273 q 602 1248 577 1273 q 628 1182 628 1223 q 602 1116 628 1141 q 532 1092 576 1092 q 463 1115 489 1092 q 438 1182 438 1139 m 711 1182 q 738 1251 711 1229 q 806 1273 766 1273 q 877 1249 850 1273 q 903 1182 903 1224 q 876 1116 903 1140 q 806 1092 850 1092 q 738 1114 766 1092 q 711 1182 711 1136 "},"ȷ":{"x_min":-88.84375,"x_max":315.375,"ha":424,"o":"m 47 -334 q -88 -317 -31 -334 l -88 -154 q 8 -167 -41 -167 q 84 -137 60 -167 q 108 -51 108 -108 l 108 758 l 315 758 l 315 -82 q 245 -268 315 -203 q 47 -334 175 -334 "},"Ԍ":{"x_min":80.703125,"x_max":1030.984375,"ha":1111,"o":"m 556 557 l 1030 557 l 1030 473 q 916 108 1030 230 q 581 -14 802 -14 q 210 119 340 -14 q 80 497 80 253 q 140 767 80 652 q 312 944 199 883 q 579 1006 425 1006 q 921 933 766 1006 l 848 763 q 706 816 771 802 q 571 831 641 831 q 369 741 442 831 q 297 492 297 651 q 370 247 297 333 q 587 160 444 160 q 750 217 691 160 q 809 377 809 274 l 809 382 l 556 382 l 556 557 "},"č":{"x_min":62.390625,"x_max":715.515625,"ha":714,"o":"m 416 -14 q 62 375 62 -14 q 158 670 62 568 q 434 773 254 773 q 670 721 566 773 l 609 561 q 518 593 560 581 q 434 606 476 606 q 273 376 273 606 q 434 153 273 153 q 545 169 494 153 q 646 219 596 185 l 646 42 q 545 -1 596 10 q 416 -14 494 -14 m 715 1064 l 715 1045 q 610 932 658 988 q 541 842 562 875 l 299 842 q 243 918 280 873 q 126 1045 206 962 l 126 1064 l 263 1064 q 419 945 363 1001 q 577 1064 476 1003 l 715 1064 "},"’":{"x_min":16.953125,"x_max":284.859375,"ha":301,"o":"m 275 992 l 284 977 q 165 652 250 843 l 16 652 q 84 992 63 852 l 275 992 "},"Ν":{"x_min":124.796875,"x_max":1004.21875,"ha":1129,"o":"m 1004 0 l 737 0 l 305 750 l 299 750 q 312 466 312 551 l 312 0 l 124 0 l 124 992 l 389 992 l 820 249 l 825 249 q 814 522 814 442 l 814 992 l 1004 992 l 1004 0 "},"-":{"x_min":41.375,"x_max":405.625,"ha":447,"o":"m 41 287 l 41 457 l 405 457 l 405 287 l 41 287 "},"Q":{"x_min":80.703125,"x_max":1025.296875,"ha":1106,"o":"m 1025 496 q 963 203 1025 321 q 781 30 901 85 l 1019 -236 l 750 -236 l 568 -14 l 553 -14 q 202 118 325 -14 q 80 498 80 250 q 203 876 80 745 q 554 1007 325 1007 q 904 875 783 1007 q 1025 496 1025 743 m 301 496 q 364 246 301 330 q 553 162 427 162 q 804 496 804 162 q 554 832 804 832 q 364 747 428 832 q 301 496 301 663 "},"ј":{"x_min":-88.84375,"x_max":324.875,"ha":424,"o":"m 47 -334 q -88 -317 -31 -334 l -88 -154 q 8 -167 -41 -167 q 84 -137 60 -167 q 108 -51 108 -108 l 108 758 l 315 758 l 315 -82 q 245 -268 315 -203 q 47 -334 175 -334 m 99 953 q 212 1055 99 1055 q 324 953 324 1055 q 296 879 324 905 q 212 852 268 852 q 99 953 99 852 "},"Ҋ":{"x_min":124.796875,"x_max":1244.046875,"ha":1272,"o":"m 124 992 l 314 992 l 314 512 l 311 384 l 304 238 l 308 238 l 765 992 l 1017 992 l 1017 180 l 1244 180 l 1123 -289 l 890 -289 l 1017 0 l 830 0 l 830 476 q 842 759 830 571 l 837 759 l 377 0 l 124 0 l 124 992 m 899 1314 q 804 1129 886 1187 q 565 1071 721 1071 q 327 1126 404 1071 q 241 1314 250 1182 l 426 1314 q 461 1215 431 1244 q 569 1187 491 1187 q 670 1218 636 1187 q 712 1314 705 1249 l 899 1314 m 1143 0 l 1143 0 "},"ě":{"x_min":62.390625,"x_max":761.3125,"ha":821,"o":"m 422 625 q 319 583 356 625 q 276 465 282 542 l 567 465 q 527 583 565 542 q 422 625 488 625 m 451 -14 q 165 87 268 -14 q 62 373 62 188 q 157 668 62 564 q 421 773 253 773 q 671 681 582 773 q 761 427 761 589 l 761 327 l 271 327 q 324 189 275 239 q 461 139 373 139 q 590 154 529 139 q 718 199 652 168 l 718 39 q 602 0 664 12 q 451 -14 540 -14 m 716 1064 l 716 1045 q 611 932 659 988 q 542 842 563 875 l 300 842 q 244 918 281 873 q 127 1045 207 962 l 127 1064 l 264 1064 q 420 945 364 1001 q 578 1064 477 1003 l 716 1064 "},"œ":{"x_min":62.390625,"x_max":1298.3125,"ha":1358,"o":"m 980 -14 q 695 91 796 -14 q 430 -14 600 -14 q 236 33 320 -14 q 107 170 152 81 q 62 380 62 260 q 158 670 62 568 q 429 773 254 773 q 572 746 505 773 q 688 667 640 719 q 948 773 786 773 q 1206 681 1113 773 q 1298 427 1298 589 l 1298 327 l 792 327 l 792 321 q 847 187 797 235 q 988 139 898 139 q 1124 154 1061 139 q 1254 199 1187 168 l 1254 39 q 1135 0 1200 13 q 980 -14 1071 -14 m 273 380 q 310 209 273 267 q 430 152 347 152 q 549 209 513 152 q 585 380 585 267 q 549 549 585 493 q 429 606 512 606 q 309 550 346 606 q 273 380 273 494 m 952 625 q 846 586 888 625 q 798 465 804 547 l 1103 465 q 1062 583 1102 540 q 952 625 1023 625 "},"Ộ":{"x_min":80.703125,"x_max":1025.296875,"ha":1106,"o":"m 1025 496 q 903 118 1025 250 q 553 -14 781 -14 q 202 118 325 -14 q 80 498 80 250 q 203 876 80 745 q 554 1007 325 1007 q 904 875 783 1007 q 1025 496 1025 743 m 301 496 q 364 246 301 330 q 553 162 427 162 q 804 496 804 162 q 554 832 804 832 q 364 747 428 832 q 301 496 301 663 m 440 -190 q 553 -89 440 -89 q 665 -190 665 -89 q 637 -265 665 -238 q 553 -291 608 -291 q 440 -190 440 -291 m 708 1071 q 550 1189 602 1133 q 394 1071 497 1135 l 257 1071 l 257 1089 q 430 1293 385 1217 l 672 1293 q 745 1197 693 1257 q 846 1089 797 1136 l 846 1071 l 708 1071 "},"Ậ":{"x_min":0,"x_max":958,"ha":958,"o":"m 731 0 l 659 236 l 298 236 l 226 0 l 0 0 l 349 996 l 606 996 l 958 0 l 731 0 m 609 413 q 497 775 509 733 q 479 842 484 817 q 351 413 456 755 l 609 413 m 637 1071 q 479 1189 531 1133 q 323 1071 426 1135 l 186 1071 l 186 1089 q 359 1293 314 1217 l 601 1293 q 674 1197 622 1257 q 775 1089 726 1136 l 775 1071 l 637 1071 m 366 -190 q 479 -89 366 -89 q 591 -190 591 -89 q 563 -265 591 -238 q 479 -291 534 -291 q 366 -190 366 -291 "},"ҏ":{"x_min":108.515625,"x_max":816.59375,"ha":879,"o":"m 524 -14 q 315 83 391 -14 l 304 83 q 315 -26 315 -11 l 315 -334 l 108 -334 l 108 758 l 276 758 l 305 660 l 316 660 q 408 744 353 716 q 530 773 463 773 q 740 669 664 773 q 816 380 816 565 q 718 66 816 174 l 782 -17 l 674 -97 l 601 -3 q 524 -14 566 -14 m 463 607 q 352 560 387 607 q 315 404 316 513 l 315 381 q 351 206 315 259 q 466 153 387 153 l 478 153 l 490 154 l 421 241 l 534 324 l 590 256 q 605 383 605 309 q 571 551 605 495 q 463 607 537 607 "},"ӗ":{"x_min":62.390625,"x_max":761.3125,"ha":821,"o":"m 422 625 q 319 583 356 625 q 276 465 282 542 l 567 465 q 527 583 565 542 q 422 625 488 625 m 451 -14 q 165 87 268 -14 q 62 373 62 188 q 157 668 62 564 q 421 773 253 773 q 671 681 582 773 q 761 427 761 589 l 761 327 l 271 327 q 324 189 275 239 q 461 139 373 139 q 590 154 529 139 q 718 199 652 168 l 718 39 q 602 0 664 12 q 451 -14 540 -14 m 749 1085 q 653 900 736 958 q 414 842 570 842 q 177 897 254 842 q 90 1085 100 953 l 275 1085 q 310 986 280 1015 q 418 958 340 958 q 520 989 487 958 q 562 1085 554 1020 l 749 1085 "},"ԏ":{"x_min":31.875,"x_max":915.21875,"ha":1019,"o":"m 735 758 l 735 602 l 487 602 l 487 258 q 514 183 487 207 q 601 159 541 159 q 685 194 659 159 q 711 305 711 228 l 711 474 l 915 474 l 915 257 q 835 55 915 124 q 601 -14 755 -14 q 362 53 443 -14 q 280 253 282 121 l 280 602 l 31 602 l 31 758 l 735 758 "},"ҩ":{"x_min":62.390625,"x_max":864.203125,"ha":911,"o":"m 844 344 q 815 201 844 264 q 733 102 786 138 q 780 98 752 98 q 864 109 820 98 l 864 -33 q 758 -49 815 -49 q 572 9 658 -49 q 415 -14 506 -14 q 158 91 254 -14 q 62 376 62 197 q 154 668 62 563 q 416 773 247 773 q 486 765 445 773 q 559 745 527 758 l 514 590 q 416 607 454 607 q 305 551 341 607 q 270 369 270 494 q 308 209 270 266 q 419 152 345 152 q 444 155 436 152 q 406 252 415 208 q 396 348 396 296 q 452 521 396 461 q 620 582 508 582 q 784 519 723 582 q 844 344 844 456 m 681 344 q 666 407 681 383 q 620 432 651 432 q 559 343 559 432 q 611 198 559 257 q 681 344 681 241 "},"#":{"x_min":30.4375,"x_max":866.546875,"ha":897,"o":"m 677 572 l 645 415 l 820 415 l 820 275 l 619 275 l 566 0 l 417 0 l 470 275 l 339 275 l 287 0 l 141 0 l 191 275 l 30 275 l 30 415 l 218 415 l 250 572 l 79 572 l 79 714 l 275 714 l 327 990 l 475 990 l 423 714 l 557 714 l 610 990 l 756 990 l 703 714 l 866 714 l 866 572 l 677 572 m 365 415 l 498 415 l 530 572 l 397 572 l 365 415 "},"Џ":{"x_min":124.796875,"x_max":909.53125,"ha":1035,"o":"m 909 0 l 619 0 l 619 -289 l 416 -289 l 416 0 l 124 0 l 124 992 l 335 992 l 335 174 l 699 174 l 699 992 l 909 992 l 909 0 "},"Ѥ":{"x_min":124.796875,"x_max":1271.15625,"ha":1320,"o":"m 1111 428 l 694 428 q 773 233 703 305 q 959 160 844 160 q 1091 174 1025 160 q 1233 213 1156 188 l 1233 36 q 1095 -2 1163 9 q 946 -14 1026 -14 q 612 99 732 -14 q 474 428 491 212 l 335 428 l 335 0 l 124 0 l 124 992 l 335 992 l 335 603 l 480 603 q 639 899 510 792 q 966 1006 768 1006 q 1271 936 1122 1006 l 1203 765 q 1081 811 1142 791 q 961 831 1020 831 q 780 771 850 831 q 695 603 709 712 l 1111 603 l 1111 428 "},"Å":{"x_min":0,"x_max":958,"ha":958,"o":"m 731 0 l 659 236 l 298 236 l 226 0 l 0 0 l 349 996 l 606 996 l 958 0 l 731 0 m 609 413 q 497 775 509 733 q 479 842 484 817 q 351 413 456 755 l 609 413 m 650 1063 q 602 945 650 989 q 477 900 553 900 q 355 943 401 900 q 309 1061 309 987 q 355 1178 309 1134 q 477 1222 401 1222 q 601 1177 552 1222 q 650 1063 650 1132 m 543 1061 q 524 1109 543 1092 q 477 1126 506 1126 q 431 1109 449 1126 q 412 1061 412 1092 q 429 1013 412 1031 q 477 996 445 996 q 524 1013 506 996 q 543 1061 543 1031 "},"ș":{"x_min":62.390625,"x_max":637.09375,"ha":690,"o":"m 637 224 q 556 47 637 108 q 313 -14 475 -14 q 172 -2 231 -14 q 63 30 114 8 l 63 201 q 193 155 121 173 q 320 137 265 137 q 432 202 432 137 q 418 242 432 226 q 366 276 403 257 q 269 322 329 296 q 140 390 181 358 q 81 461 99 421 q 62 561 62 502 q 140 717 62 662 q 362 773 218 773 q 628 713 499 773 l 566 564 q 460 604 509 588 q 359 619 410 619 q 267 570 267 619 q 297 521 267 542 q 426 461 326 501 q 556 394 515 425 q 617 322 597 362 q 637 224 637 281 m 199 -288 q 222 -191 209 -255 q 241 -85 236 -128 l 432 -85 l 432 -98 q 320 -307 382 -212 l 199 -307 l 199 -288 "},"Ѵ":{"x_min":0,"x_max":981.078125,"ha":996,"o":"m 913 825 q 860 800 882 825 q 810 696 838 776 l 565 0 l 336 0 l 0 992 l 212 992 l 408 375 q 451 172 437 266 q 500 374 463 259 l 615 727 q 684 896 652 843 q 755 974 715 949 q 854 1000 796 1000 q 981 973 933 1000 l 981 809 q 913 825 946 825 "},"Ә":{"x_min":111.234375,"x_max":1054.28125,"ha":1135,"o":"m 555 832 q 347 801 455 832 q 162 722 238 770 l 162 903 q 351 983 257 960 q 556 1007 446 1007 q 923 870 791 1007 q 1054 494 1054 734 q 930 119 1054 253 q 582 -14 807 -14 q 229 118 348 -14 q 111 516 111 251 l 111 565 l 835 565 q 754 763 826 695 q 555 832 683 832 m 582 160 q 758 222 692 160 q 832 389 825 284 l 328 389 q 390 215 328 270 q 582 160 451 160 "},"¸":{"x_min":-25.03125,"x_max":283.5625,"ha":285,"o":"m 283 -170 q 232 -295 283 -256 q 73 -334 181 -334 q -25 -319 21 -334 l -25 -205 q 24 -215 -6 -210 q 71 -220 55 -220 q 120 -177 120 -220 q 8 -104 120 -121 l 61 0 l 192 0 l 173 -42 q 253 -92 223 -58 q 283 -170 283 -126 "},"=":{"x_min":59.6875,"x_max":733.3125,"ha":793,"o":"m 59 546 l 59 695 l 733 695 l 733 546 l 59 546 m 59 284 l 59 432 l 733 432 l 733 284 l 59 284 "},"ạ":{"x_min":58.328125,"x_max":734.546875,"ha":839,"o":"m 590 0 l 550 102 l 544 102 q 437 11 492 36 q 293 -14 381 -14 q 121 48 183 -14 q 58 226 58 110 q 142 404 58 347 q 397 467 227 461 l 529 472 l 529 505 q 411 620 529 620 q 197 565 320 620 l 128 705 q 419 774 259 774 q 653 707 571 774 q 734 505 734 641 l 734 0 l 590 0 m 529 351 l 449 348 q 314 315 358 345 q 270 224 270 286 q 371 137 270 137 q 485 178 442 137 q 529 288 529 220 l 529 351 m 281 -190 q 394 -89 281 -89 q 506 -190 506 -89 q 478 -265 506 -238 q 394 -291 449 -291 q 281 -190 281 -291 "},"ρ":{"x_min":82.0625,"x_max":796.609375,"ha":859,"o":"m 796 379 q 713 89 796 193 q 482 -14 630 -14 q 291 38 377 -14 l 279 38 q 290 -143 290 -78 l 290 -334 l 82 -334 l 82 380 q 176 670 82 567 q 443 773 270 773 q 628 725 548 773 q 752 587 708 677 q 796 379 796 497 m 439 606 q 326 554 362 606 q 290 390 290 502 l 290 210 q 358 166 319 181 q 439 152 398 152 q 550 205 516 152 q 583 379 583 258 q 550 552 583 498 q 439 606 517 606 "},"Ћ":{"x_min":27.8125,"x_max":1044.078125,"ha":1118,"o":"m 834 0 l 834 348 q 810 432 834 408 q 732 457 787 457 l 486 457 l 486 0 l 276 0 l 276 817 l 27 817 l 27 992 l 783 992 l 783 817 l 486 817 l 486 632 l 747 632 q 966 561 888 632 q 1044 364 1044 490 l 1044 0 l 834 0 "},"ú":{"x_min":104.453125,"x_max":804.484375,"ha":913,"o":"m 645 0 l 617 96 l 607 96 q 512 14 573 43 q 373 -14 451 -14 q 172 57 240 -14 q 104 263 104 129 l 104 758 l 311 758 l 311 314 q 340 191 311 232 q 433 150 369 150 q 558 208 520 150 q 597 401 597 266 l 597 758 l 804 758 l 804 0 l 645 0 m 338 842 l 338 860 q 497 1064 454 995 l 729 1064 l 729 1049 q 609 945 694 1014 q 475 842 523 875 l 338 842 "},"˚":{"x_min":230.734375,"x_max":571.203125,"ha":802,"o":"m 571 1002 q 523 884 571 929 q 398 840 474 840 q 276 883 322 840 q 230 1001 230 926 q 276 1118 230 1074 q 398 1162 322 1162 q 522 1117 473 1162 q 571 1002 571 1072 m 464 1001 q 445 1049 464 1031 q 398 1066 427 1066 q 352 1049 370 1066 q 333 1001 333 1031 q 350 953 333 970 q 398 935 366 935 q 445 953 427 935 q 464 1001 464 970 "},"д":{"x_min":19.671875,"x_max":900.96875,"ha":922,"o":"m 582 151 l 582 602 l 427 602 q 381 363 410 476 q 299 151 351 250 l 582 151 m 900 -272 l 715 -272 l 715 0 l 205 0 l 205 -272 l 19 -272 l 19 151 l 83 151 q 192 406 148 252 q 254 758 236 560 l 789 758 l 789 151 l 900 151 l 900 -272 "},"ӥ":{"x_min":108.515625,"x_max":891.484375,"ha":1000,"o":"m 308 758 l 308 458 q 293 226 308 410 l 642 758 l 891 758 l 891 0 l 691 0 l 691 302 q 704 530 691 383 l 356 0 l 108 0 l 108 758 l 308 758 m 268 953 q 293 1021 268 997 q 362 1044 319 1044 q 432 1019 407 1044 q 458 953 458 994 q 432 887 458 912 q 362 863 406 863 q 293 886 319 863 q 268 953 268 910 m 541 953 q 568 1022 541 1000 q 636 1044 596 1044 q 707 1020 680 1044 q 733 953 733 995 q 706 887 733 911 q 636 863 680 863 q 568 885 596 863 q 541 953 541 907 "},"¯":{"x_min":-4.0625,"x_max":699.0625,"ha":695,"o":"m 699 1055 l -4 1055 l -4 1191 l 699 1191 l 699 1055 "},"u":{"x_min":104.453125,"x_max":804.484375,"ha":913,"o":"m 645 0 l 617 96 l 607 96 q 512 14 573 43 q 373 -14 451 -14 q 172 57 240 -14 q 104 263 104 129 l 104 758 l 311 758 l 311 314 q 340 191 311 232 q 433 150 369 150 q 558 208 520 150 q 597 401 597 266 l 597 758 l 804 758 l 804 0 l 645 0 "},"З":{"x_min":63.75,"x_max":840.3125,"ha":900,"o":"m 809 759 q 741 601 809 663 q 558 521 674 538 l 558 517 q 767 442 694 504 q 840 281 840 380 q 729 65 840 144 q 422 -14 618 -14 q 71 39 204 -14 l 71 215 q 221 168 135 185 q 381 150 307 150 q 632 296 632 150 q 551 397 632 362 q 314 432 471 432 l 221 432 l 221 597 l 304 597 q 533 626 461 597 q 605 726 605 656 q 560 807 605 777 q 425 837 515 837 q 155 757 285 837 l 63 897 q 243 979 148 953 q 454 1006 338 1006 q 713 938 616 1006 q 809 759 809 870 "},"Α":{"x_min":0,"x_max":958,"ha":958,"o":"m 731 0 l 659 236 l 298 236 l 226 0 l 0 0 l 349 996 l 606 996 l 958 0 l 731 0 m 609 413 q 497 775 509 733 q 479 842 484 817 q 351 413 456 755 l 609 413 "},"⅝":{"x_min":60.9375,"x_max":1183.5,"ha":1224,"o":"m 960 992 l 410 0 l 248 0 l 798 992 l 960 992 m 951 607 q 1104 565 1047 607 q 1161 453 1161 524 q 1138 376 1161 410 q 1064 313 1115 343 q 1137 264 1115 285 q 1171 219 1159 243 q 1183 164 1183 194 q 1118 34 1183 85 q 951 -16 1054 -16 q 780 31 842 -16 q 718 160 718 79 q 742 240 718 204 q 825 307 766 276 q 739 453 739 368 q 798 565 739 524 q 951 607 857 607 m 871 160 q 890 110 871 129 q 948 91 910 91 q 1009 110 988 91 q 1029 160 1029 129 q 939 245 1029 215 q 871 160 871 215 m 950 499 q 905 483 921 499 q 890 448 890 467 q 908 403 890 420 q 951 372 925 386 q 994 402 977 385 q 1011 448 1011 419 q 997 483 1011 467 q 950 499 982 499 m 273 781 q 429 730 370 781 q 488 593 488 679 q 424 440 488 494 q 235 386 359 386 q 60 421 128 386 l 60 551 q 139 515 94 529 q 222 501 184 501 q 338 590 338 501 q 309 654 338 633 q 224 676 279 676 q 144 664 182 676 l 70 693 l 95 992 l 447 992 l 447 867 l 206 867 l 195 775 q 273 781 233 781 "},"ẻ":{"x_min":62.390625,"x_max":761.3125,"ha":821,"o":"m 422 625 q 319 583 356 625 q 276 465 282 542 l 567 465 q 527 583 565 542 q 422 625 488 625 m 451 -14 q 165 87 268 -14 q 62 373 62 188 q 157 668 62 564 q 421 773 253 773 q 671 681 582 773 q 761 427 761 589 l 761 327 l 271 327 q 324 189 275 239 q 461 139 373 139 q 590 154 529 139 q 718 199 652 168 l 718 39 q 602 0 664 12 q 451 -14 540 -14 m 604 1008 q 494 875 604 902 l 487 827 l 369 827 l 354 926 q 423 951 404 934 q 441 994 441 969 q 427 1027 441 1016 q 389 1039 413 1039 q 295 1023 345 1039 l 295 1137 q 351 1148 316 1144 q 415 1153 387 1153 q 557 1115 510 1153 q 604 1008 604 1077 "}}}
